<svg width="768" height="695" viewBox="0 0 768 695" fill="none" xmlns="http://www.w3.org/2000/svg">
<g opacity="0.3">
<path d="M218.242 694.448C212.573 694.448 207.056 693.881 201.754 692.751C190.635 690.379 180.361 685.508 171.22 678.275C161.394 670.502 152.776 659.911 145.604 646.797C131.188 620.437 123.976 588.87 117.001 558.34C115.631 552.346 114.214 546.147 112.776 540.133C102.961 499.141 90.5189 463.234 74.7418 430.36C43.2688 364.784 -0.992401 308.819 -53.2595 268.516C-113.706 221.909 -178.695 198.692 -236.258 203.143C-270.09 205.761 -314.792 230.652 -334.771 273.163C-346.627 298.392 -347.583 326.39 -337.534 354.125L-337.733 354.243C-343.002 339.697 -345.298 325.114 -344.555 310.901C-343.873 297.862 -340.645 285.116 -334.959 273.018C-325.916 253.775 -311.003 236.72 -291.832 223.695C-274.116 211.661 -254.386 204.262 -236.271 202.861C-206.147 200.534 -174.108 205.699 -141.045 218.219C-111.074 229.57 -81.5003 246.41 -53.1455 268.273C-0.847687 308.598 43.4399 364.594 74.9304 430.21C90.7162 463.105 103.165 499.032 112.986 540.046C114.427 546.061 115.843 552.262 117.212 558.257C124.18 588.764 131.388 620.309 145.784 646.629C159.705 672.087 178.55 687.51 201.791 692.466C233.977 699.332 273.061 684.973 306.339 654.053C354.295 609.497 387.577 544.643 419.765 481.927C425.407 470.934 431.24 459.567 437.015 448.59C452.01 420.087 472.317 383.153 496.451 350.249C521.119 316.616 546.187 291.906 573.088 274.703C589.554 264.173 607.004 257.079 624.954 253.618C641.534 250.42 659.082 250.222 677.114 253.024C708.043 257.833 741.364 271.416 778.984 294.546C853.056 340.096 927.049 395.383 998.906 458.874C1067.2 519.221 1134.19 587.508 1198 661.831L1197.85 662.037C1065.58 507.968 924.619 384.412 778.887 294.797C696.553 244.169 631.19 237.861 573.187 274.952C514.177 312.684 472.955 380.778 437.197 448.744C431.424 459.717 425.591 471.084 419.949 482.078C387.752 544.816 354.459 609.689 306.47 654.276C290.963 668.685 273.517 679.924 256.021 686.776C246.779 690.395 237.591 692.762 228.71 693.811C225.171 694.238 221.678 694.448 218.242 694.448Z" fill="#FFE492"/>
<path d="M223.784 678.817C209.329 678.817 195.94 675.314 183.974 668.401C170.631 660.693 159.116 648.748 149.749 632.902C148.92 631.498 148.098 630.047 147.304 628.584C133.042 602.339 125.51 571.182 118.228 541.049C116.754 534.959 115.232 528.66 113.689 522.548C104.494 486.156 93.4229 454.081 79.8387 424.495C78.1656 420.853 76.4333 417.202 74.6856 413.647C42.75 348.634 -1.87091 293.378 -54.3529 253.851C-115.235 208.039 -180.409 185.782 -237.869 191.182C-271.456 194.372 -315.951 219.671 -336.015 261.855C-348.03 287.115 -349.389 315.169 -339.951 342.985L-340.153 343.097C-345.1 328.517 -347.133 313.907 -346.192 299.677C-345.328 286.607 -341.969 273.833 -336.204 261.71C-327.069 242.5 -312.2 225.426 -293.208 212.334C-275.655 200.233 -256.01 192.622 -237.889 190.903C-207.801 188.076 -175.728 192.748 -142.56 204.788C-112.516 215.694 -82.802 232.121 -54.2432 253.611C-1.73056 293.16 42.9145 348.449 74.8698 413.499C76.6175 417.057 78.352 420.71 80.0251 424.355C93.6181 453.961 104.696 486.052 113.895 522.465C115.441 528.577 116.962 534.876 118.436 540.968C125.716 571.081 133.242 602.216 147.484 628.425C148.275 629.882 149.098 631.333 149.924 632.734C169.282 665.49 195.881 678.817 223.852 678.817C224.005 678.817 224.156 678.817 224.31 678.817C224.135 678.814 223.959 678.817 223.784 678.817ZM229.75 678.621C255.754 676.922 282.587 664.204 305.607 645.285C355.263 604.307 390.95 541.016 425.465 479.809C426.885 477.286 428.306 474.769 429.727 472.252C432.848 466.726 436.547 460.184 440.323 453.589C457.262 424.015 477.762 389.603 501.372 358.631C526.492 325.673 551.589 301.217 578.093 283.861C594.379 273.208 611.59 265.703 629.248 261.556C645.609 257.713 662.899 256.628 680.632 258.327C711.267 261.266 744.207 272.407 781.335 292.39C817.534 311.842 847.29 330.153 874.978 350.015C914.202 378.18 951.565 410.633 982.941 438.661C1055.89 504.012 1127.46 578.218 1195.67 659.219L1195.52 659.423C1127.32 578.432 1055.75 504.232 982.816 438.89C951.444 410.864 914.088 378.418 874.872 350.261C847.191 330.404 817.444 312.099 781.252 292.652C700.371 249.12 635.846 246.405 578.194 284.112C518.357 323.29 475.745 392.221 440.5 453.757C436.722 460.352 433.025 466.891 429.905 472.419C428.484 474.934 427.063 477.454 425.642 479.977C391.117 541.203 355.416 604.516 305.726 645.525C293.404 655.65 280.294 663.693 266.756 669.428C254.154 674.762 241.732 677.845 229.75 678.621Z" fill="#FFE492"/>
<path d="M229.898 663.542C228.16 663.542 226.432 663.494 224.717 663.396C210.275 662.584 196.91 658.367 184.995 650.857C171.963 642.644 160.672 630.478 151.439 614.696C150.618 613.289 149.801 611.835 149.011 610.373C134.909 584.256 127.064 553.515 119.479 523.79C117.898 517.594 116.262 511.186 114.604 504.968C104.956 468.698 93.5931 436.88 79.8619 407.693C78.1625 404.084 76.4038 400.465 74.6299 396.937C42.2316 332.491 -2.7489 277.943 -55.4458 239.192C-116.762 194.176 -182.12 172.876 -239.479 179.225C-271.774 182.856 -316.141 206.712 -337.236 250.506C-349.423 275.808 -351.197 303.937 -342.367 331.851L-342.571 331.955C-347.197 317.331 -348.962 302.687 -347.822 288.431C-346.774 275.32 -343.274 262.513 -337.422 250.361C-328.19 231.197 -313.369 214.117 -294.56 200.963C-277.171 188.803 -257.616 180.986 -239.499 178.949C-209.447 175.625 -177.338 179.8 -144.067 191.36C-113.949 201.826 -84.0966 217.837 -55.3362 238.952C-2.60855 277.728 42.3961 332.306 74.8141 396.789C76.5881 400.319 78.3489 403.939 80.0483 407.553C93.786 436.757 105.156 468.595 114.808 504.884C116.466 511.105 118.102 517.513 119.683 523.709C127.265 553.417 135.105 584.136 149.189 610.222C149.978 611.685 150.792 613.136 151.612 614.537C189.132 678.665 255.626 671.78 304.878 636.512C356.606 599.145 395.048 537.041 432.224 476.981L432.606 476.365C436.206 470.543 439.929 464.526 443.635 458.584C482.739 395.902 525.72 331.483 583.105 293.011C599.215 282.233 616.19 274.318 633.552 269.487C649.702 264.994 666.729 263.021 684.159 263.623C714.549 264.673 747.107 273.375 783.696 290.226C822.148 307.872 851.084 324.093 877.521 342.822C915.186 369.561 951.672 403.35 983.862 433.162C1055.53 499.894 1126.02 575.069 1193.35 656.592L1193.2 656.793C1125.87 575.278 1055.39 500.112 983.732 433.385C951.547 403.579 915.068 369.796 877.413 343.065C850.988 324.341 822.061 308.126 783.621 290.485C704.311 253.959 640.628 254.838 583.206 293.254C525.858 331.701 482.895 396.091 443.806 458.752C440.101 464.693 436.377 470.713 432.777 476.532L432.395 477.149C413.868 507.078 394.712 538.026 374.025 565.669C350.778 596.734 328.194 619.985 304.984 636.749C280.701 654.136 254.249 663.542 229.898 663.542Z" fill="#FFE492"/>
<path d="M1190.87 654.162C1124.42 572.122 1055.03 495.99 984.646 427.882C981.664 425.019 978.677 422.141 975.68 419.256C945.191 389.89 913.666 359.526 879.954 335.871C847.249 312.986 814.103 298.992 785.991 288.323C708.395 258.69 645.552 263.163 588.218 302.397C529.361 342.792 483.756 409.859 447.112 463.75C444.913 466.985 442.718 470.225 440.519 473.468C438.896 475.863 437.271 478.257 435.646 480.649C414.782 511.365 395.803 538.827 374.834 563.886C350.878 592.512 327.788 613.477 304.24 627.981C282.171 641.575 258.597 648.767 236.669 648.77C232.674 648.77 228.738 648.533 224.87 648.05C210.748 646.289 197.675 641.341 186.014 633.342C173.289 624.615 162.222 612.218 153.115 596.494C152.302 595.085 151.491 593.628 150.706 592.163C136.77 566.183 128.62 535.874 120.739 506.565C119.042 500.252 117.285 493.721 115.509 487.383C105.4 451.228 93.7437 419.663 79.8765 390.884C78.1508 387.303 76.3637 383.717 74.5656 380.22C41.7024 316.34 -3.63547 262.502 -56.545 224.524C-118.296 180.303 -183.836 159.966 -241.094 167.256C-280.237 172.338 -320.264 201.882 -338.433 239.098C-350.812 264.453 -353.007 292.671 -344.786 320.702L-344.992 320.8C-349.297 306.123 -350.796 291.435 -349.45 277.143C-348.211 263.984 -344.567 251.135 -338.62 238.95C-329.292 219.841 -314.519 202.761 -295.898 189.56C-278.676 177.35 -259.221 169.329 -241.116 166.979C-211.099 163.156 -178.957 166.837 -145.583 177.917C-115.393 187.941 -85.3976 203.54 -56.4354 224.278C-3.49292 262.279 41.8691 316.148 74.752 380.067C76.5523 383.566 78.3394 387.155 80.0651 390.736C93.941 419.532 105.602 451.113 115.717 487.286C117.494 493.626 119.25 500.154 120.947 506.47C128.824 535.763 136.97 566.052 150.888 592.001C151.673 593.464 152.482 594.918 153.293 596.324C192.463 663.958 259.038 655.51 304.145 627.727C357.963 594.577 399.145 533.954 435.482 480.465C437.107 478.07 438.729 475.676 440.354 473.284C442.551 470.041 444.749 466.801 446.948 463.566C467.865 432.805 488.521 402.913 511.229 375.367C537.343 343.688 562.494 319.74 588.117 302.152C604.058 291.242 620.791 282.917 637.853 277.411C653.799 272.262 670.565 269.404 687.687 268.912C717.881 268.047 750.06 274.31 786.057 288.055C814.177 298.73 847.338 312.729 880.061 335.628C913.788 359.291 945.321 389.664 975.816 419.035C978.811 421.921 981.8 424.798 984.782 427.662C1055.17 495.775 1124.57 571.915 1191.03 653.964L1190.87 654.162Z" fill="#FFE492"/>
<path d="M1188.55 651.533C1121.72 567.4 1053.43 490.3 985.563 422.379C981.502 418.316 977.349 414.127 973.332 410.077C944.561 381.075 914.811 351.084 882.498 328.676C850.231 306.38 816.807 294.67 788.364 286.158C712.656 263.281 650.651 271.347 593.233 311.54C538.466 350.018 495.56 407.878 454.066 463.832L449.51 469.974C445.911 474.828 442.19 479.843 438.522 484.763C396.986 540.396 355.407 592.538 303.501 619.207C290.906 625.679 277.973 630.164 265.057 632.544C251.188 635.098 237.716 635.134 225.013 632.651C211.216 629.952 198.439 624.283 187.036 615.802C174.627 606.573 163.782 593.95 154.805 578.287C153.995 576.87 153.191 575.41 152.412 573.948C138.648 548.121 130.204 518.259 122.038 489.379C120.216 482.935 118.33 476.271 116.427 469.799C105.849 433.755 93.9023 402.444 79.9036 374.078C78.1537 370.534 76.3403 366.975 74.5137 363.506C41.1878 300.193 -4.50751 247.063 -57.6342 209.858C-119.821 166.438 -185.546 147.059 -242.705 155.295C-281.491 161.002 -321.336 190.752 -339.597 227.645C-352.182 253.064 -354.811 281.391 -347.202 309.565L-347.41 309.657C-351.392 294.915 -352.622 280.171 -351.068 265.837C-349.633 252.623 -345.838 239.723 -339.786 227.499C-330.357 208.455 -315.637 191.391 -297.213 178.152C-280.162 165.897 -260.813 157.683 -242.731 155.021C-212.749 150.701 -180.575 153.885 -147.095 164.485C-116.83 174.069 -86.6973 189.251 -57.5311 209.616C-4.37375 246.84 41.3479 300.003 74.6935 363.353C76.5201 366.824 78.3357 370.386 80.0855 373.93C94.093 402.31 106.046 433.638 116.628 469.701C118.532 476.173 120.417 482.84 122.24 489.284C130.401 518.147 138.841 547.996 152.59 573.791C153.366 575.248 154.171 576.705 154.978 578.123C193.204 644.816 256.721 642.943 303.416 618.95C355.279 592.303 396.841 540.181 438.359 484.573C442.028 479.653 445.749 474.638 449.347 469.785L453.904 463.642C474.273 436.177 495.332 407.775 518.205 381.354C544.111 351.43 568.617 328.514 593.124 311.295C608.903 300.249 625.399 291.513 642.152 285.334C657.903 279.524 674.408 275.778 691.209 274.202C721.272 271.38 753.065 275.204 788.413 285.884C816.868 294.402 850.31 306.115 882.599 328.431C914.929 350.847 944.688 380.846 973.466 409.857C977.483 413.906 981.636 418.092 985.697 422.159C1053.57 490.085 1121.87 567.191 1188.7 651.332L1188.55 651.533Z" fill="#FFE492"/>
<path d="M1186.23 648.904C1119.97 563.836 1052.76 485.771 986.475 416.878C981.493 411.701 976.386 406.318 971.448 401.113C944.229 372.423 916.083 342.756 885.035 321.487C852.92 299.573 819.344 290.238 790.732 283.997C717.123 267.696 655.958 279.356 598.241 320.689C547.873 356.911 506.52 408.246 466.525 457.89C462.318 463.114 457.965 468.515 453.724 473.748C448.744 479.893 444.94 484.562 441.39 488.882C422.376 512.007 399.738 538.635 375.981 560.783C350.806 584.251 326.854 600.494 302.756 610.441C290.083 615.671 277.205 618.97 264.476 620.242C250.809 621.61 237.575 620.605 225.146 617.253C211.681 613.622 199.201 607.234 188.051 598.267C175.96 588.544 165.341 575.695 156.486 560.083C155.688 558.668 154.888 557.205 154.111 555.737C140.529 530.084 131.802 500.682 123.36 472.249C121.402 465.654 119.378 458.836 117.336 452.213C106.282 416.27 94.0446 385.216 79.9208 357.271C78.1447 353.758 76.3049 350.233 74.4521 346.792C40.6635 284.045 -5.39145 231.624 -58.733 195.192C-121.352 152.571 -187.261 134.154 -244.319 143.33C-276.785 148.666 -319.189 173.248 -340.735 216.132C-353.546 241.629 -356.62 270.085 -349.623 298.421L-349.831 298.504C-353.491 283.688 -354.447 268.879 -352.675 254.49C-351.039 241.208 -347.086 228.253 -340.92 215.982C-331.39 197.015 -316.725 179.98 -298.505 166.712C-281.625 154.421 -262.392 146.02 -244.345 143.054C-214.398 138.237 -182.189 140.924 -148.608 151.044C-118.271 160.187 -87.9978 174.956 -58.6299 194.947C-5.25769 231.398 40.8236 283.85 74.6319 346.633C76.4848 350.074 78.3267 353.604 80.1028 357.121C94.2331 385.079 106.478 416.15 117.538 452.11C119.582 458.736 121.606 465.554 123.564 472.148C131.999 500.568 140.724 529.953 154.291 555.578C155.067 557.043 155.866 558.503 156.664 559.915C188.466 615.994 243.055 634.783 302.688 610.17C356.691 587.882 400.744 537.929 441.238 488.676C444.788 484.356 448.591 479.686 453.571 473.541C457.811 468.308 462.164 462.908 466.372 457.683C486.061 433.244 506.419 407.973 528.134 384.309C552.689 357.548 575.588 336.655 598.136 320.44C613.764 309.249 630.019 300.103 646.454 293.26C662.021 286.777 678.265 282.147 694.735 279.493C724.723 274.665 756.137 276.046 790.77 283.716C819.396 289.961 852.996 299.3 885.138 321.233C916.205 342.516 944.359 372.191 971.586 400.89C976.524 406.094 981.631 411.478 986.613 416.655C1052.9 485.556 1120.12 563.627 1186.38 648.701L1186.23 648.904Z" fill="#FFE492"/>
<path d="M1183.9 646.275C1118.22 560.266 1052.1 481.232 987.386 411.374C981.88 405.432 976.227 399.195 970.758 393.164C944.708 364.435 917.774 334.729 887.573 314.292C855.435 292.64 821.783 285.733 793.101 281.831C722.829 272.016 660.728 287.717 603.25 329.831C557.485 363.517 518.254 408.581 480.314 452.163C472.651 460.965 464.728 470.069 457.025 478.745C452.313 484.056 448.138 488.72 444.256 493.001C426.208 512.889 402.199 538.389 376.543 559.228C350.765 580.165 326.383 594.05 302.006 601.671C275.419 609.985 248.884 610.047 225.272 601.853C212.144 597.295 199.961 590.19 189.061 580.732C177.292 570.52 166.898 557.447 158.164 541.883C157.373 540.465 156.579 539 155.807 537.532C142.418 512.074 133.419 483.155 124.718 455.191C122.613 448.426 120.438 441.432 118.243 434.636C106.704 398.787 94.1748 367.985 79.937 340.473C78.1346 336.99 76.2685 333.495 74.3893 330.085C40.1381 267.905 -6.27426 216.19 -59.8307 180.537C-122.882 138.716 -188.974 121.259 -245.934 131.376C-284.536 138.381 -323.078 167.797 -341.84 204.569C-354.896 230.158 -358.424 258.762 -352.043 287.287L-352.253 287.363C-355.588 272.457 -356.268 257.57 -354.275 243.119C-352.433 229.762 -348.311 216.74 -342.024 204.416C-332.393 185.538 -317.785 168.542 -299.778 155.263C-283.075 142.947 -263.963 134.362 -245.965 131.097C-216.053 125.783 -183.808 127.977 -150.125 137.614C-119.713 146.316 -89.2995 160.672 -59.7299 180.286C-6.1427 215.961 40.296 267.704 74.5691 329.923C76.4483 333.334 78.3144 336.831 80.119 340.316C94.3633 367.845 106.899 398.662 118.444 434.527C120.639 441.323 122.815 448.32 124.92 455.085C133.616 483.035 142.611 511.94 155.987 537.373C156.759 538.841 157.55 540.3 158.342 541.718C189.598 597.435 243.284 619.745 301.954 601.401C355.44 584.675 401.888 539.315 444.112 492.792C447.991 488.511 452.168 483.85 456.878 478.539C464.579 469.862 472.504 460.761 480.165 451.959C518.114 408.368 557.351 363.293 603.139 329.594C618.628 318.243 634.647 308.69 650.748 301.194C666.148 294.027 682.131 288.51 698.253 284.795C728.234 277.888 759.267 276.83 793.121 281.558C821.822 285.462 855.503 292.372 887.674 314.049C917.897 334.5 944.842 364.217 970.901 392.957C976.369 398.988 982.022 405.223 987.528 411.165C1052.25 481.028 1118.37 560.068 1184.06 646.082L1183.9 646.275Z" fill="#FFE492"/>
<path d="M1181.57 643.647C1116.47 556.689 1051.45 476.692 988.298 405.874C982.496 399.366 976.526 392.475 970.754 385.811C945.656 356.839 919.704 326.879 890.11 307.1C857.837 285.633 824.158 281.187 795.468 279.669C727.851 275.829 666.613 295.228 608.259 338.978C567.335 369.805 530.854 408.822 495.572 446.551C483.442 459.526 471.982 471.78 460.328 483.745C455.587 488.615 451.269 492.991 447.125 497.118C420.384 523.729 398.136 542.969 377.107 557.666C350.726 576.105 325.917 587.632 301.261 592.901C291.696 594.944 282.166 595.962 272.81 595.962C256.224 595.962 240.175 592.769 225.4 586.445C198.661 575 176.606 553.882 159.847 523.676C159.057 522.245 158.27 520.779 157.507 519.317C144.322 494.079 135.07 465.674 126.124 438.201C123.856 431.24 121.515 424.046 119.153 417.049C107.121 381.284 94.2978 350.738 79.957 323.664C78.1282 320.212 76.2358 316.748 74.3303 313.369C39.6164 251.755 -7.15558 200.749 -60.9269 165.869C-124.41 124.852 -190.685 108.353 -247.546 119.41C-286.307 127.104 -323.738 155.962 -342.901 192.929C-356.222 218.625 -360.217 247.399 -354.459 276.142L-354.672 276.211C-357.678 261.202 -358.077 246.226 -355.856 231.7C-353.799 218.254 -349.503 205.159 -343.083 192.776C-333.351 174.002 -318.807 157.061 -301.019 143.783C-284.496 131.447 -265.518 122.695 -247.579 119.134C-217.702 113.323 -185.422 115.02 -151.638 124.177C-121.152 132.441 -90.5996 146.384 -60.8261 165.618C-7.02402 200.521 39.7743 251.554 74.5101 313.204C76.4156 316.587 78.308 320.05 80.139 323.505C94.4886 350.593 107.318 381.156 119.355 416.935C121.716 423.931 124.06 431.129 126.326 438.089C135.268 465.548 144.515 493.943 157.689 519.158C158.452 520.618 159.237 522.083 160.026 523.512C191.322 579.92 242.786 605.111 301.224 592.622C356.852 580.733 406.124 537.561 446.989 496.895C451.131 492.768 455.449 488.394 460.189 483.524C471.842 471.56 483.301 459.308 495.432 446.333C530.718 408.595 567.208 369.574 608.147 338.735C623.521 327.209 639.3 317.245 655.049 309.118C670.302 301.248 686.024 294.843 701.777 290.085C731.82 281.012 762.471 277.512 795.476 279.387C824.191 280.906 857.901 285.357 890.211 306.849C919.829 326.642 945.791 356.616 970.899 385.599C976.672 392.263 982.641 399.154 988.441 405.659C1051.59 476.483 1116.62 556.488 1181.73 643.451L1181.57 643.647Z" fill="#FFE492"/>
<path d="M1179.25 641.018C1113.83 551.867 1051.67 473.151 989.219 400.371C983.259 393.427 977.394 386.336 971.182 378.828C946.901 349.48 921.794 319.135 892.656 299.909C859.979 278.45 824.822 276.664 797.844 277.506C733.307 279.259 672.933 302.359 613.276 348.126C577.483 375.719 544.436 408.855 512.476 440.902C495.679 457.745 479.815 473.65 463.636 488.746C458.834 493.231 454.372 497.317 449.999 501.238C422.894 525.507 399.914 542.939 377.675 556.1C350.682 572.075 325.445 581.243 300.522 584.129C287.716 585.611 274.998 585.332 262.721 583.3C249.722 581.148 237.21 577.021 225.533 571.034C199.652 557.764 178.121 535.708 161.537 505.474C160.754 504.04 159.974 502.572 159.215 501.11C146.251 476.131 136.767 448.268 127.595 421.322C125.148 414.133 122.617 406.698 120.072 399.469C107.535 363.783 94.4226 333.491 79.9831 306.863C78.1258 303.442 76.2072 300.009 74.2797 296.66C39.1031 235.613 -8.02628 185.316 -62.0125 151.209C-111.841 119.86 -163.227 103.502 -210.348 103.502C-223.669 103.502 -236.639 104.808 -249.149 107.451C-287.443 115.701 -324.64 144.662 -343.914 181.233C-357.518 207.049 -361.998 236.018 -356.869 265.006L-357.084 265.068C-359.761 249.941 -359.873 234.862 -357.417 220.252C-355.141 206.708 -350.659 193.527 -344.098 181.077C-334.266 162.42 -319.789 145.549 -302.229 132.284C-285.654 119.762 -267.312 111.079 -249.188 107.178C-219.347 100.871 -187.032 102.073 -153.144 110.747C-122.586 118.567 -91.8914 132.095 -61.916 150.955C-7.89911 185.082 39.2588 235.406 74.4573 296.49C76.387 299.839 78.3079 303.274 80.1651 306.699C94.6112 333.34 107.731 363.646 120.273 399.349C122.819 406.578 125.352 414.013 127.799 421.205C136.967 448.139 146.446 475.992 159.399 500.951C160.158 502.41 160.938 503.878 161.719 505.31C192.731 561.844 243.315 590.467 300.504 583.847C358.374 577.146 410.729 536.054 449.877 501.004C454.249 497.082 458.709 492.997 463.511 488.514C479.687 473.424 495.55 457.516 512.344 440.676C544.309 408.626 577.36 375.482 613.166 347.881C643.881 324.317 674.02 307.145 705.311 295.379C735.488 284.031 765.757 278.092 797.844 277.222C816.15 276.65 831.085 277.643 844.847 280.345C862.615 283.833 878.287 290.149 892.761 299.655C921.925 318.898 947.043 349.259 971.337 378.622C977.547 386.129 983.415 393.218 989.37 400.162C1051.83 472.944 1113.99 551.666 1179.42 640.822L1179.25 641.018Z" fill="#FFE492"/>
<path d="M1176.92 638.388C1112.1 548.26 1051 468.607 990.126 394.867C984.105 387.571 978.167 380.056 971.88 372.099C948.325 342.287 923.97 311.456 895.19 292.713C862.243 271.355 827.124 272.209 800.21 275.337C739.305 282.172 679.795 308.973 618.281 357.266C587.973 381.175 559.116 408.536 531.208 434.999C509.147 455.917 488.311 475.676 466.936 493.735C462.105 497.821 457.369 501.728 452.862 505.345C425.705 527.125 401.293 543.209 378.231 554.517C350.618 568.059 324.953 574.874 299.771 575.348C286.959 575.588 274.291 574.115 262.128 570.964C249.377 567.66 237.106 562.494 225.655 555.606C200.662 540.572 179.653 517.578 163.214 487.261C162.442 485.829 161.666 484.358 160.909 482.887C148.189 458.213 138.499 430.938 129.127 404.562C126.476 397.099 123.733 389.38 120.977 381.875C107.927 346.256 94.5228 316.22 79.9979 290.048C78.1143 286.657 76.1693 283.255 74.2155 279.937C38.5763 219.456 -8.91278 169.868 -63.1139 136.534C-127.459 97.1272 -194.104 82.5478 -250.768 95.4806C-288.567 104.258 -325.515 133.294 -344.897 169.449C-358.808 195.402 -363.786 224.588 -359.295 253.859L-359.51 253.912C-361.852 238.654 -361.672 223.458 -358.972 208.747C-356.466 195.092 -351.793 181.816 -345.079 169.29C-335.15 150.767 -320.746 133.98 -303.423 120.743C-287.038 108.224 -268.845 99.3934 -250.807 95.2043C-220.998 88.403 -188.651 89.1063 -154.662 97.3003C-124.029 104.685 -93.1966 117.799 -63.0196 136.28C-8.78558 169.631 38.7298 219.249 74.3887 279.766C76.3447 283.085 78.2919 286.489 80.1754 289.883C94.7092 316.07 108.118 346.119 121.174 381.752C123.932 389.257 126.673 396.977 129.327 404.442C138.694 430.807 148.38 458.071 161.091 482.728C161.848 484.196 162.624 485.667 163.394 487.096C194.733 544.889 243.165 576.135 299.767 575.064C345.695 574.199 394.304 551.967 452.744 505.103C457.248 501.486 461.982 497.581 466.813 493.495C488.182 475.439 509.017 455.685 531.075 434.767C558.986 408.302 587.848 380.935 618.165 357.02C649.18 332.67 678.835 314.239 708.826 300.667C739.209 286.919 769.094 278.538 800.19 275.05C827.133 271.916 862.294 271.064 895.291 292.456C924.102 311.222 948.47 342.067 972.036 371.892C978.32 379.849 984.258 387.362 990.278 394.655C1051.15 468.397 1112.26 548.057 1177.08 638.19L1176.92 638.388Z" fill="#FFE492"/>
<path d="M1174.6 635.76C1110.38 544.652 1050.34 464.055 991.042 389.367C985.023 381.784 979.079 373.905 972.788 365.563C949.899 335.218 926.23 303.841 897.733 285.522C864.475 264.241 829.413 267.744 802.582 273.172C745.278 284.545 688.31 314.173 623.294 366.412C598.91 386.093 575.081 407.683 552.037 428.561C524.048 453.919 497.612 477.873 470.24 498.734C465.308 502.497 460.427 506.108 455.732 509.463C428.088 529.205 402.921 543.427 378.794 552.938C365.28 558.266 351.939 562.126 339.142 564.412C325.492 566.848 311.996 567.576 299.027 566.577C272.716 564.548 248.074 555.668 225.786 540.184C201.716 523.461 181.231 499.533 164.902 469.057C164.134 467.614 163.365 466.14 162.612 464.678C150.164 440.367 140.301 413.739 130.764 387.991C127.877 380.196 124.892 372.136 121.89 364.294C108.315 328.732 94.6187 298.951 80.0192 273.245C78.1093 269.882 76.1358 266.51 74.1579 263.226C38.056 203.309 -9.79047 154.43 -64.2065 121.875C-128.981 83.2742 -195.808 69.6549 -252.378 83.5226C-312.949 98.6016 -371.972 163.754 -361.71 242.721L-361.927 242.766C-364.495 223.012 -362.99 203.552 -357.458 184.92C-352.406 167.904 -344.115 151.89 -332.815 137.327C-322.31 123.786 -309.706 112.095 -295.356 102.579C-281.708 93.5278 -266.861 86.8409 -252.422 83.2463C-222.648 75.9482 -190.265 76.1576 -156.174 83.8715C-125.466 90.8179 -94.4932 103.519 -64.1144 121.623C-9.66769 154.201 38.2073 203.108 74.3311 263.058C76.3112 266.346 78.2847 269.717 80.1968 273.083C94.8029 298.801 108.506 328.599 122.088 364.174C125.09 372.016 128.074 380.076 130.962 387.873C140.496 413.613 150.355 440.23 162.797 464.527C163.547 465.989 164.314 467.463 165.081 468.903C196.467 527.472 244.041 562.059 299.041 566.301C345.602 569.887 396.821 551.219 455.625 509.223C460.317 505.868 465.196 502.259 470.128 498.497C497.494 477.641 523.926 453.69 551.91 428.335C574.956 407.454 598.787 385.861 623.175 366.177C688.217 313.916 745.212 284.277 802.547 272.896C820.576 269.248 835.502 268.082 849.525 269.229C867.451 270.694 883.25 275.941 897.83 285.271C926.36 303.609 950.042 335.006 972.943 365.368C979.234 373.707 985.177 381.586 991.194 389.166C1050.5 463.86 1110.54 544.46 1174.76 635.573L1174.6 635.76Z" fill="#FFE492"/>
<path d="M1172.28 633.13C1108.67 541.029 1049.69 459.495 991.962 383.863C985.989 376.037 980.086 367.84 973.836 359.158C951.569 328.233 928.542 296.252 900.277 278.326C866.296 256.868 829.602 263.87 804.957 271.003C738.069 290.126 678.125 334.585 628.311 375.557C610.407 390.343 592.549 406.005 575.277 421.151C540.629 451.535 507.903 480.234 473.551 503.733C468.499 507.19 463.473 510.503 458.61 513.581C430.426 531.384 404.505 543.742 379.367 551.356C350.87 559.988 323.594 562.159 298.291 557.805C272.298 553.332 247.949 542.213 225.925 524.756C202.824 506.448 182.863 481.584 166.593 450.854C165.834 449.411 165.069 447.935 164.321 446.467C152.182 422.602 142.196 396.706 132.537 371.661C129.373 363.453 126.099 354.969 122.81 346.711C108.502 310.703 94.9132 282.022 80.0483 256.441C78.1121 253.108 76.1145 249.77 74.1081 246.514C37.5391 187.166 -10.667 138.996 -65.2979 107.211C-130.502 69.4199 -197.514 56.7578 -253.987 71.5605C-314.775 87.7056 -372.592 151.973 -364.123 231.582L-364.34 231.619C-366.441 211.868 -364.623 192.427 -358.94 173.837C-353.73 156.804 -345.39 140.774 -334.15 126.194C-323.669 112.597 -311.13 100.82 -296.882 91.183C-283.315 82.0067 -268.496 75.1272 -254.03 71.2842C-224.29 63.4894 -191.874 63.2047 -157.682 70.4358C-126.9 76.9441 -95.7863 89.2322 -65.2058 106.957C-10.542 138.759 37.6904 186.957 74.2769 246.341C76.2833 249.6 78.2831 252.941 80.2216 256.273C95.0952 281.865 108.688 310.564 123.003 346.585C126.292 354.843 129.566 363.33 132.73 371.538C142.387 396.575 152.371 422.463 164.501 446.316C165.249 447.784 166.012 449.258 166.771 450.701C198.399 510.436 245.116 548.375 298.318 557.529C346.032 565.74 398.431 551.28 458.511 513.33C463.372 510.255 468.398 506.945 473.446 503.487C507.789 479.993 540.51 451.301 575.152 420.92C592.424 405.774 610.284 390.108 628.191 375.32C661.688 347.771 689.553 327.418 715.88 311.267C746.873 292.256 775.993 278.996 804.907 270.73C822.532 265.628 837.895 263.317 851.874 263.669C869.872 264.121 885.737 268.832 900.374 278.075C928.676 296.023 951.715 328.023 973.996 358.968C980.246 367.648 986.146 375.844 992.117 383.664C1049.85 459.299 1108.83 540.84 1172.44 632.943L1172.28 633.13Z" fill="#FFE492"/>
<path d="M1169.95 630.499C1106.96 537.402 1049.03 454.927 992.871 378.357C986.982 370.328 981.153 361.846 974.983 352.865C953.303 321.317 930.886 288.695 902.814 271.132C868.46 249.724 831.865 259.567 807.325 268.835C746.721 291.528 692.665 334.736 633.319 384.701C622.616 393.746 611.791 403.081 601.32 412.112C561.052 446.842 519.415 482.752 476.851 508.729C471.681 511.888 466.506 514.905 461.473 517.696C433.099 533.414 405.663 544.203 379.926 549.766C350.771 556.067 323.054 555.819 297.539 549.031C271.91 542.213 247.857 528.854 226.048 509.323C203.977 489.558 184.536 463.763 168.266 432.653C167.513 431.207 166.755 429.728 166.011 428.26C154.238 404.954 144.189 379.9 134.471 355.673C130.969 346.943 127.348 337.917 123.711 329.135C108.843 293.163 94.972 264.727 80.0567 239.643C78.0985 236.35 76.0724 233.04 74.0375 229.808C37.0124 171.019 -11.5489 123.558 -66.3991 92.5484C-132.031 55.5668 -199.225 43.8648 -255.605 59.5996C-314.464 76.2052 -373.349 138.218 -366.549 220.442L-366.766 220.47C-368.4 200.719 -366.268 181.3 -360.433 162.752C-355.068 145.7 -346.678 129.656 -335.499 115.059C-314.874 88.1333 -285.771 67.8187 -255.654 59.3233C-225.948 51.0345 -193.497 50.2531 -159.202 57.0013C-128.345 63.0742 -97.0936 74.9465 -66.3114 92.2917C-11.4305 123.318 37.1593 170.81 74.2085 229.627C76.2456 232.861 78.2718 236.171 80.2321 239.467C95.154 264.565 109.032 293.013 123.904 328.998C127.541 337.783 131.164 346.809 134.666 355.539C144.382 379.761 154.429 404.809 166.196 428.104C166.937 429.572 167.695 431.048 168.448 432.494C200.999 494.735 245.653 534.938 297.581 548.755C345.664 561.548 400.773 551.013 461.381 517.439C466.411 514.648 471.582 511.634 476.75 508.478C519.299 482.509 560.931 446.604 601.191 411.881C611.661 402.849 622.487 393.514 633.192 384.469C659.17 362.597 689.397 337.51 719.397 316.565C750.778 294.656 779.516 278.958 807.257 268.57C824.72 261.976 840.081 258.554 854.211 258.113C872.032 257.555 888.412 261.853 902.904 270.884C915.479 278.751 928.136 290.492 941.598 306.78C953.485 321.161 964.495 337.186 975.143 352.681C981.311 361.659 987.14 370.141 993.027 378.167C1049.19 454.74 1107.12 537.218 1170.11 630.318L1169.95 630.499Z" fill="#FFE492"/>
<path d="M1167.63 627.87C1105.25 533.768 1048.39 450.352 993.788 372.855C988.005 364.65 982.278 355.912 976.215 346.663C955.1 314.46 933.269 281.159 905.357 263.942C879.274 247.903 847.983 248.796 809.697 266.672C756.167 291.524 708.316 333.094 657.654 377.109C651.346 382.59 644.824 388.255 638.333 393.851C635.792 396.047 633.248 398.249 630.707 400.449C582.435 442.225 532.521 485.424 480.16 513.729C474.866 516.593 469.547 519.314 464.347 521.814C435.35 535.749 407.14 544.619 380.502 548.174C350.674 552.154 322.512 549.491 296.804 540.259C271.574 531.197 247.817 515.596 226.194 493.889C205.235 472.849 186.316 446.124 169.96 414.45C169.215 413.002 168.463 411.52 167.724 410.049C156.398 387.474 146.381 363.431 136.691 340.18C132.768 330.764 128.71 321.027 124.633 311.549C109.192 275.603 95.0395 247.412 80.0891 222.836C78.1024 219.571 76.0522 216.294 73.991 213.093C36.4967 154.873 -12.4243 108.118 -67.4893 77.8846C-133.547 41.7151 -200.927 30.9703 -257.213 47.6373C-314.991 64.8876 -373.792 127.408 -368.961 209.303L-369.181 209.325C-370.345 189.572 -367.902 170.175 -361.916 151.675C-356.392 134.603 -347.955 118.539 -336.835 103.932C-316.297 76.9496 -287.296 56.3336 -257.263 47.3666C-227.591 38.581 -195.107 37.3028 -160.711 43.571C-129.78 49.203 -98.3856 60.6622 -67.4016 77.6278C-12.3058 107.881 36.6458 154.661 74.1555 212.912C76.2167 216.113 78.2713 219.395 80.258 222.66C95.2149 247.25 109.376 275.449 124.822 311.409C128.9 320.887 132.957 330.627 136.882 340.043C146.568 363.288 156.584 387.326 167.906 409.893C168.645 411.364 169.394 412.843 170.14 414.291C203.398 478.693 247.216 522.155 296.861 539.983C345.867 557.582 402.191 551.378 464.269 521.547C469.463 519.046 474.781 516.328 480.072 513.467C532.416 485.173 582.321 441.982 630.582 400.211C633.126 398.009 635.667 395.81 638.209 393.614C644.699 388.018 651.22 382.353 657.529 376.874C708.202 332.851 756.066 291.27 809.62 266.407C826.917 258.33 842.273 253.8 856.563 252.553C874.45 250.993 890.898 254.741 905.451 263.688C917.952 271.4 930.451 283.194 943.663 299.746C955.317 314.351 966.027 330.686 976.383 346.482C982.447 355.728 988.172 364.463 993.952 372.666C1048.55 450.165 1105.42 533.584 1167.8 627.688L1167.63 627.87Z" fill="#FFE492"/>
<path d="M1165.3 625.241C1108.37 537.552 1050.97 450.784 994.698 367.352C988.968 358.907 983.291 349.834 977.28 340.23C957.732 308.99 935.574 273.582 907.892 256.75C881.504 240.739 850.158 243.276 812.061 264.503C766.763 289.66 726.676 326.65 684.235 365.811C670.945 378.074 657.2 390.759 643.337 402.994C619.14 424.397 592.965 447.045 565.527 467.672C536.141 489.764 509.295 506.462 483.453 518.725C478.024 521.301 472.559 523.726 467.207 525.928C437.595 538.105 408.618 545.034 381.079 546.525C350.593 548.171 321.985 543.114 296.049 531.482C248.155 509.736 206.294 464.236 171.633 396.246C170.894 394.794 170.149 393.31 169.414 391.839C158.663 370.26 148.822 347.495 139.305 325.478C134.825 315.115 130.194 304.399 125.534 293.969C109.505 258.031 95.0679 230.089 80.1 206.035C78.0848 202.798 76.0082 199.552 73.9229 196.384C35.9724 138.725 -13.3081 92.6817 -68.5881 63.2214C-135.073 27.8613 -202.635 18.0794 -258.829 35.6757C-316.958 53.9809 -374.286 115.673 -371.385 198.165L-371.604 198.176C-372.299 178.417 -369.541 159.043 -363.407 140.589C-357.724 123.496 -349.238 107.415 -338.182 92.7961C-327.766 79.0233 -315.421 66.9807 -301.49 57.0006C-287.965 47.3136 -273.631 40.0462 -258.884 35.4022C-229.244 26.1226 -196.725 24.3476 -162.229 30.1331C-131.223 35.3324 -99.6905 46.3758 -68.5048 62.9619C-13.1919 92.4389 36.1172 138.51 74.0895 196.197C76.1749 199.368 78.2558 202.616 80.271 205.854C95.2455 229.922 109.689 257.875 125.725 293.824C130.385 304.256 135.016 314.973 139.496 325.338C149.012 347.353 158.851 370.115 169.598 391.685C170.331 393.159 171.078 394.641 171.815 396.092C206.45 464.03 248.273 509.493 296.122 531.217C345.409 553.32 404.546 551.4 467.139 525.66C472.487 523.458 477.951 521.036 483.376 518.463C541.154 491.048 594.017 446.274 643.21 402.762C657.073 390.527 670.815 377.845 684.106 365.582C726.556 326.413 766.651 289.415 811.971 264.247C850.128 242.986 881.535 240.449 907.984 256.496C920.382 264.034 932.692 275.851 945.619 292.616C957.017 307.399 967.404 324.002 977.451 340.055C983.462 349.658 989.137 358.728 994.864 367.168C1051.14 450.603 1108.54 537.371 1165.47 625.062L1165.3 625.241Z" fill="#FFE492"/>
<path d="M1162.98 622.612C1106.91 534.437 1050.61 446.704 995.613 361.848C990.063 353.311 984.557 344.079 978.727 334.305C959.658 302.336 938.044 266.1 910.433 249.553C883.729 233.57 852.326 237.75 814.431 262.329C774.726 288.044 738.247 324.353 702.969 359.471C685.28 377.078 666.988 395.286 648.349 412.134C618.931 438.753 594.179 459.059 570.451 476.042C541.193 496.981 513.816 512.577 486.759 523.718C481.205 526.006 475.591 528.133 470.076 530.039C441.342 539.966 413.125 544.99 386.132 544.992C384.633 544.992 383.141 544.976 381.65 544.945C350.443 544.298 321.393 536.813 295.307 522.702C282.716 515.853 270.386 507.16 258.662 496.861C247.641 487.183 236.811 475.782 226.472 462.978C207.87 439.942 190.482 412.156 173.317 378.038C172.58 376.57 171.845 375.099 171.115 373.623C161.155 353.493 151.733 332.45 142.622 312.099C137.362 300.352 131.923 288.203 126.446 276.378C109.581 239.947 95.2952 213.065 80.119 189.223C78.0775 186.016 75.9747 182.801 73.863 179.664C35.4521 122.577 -14.1859 77.2427 -69.6807 48.5556C-136.591 14.0076 -204.337 5.18571 -260.439 23.7114C-317.478 42.5999 -374.731 104.761 -373.8 187.021L-374.019 187.024C-374.453 148.708 -362.522 112.274 -339.518 81.6607C-329.119 67.8236 -316.84 55.6946 -303.017 45.6028C-289.566 35.7846 -275.26 28.3275 -260.494 23.4379C-230.89 13.6615 -198.336 11.3926 -163.738 16.6952C-132.657 21.4592 -100.985 32.0895 -69.5996 48.2932C-14.0696 76.9999 35.5968 122.362 74.0319 179.483C76.1435 182.623 78.2508 185.84 80.2922 189.047C95.475 212.903 109.768 239.793 126.637 276.239C132.114 288.067 137.555 300.215 142.813 311.962C151.924 332.31 161.344 353.35 171.301 373.475C172.032 374.951 172.764 376.422 173.501 377.887C209.975 450.388 249.847 497.674 295.393 522.445C358.477 556.572 425.175 545.266 470.019 529.771C475.53 527.865 481.139 525.741 486.691 523.453C548.92 497.827 605.704 450.38 648.222 411.908C666.859 395.065 685.149 376.858 702.836 359.253C738.122 324.13 774.607 287.81 814.332 262.084C831.289 251.085 846.636 244.331 861.249 241.44C879.269 237.873 895.849 240.519 910.525 249.304C922.89 256.714 935.082 268.625 947.798 285.717C959 300.776 969.118 317.736 978.902 334.141C984.731 343.912 990.234 353.141 995.782 361.673C1050.77 446.528 1107.08 534.262 1163.15 622.436L1162.98 622.612Z" fill="#FFE492"/>
<path d="M1160.65 619.982L996.531 356.347C991.171 347.738 985.847 338.369 980.212 328.453C961.615 295.727 940.536 258.637 912.977 242.363C886.326 226.629 853.969 232.618 816.804 260.166C781.075 286.649 748.488 321.866 716.973 355.926C696.431 378.127 675.19 401.082 653.365 421.285C587.768 482.008 530.44 517.874 472.952 534.158C449.103 540.912 425.577 544.311 402.761 544.311C395.845 544.311 388.999 543.999 382.226 543.374C350.281 540.426 320.788 530.519 294.569 513.93C270.269 498.552 248.038 476.845 226.615 447.564C209.507 424.182 193.107 396.307 175.006 359.839C165.452 340.593 156.2 320.596 147.254 301.259C127.006 257.498 106.069 212.247 80.1482 172.422C40.3887 111.338 -11.7994 63.4362 -70.7743 33.8922C-138.108 0.159161 -206.038 -7.70546 -262.048 11.7496C-316.276 30.585 -375.132 89.98 -376.215 175.882L-376.435 175.877C-375.95 137.48 -363.646 101.051 -340.855 70.5277C-320.247 42.929 -292.28 21.9585 -262.105 11.4789C-232.533 1.20852 -199.944 -1.55721 -165.248 3.26259C-134.093 7.58841 -102.28 17.8085 -70.6931 33.6327C-41.5116 48.2511 -13.7971 67.4941 11.683 90.8284C37.3758 114.358 60.468 141.747 80.3148 172.238C106.247 212.077 127.19 257.339 147.442 301.111C156.389 320.446 165.64 340.439 175.192 359.682C201.602 412.893 239.05 478.481 294.668 513.673C358.451 554.032 426.798 546.938 472.904 533.879C530.363 517.606 587.665 481.754 653.236 421.053C675.052 400.859 696.291 377.904 716.831 355.708C748.352 321.643 780.947 286.417 816.694 259.921C853.923 232.325 886.35 226.33 913.069 242.107C925.408 249.393 937.488 261.408 950 278.843C961.012 294.189 970.864 311.523 980.39 328.285C986.025 338.201 991.347 347.565 996.704 356.172L1160.83 619.807L1160.65 619.982Z" fill="#FFE492"/>
<path d="M1159.33 599.716C1117.54 526.311 1081.68 466.745 1046.49 412.265C1029.4 385.8 1011.95 359.75 994.626 334.839C989.385 327.303 984.193 319.288 978.695 310.801C964.881 289.471 950.595 267.414 934.156 251.046C925.33 242.241 916.833 235.936 908.18 231.772C881.619 218.865 850.455 227.399 815.557 257.141C797.495 272.511 781.049 290.001 767.344 305.083C752.835 321.049 738.522 338.656 724.679 355.683C704.784 380.159 684.212 405.467 662.095 427.202C648.638 440.467 634.997 452.32 621.549 462.434C594.643 482.667 565.764 499.34 535.715 511.988C517.148 519.716 498.492 525.557 480.268 529.347C464.561 532.601 448.826 534.479 433.496 534.929C410.553 535.604 388.2 533.028 367.057 527.265C344.576 521.136 323.302 511.354 303.826 498.187C286.459 486.446 270.055 471.663 253.677 452.989C223.158 418.221 198.816 378.019 181.019 346.878C172.277 331.509 163.74 315.836 155.484 300.679C131.712 257.027 109.258 215.798 81.1601 179.073C58.2433 149.317 32.0966 123.638 3.43921 102.746C-18.5829 86.69 -42.5346 73.559 -67.7494 63.7157C-73.7554 61.3741 -79.8754 59.1917 -85.9341 57.2353C-112.019 48.8265 -141.385 43.3508 -173.213 40.9591C-205.302 38.4919 -233.065 40.6269 -258.083 47.4924C-272.226 51.3438 -285.929 57.386 -298.816 65.4488C-344.312 93.9155 -373.526 141.703 -376.964 193.284L-377.238 193.253C-376.322 179.503 -373.631 165.959 -369.243 152.992C-365.075 140.676 -359.35 128.798 -352.227 117.688C-338.77 96.7008 -320.342 78.5267 -298.936 65.1334C-286.03 57.0567 -272.305 51.0061 -258.14 47.1492C-233.096 40.2781 -205.311 38.1403 -173.196 40.6102C-141.35 43.002 -111.969 48.4832 -85.8661 56.8976C-79.8009 58.8568 -73.6786 61.0392 -67.6682 63.3836C-42.4337 73.2325 -18.4623 86.3746 3.57736 102.444C32.2545 123.351 58.4232 149.052 81.3509 178.827C109.467 215.574 131.925 256.815 155.706 300.478C163.959 315.635 172.496 331.305 181.236 346.672C199.024 377.798 223.355 417.981 253.857 452.727C270.217 471.381 286.604 486.15 303.951 497.877C342.068 523.645 385.649 535.995 433.487 534.58C448.804 534.131 464.528 532.252 480.222 529.001C498.433 525.211 517.076 519.375 535.627 511.653C565.659 499.013 594.52 482.352 621.408 462.129C634.848 452.024 648.48 440.177 661.927 426.923C684.03 405.199 704.598 379.897 724.486 355.43C738.332 338.4 752.646 320.787 767.162 304.815C780.874 289.724 797.328 272.229 815.404 256.848C830.942 243.606 845.986 234.457 860.123 229.654C877.488 223.754 893.69 224.357 908.276 231.446C916.956 235.624 925.477 241.945 934.325 250.77C950.788 267.163 965.083 289.233 978.908 310.578C984.403 319.062 989.596 327.077 994.832 334.607C1012.16 359.521 1029.61 385.574 1046.7 412.045C1081.9 466.531 1117.76 526.101 1159.55 599.512L1159.33 599.716Z" fill="#FFE492"/>
<path d="M1158.01 579.443C1119.26 504.796 1082.89 442.331 1046.82 388.481C1029.24 362.178 1011.03 336.892 992.722 313.329C987.863 307.078 983.067 300.581 977.989 293.704C962.78 273.11 947.053 251.816 929.438 237.083C920.544 229.612 912.023 224.41 903.381 221.178C870.292 208.798 836.682 232.252 814.309 254.107C798.457 269.546 783.98 287.003 769.317 305.024C756.483 320.798 744.407 337.766 731.623 355.728C712.649 382.392 693.028 409.963 670.824 433.113C657.648 446.925 643.897 458.867 629.953 468.607C603.979 486.753 575.537 500.844 543 511.689C524.791 517.756 506.144 522.079 487.576 524.533C471.908 526.578 456.269 527.31 441.091 526.698C418.51 525.8 396.437 521.759 375.483 514.689C353.476 507.263 332.478 496.412 313.074 482.438C296.074 470.198 279.658 455.01 262.89 436.01C232.437 401.551 206.349 363.35 187.027 333.917C179.874 323.022 172.835 312.059 166.026 301.454C138.913 259.223 113.303 219.33 82.1701 185.723C58.9026 160.605 32.7799 139.367 4.53256 122.6C-16.8405 109.912 -39.4941 100.407 -64.7198 93.5384C-70.5417 91.9559 -76.4644 90.5298 -82.3213 89.2991C-108.047 83.9211 -135.503 81.8866 -168.721 79.7823C-192.666 78.1887 -224.012 77.1393 -254.126 83.2289C-268.387 86.0589 -282.173 90.9736 -295.104 97.8307C-340.631 121.98 -371.514 164.167 -377.719 210.684L-378.044 210.615C-376.399 198.279 -373.066 186.181 -368.144 174.652C-363.451 163.667 -357.285 153.134 -349.818 143.338C-335.629 124.729 -316.754 108.857 -295.231 97.4428C-282.276 90.5717 -268.464 85.6486 -254.178 82.8131C-224.036 76.7151 -192.666 77.7673 -168.706 79.3608C-135.476 81.4651 -108.012 83.4997 -82.2686 88.8804C-76.4073 90.114 -70.4803 91.5401 -64.6519 93.1225C-39.402 99.9992 -16.7264 109.513 4.67068 122.214C32.9466 138.999 59.0911 160.254 82.3828 185.397C113.538 219.029 139.158 258.933 166.281 301.181C173.087 311.783 180.126 322.746 187.279 333.638C206.597 363.059 232.674 401.247 263.11 435.689C279.858 454.669 296.256 469.84 313.236 482.067C351.391 509.543 394.413 524.415 441.102 526.274C456.267 526.883 471.891 526.154 487.543 524.108C506.094 521.658 524.726 517.341 542.917 511.276C575.427 500.442 603.846 486.362 629.797 468.233C643.723 458.504 657.457 446.578 670.618 432.781C692.802 409.65 712.415 382.09 731.382 355.44C744.17 337.47 756.248 320.499 769.091 304.717C783.761 286.685 798.244 269.223 814.111 253.767C828.614 239.598 842.92 229.405 856.631 223.467C873.257 216.266 889.019 215.359 903.478 220.768C912.151 224.014 920.702 229.232 929.623 236.726C947.268 251.487 963.008 272.8 978.23 293.411C983.306 300.285 988.104 306.779 992.959 313.028C1011.28 336.599 1029.48 361.893 1047.08 388.205C1083.15 442.068 1119.53 504.545 1158.28 579.208L1158.01 579.443Z" fill="#FFE492"/>
<path d="M1156.69 559.171C1120.42 482.269 1084.6 418.657 1047.17 364.701C1029.07 338.559 1010.12 314.042 990.826 291.824C986.703 287.073 982.458 282.033 978.353 277.16C961.401 257.027 943.872 236.21 924.733 223.124C915.749 216.939 907.2 212.837 898.597 210.585C865.578 201.936 833.862 227.829 813.07 251.071C798.977 266.762 786.095 284.545 773.635 301.745L771.302 304.966C759.99 320.569 749.379 337.683 738.143 355.804C720.252 384.658 701.754 414.493 679.561 439.024C666.647 453.403 652.787 465.434 638.363 474.784C613.214 491.085 585.225 502.717 550.288 511.391C532.221 515.876 513.583 518.678 494.887 519.716C479.259 520.551 463.717 520.132 448.687 518.466C403.187 513.445 360.674 496.025 322.326 466.69C305.749 454.008 289.323 438.421 272.112 419.031C242.985 386.286 217.079 352.628 193.044 320.96C189.821 316.715 186.633 312.498 183.469 308.315C150.64 264.92 119.634 223.93 83.1949 192.383C59.4054 171.786 33.3091 154.991 5.63406 142.46C-14.6842 133.261 -36.7041 127.015 -61.6799 123.365C-67.3087 122.547 -73.0341 121.874 -78.698 121.367C-92.9467 120.111 -108.059 119.907 -124.06 119.692C-136.912 119.519 -150.2 119.34 -164.223 118.612C-191.306 117.085 -222.001 115.358 -250.165 118.975C-264.696 120.842 -278.565 124.626 -291.389 130.225C-336.898 150.096 -369.452 186.686 -378.471 228.106L-378.841 227.974C-376.464 217.054 -372.491 206.401 -367.033 196.312C-361.814 186.664 -355.21 177.471 -347.403 168.99C-332.473 152.769 -313.146 139.206 -291.516 129.761C-278.664 124.149 -264.766 120.356 -250.206 118.486C-222.014 114.867 -191.304 116.597 -164.21 118.124C-150.196 118.849 -136.908 119.031 -124.06 119.204C-108.053 119.419 -92.9358 119.622 -78.6739 120.881C-73.0056 121.392 -67.2737 122.064 -61.6404 122.882C-36.634 126.535 -14.5878 132.79 5.75903 142.002C33.467 154.547 59.5918 171.362 83.4076 191.981C119.88 223.556 150.901 264.565 183.743 307.98C186.907 312.163 190.097 316.377 193.318 320.625C217.349 352.287 243.246 385.937 272.364 418.671C289.557 438.039 305.966 453.612 322.524 466.277C360.82 495.575 403.279 512.971 448.72 517.986C463.732 519.649 479.259 520.068 494.869 519.233C513.545 518.195 532.166 515.396 550.213 510.917C585.115 502.251 613.071 490.633 638.187 474.354C652.581 465.024 666.415 453.015 679.306 438.661C701.471 414.161 719.958 384.343 737.838 355.505C749.078 337.376 759.696 320.254 771.017 304.639L773.35 301.418C785.816 284.21 798.705 266.416 812.814 250.709C833.671 227.391 865.5 201.422 898.672 210.11C907.314 212.373 915.896 216.49 924.913 222.7C944.093 235.814 961.642 256.653 978.612 276.809C982.715 281.682 986.96 286.722 991.08 291.469C1010.38 313.698 1029.35 338.23 1047.45 364.386C1084.9 418.364 1120.73 481.998 1157.01 558.925L1156.69 559.171Z" fill="#FFE492"/>
<path d="M1155.36 538.894C1122.06 460.831 1085.78 394.222 1047.51 340.922C1028.91 314.945 1009.2 291.192 988.926 270.322C985.999 267.307 983.001 264.179 980.1 261.154C960.942 241.168 941.13 220.499 920.029 209.168C910.971 204.254 902.397 201.254 893.812 199.992C860.885 195.158 831.055 223.449 811.826 248.034C799.887 263.222 789.109 280.112 778.687 296.447C776.884 299.274 775.082 302.095 773.277 304.906C763.364 320.345 754.095 337.592 744.282 355.85C727.599 386.89 710.349 418.985 688.289 444.94C675.334 460.181 661.752 471.964 646.763 480.967C615.41 499.797 584.078 506.765 557.565 511.102C539.632 514.033 521.002 515.317 502.188 514.909C486.609 514.532 471.16 512.961 456.276 510.243C412.142 502.202 370.185 482.253 331.572 450.948C315.506 437.926 299.071 421.935 281.325 402.061C263.399 382.034 246.694 362.763 230.538 344.126C219.559 331.458 209.187 319.494 199.058 308.015C160.772 264.623 125.703 226.472 84.2181 199.049C59.9177 182.987 33.8477 170.629 6.73184 162.321C-12.7028 156.365 -33.4772 153.466 -58.6437 153.189C-64.073 153.139 -69.6032 153.22 -75.0786 153.432C-83.3958 153.776 -92.0003 154.493 -101.107 155.255C-118.583 156.714 -138.395 158.369 -159.735 157.443C-167.862 157.088 -176.153 156.589 -184.172 156.103C-204.797 154.856 -226.124 153.566 -246.216 154.719C-260.972 155.567 -274.926 158.224 -287.688 162.617C-333.121 178.26 -367.343 209.258 -379.237 245.536L-379.643 245.321C-376.529 235.821 -371.915 226.617 -365.931 217.962C-360.184 209.651 -353.141 201.801 -345.001 194.631C-329.316 180.816 -309.539 169.561 -287.807 162.078C-275.014 157.674 -261.029 155.009 -246.24 154.161C-226.126 153.005 -204.79 154.297 -184.154 155.545C-176.137 156.031 -167.846 156.53 -159.722 156.885C-138.402 157.811 -118.605 156.159 -101.138 154.699C-92.0266 153.937 -83.42 153.22 -75.094 152.877C-69.612 152.665 -64.0774 152.584 -58.6415 152.634C-33.4399 152.908 -12.6348 155.816 6.8327 161.78C33.9815 170.099 60.0865 182.471 84.4176 198.555C103.157 210.941 122.147 226.634 142.471 246.527C160.667 264.335 178.367 283.821 199.348 307.599C209.476 319.081 219.848 331.045 230.83 343.713C246.984 362.347 263.688 381.618 281.61 401.642C299.339 421.497 315.756 437.471 331.803 450.48C370.363 481.743 412.26 501.664 456.333 509.693C471.2 512.409 486.628 513.977 502.19 514.354C520.983 514.761 539.593 513.48 557.503 510.55C583.983 506.221 615.274 499.261 646.572 480.464C661.52 471.486 675.067 459.734 687.987 444.532C710.009 418.622 727.246 386.552 743.916 355.537C753.735 337.269 763.008 320.013 772.933 304.557C774.738 301.747 776.538 298.925 778.34 296.101C788.769 279.755 799.553 262.853 811.508 247.646C824.018 231.651 836.853 219.347 849.654 211.075C864.817 201.276 879.688 197.363 893.854 199.445C902.48 200.712 911.096 203.726 920.191 208.66C941.349 220.022 961.185 240.716 980.368 260.727C983.269 263.752 986.266 266.88 989.192 269.892C1009.48 290.779 1029.2 314.554 1047.82 340.551C1068.14 368.853 1088.04 401.098 1106.96 436.391C1123.69 467.585 1140.1 501.985 1155.73 538.631L1155.36 538.894Z" fill="#FFE492"/>
<path d="M1154.03 518.613C1123.22 438.312 1087.5 370.528 1047.86 317.141C1028.74 291.329 1008.28 268.343 987.035 248.819C986.024 247.889 985.014 246.96 984 246.028C961.908 225.699 939.064 204.678 915.338 195.215C906.146 191.547 897.544 189.647 889.042 189.401C856.247 188.458 828.28 219.113 810.595 244.992C800.188 260.133 790.95 276.727 782.017 292.774C779.809 296.743 777.524 300.846 775.27 304.842C766.681 320.063 758.697 337.37 750.246 355.694C734.872 389.025 718.977 423.49 697.031 450.851C684.335 466.681 670.643 478.553 655.173 487.149C624.696 504.081 593.749 508.527 564.848 510.81C547.028 512.216 528.404 511.976 509.496 510.098C493.967 508.507 478.617 505.786 463.871 502.013C421.239 491.129 379.839 468.651 340.827 435.203C325.204 421.81 309.227 405.885 290.551 385.088C255.057 345.669 228.7 317.906 205.092 295.069C158.138 249.647 122.302 222.925 85.2678 205.717C60.474 194.196 34.4304 186.278 7.85608 182.181C-10.5808 179.34 -30.147 179.594 -55.5833 183.013C-60.7955 183.722 -66.1283 184.556 -71.4348 185.497C-76.4475 186.398 -81.5392 187.431 -86.9312 188.522C-106.839 192.555 -129.405 197.126 -155.232 196.272C-168.845 195.823 -182.749 194.592 -196.195 193.403C-211.477 192.053 -227.278 190.654 -242.259 190.465C-257.279 190.275 -271.32 191.804 -283.979 195.014C-329.26 206.487 -365.155 231.898 -379.998 262.985L-380.419 262.658C-376.565 254.582 -371.311 246.826 -364.805 239.606C-358.525 232.634 -351.047 226.129 -342.579 220.265C-326.128 208.873 -305.898 199.926 -284.075 194.397C-271.381 191.182 -257.31 189.647 -242.255 189.837C-227.26 190.026 -211.45 191.425 -196.162 192.778C-182.721 193.967 -168.823 195.198 -155.221 195.647C-129.44 196.498 -106.899 191.933 -87.0124 187.905C-81.6181 186.811 -76.5221 185.782 -71.5072 184.877C-66.1941 183.937 -60.8569 183.102 -55.6403 182.391C-30.1646 178.969 -10.5655 178.712 7.91089 181.562C34.5225 185.664 60.6034 193.593 85.4322 205.131C122.517 222.361 158.39 249.112 205.386 294.572C229.002 317.418 255.368 345.189 290.872 384.619C309.534 405.399 325.493 421.307 341.099 434.687C380.059 468.088 421.397 490.534 463.965 501.402C478.692 505.17 494.024 507.885 509.531 509.476C528.418 511.351 547.017 511.591 564.815 510.188C593.672 507.907 624.567 503.473 654.974 486.58C670.387 478.017 684.03 466.184 696.683 450.41C718.58 423.107 734.46 388.679 749.816 355.384C758.274 337.049 766.262 319.729 774.864 304.485C777.118 300.491 779.403 296.389 781.611 292.42C790.551 276.359 799.796 259.753 810.22 244.588C821.761 227.697 833.861 214.338 846.182 204.877C860.615 193.794 875.041 188.383 889.051 188.782C897.6 189.027 906.247 190.939 915.483 194.623C939.287 204.12 962.165 225.169 984.288 245.528C985.301 246.46 986.314 247.392 987.323 248.319C1008.59 267.866 1029.08 290.879 1048.21 316.72C1087.89 370.154 1123.64 437.991 1154.47 518.348L1154.03 518.613Z" fill="#FFE492"/>
<path d="M575.761 510.52C574.531 510.52 573.319 510.518 572.126 510.509C554.397 510.414 535.78 508.656 516.797 505.279C501.325 502.474 486.072 498.603 471.462 493.778C450.586 486.896 429.637 477.005 409.189 464.382C389.443 452.192 369.557 437.076 350.08 419.452C330.997 402.185 313.172 382.945 299.774 368.111C268.426 333.499 238.599 304.569 211.124 282.122C166.624 245.769 126.967 223.607 86.3197 212.379C61.7979 205.606 35.4889 202.033 10.1579 202.033C9.76541 202.033 9.37509 202.033 8.9826 202.036C-12.7786 202.131 -33.4389 207.277 -52.5205 212.826C-57.4871 214.28 -62.6248 215.868 -67.791 217.551C-70.6219 218.483 -73.4572 219.443 -76.4569 220.459C-97.615 227.634 -121.597 235.764 -150.733 235.097C-168.477 234.689 -186.6 232.35 -204.127 230.087C-215.444 228.625 -227.145 227.115 -238.306 226.202C-253.649 224.949 -267.768 225.351 -280.276 227.402C-325.315 234.781 -362.884 254.607 -380.775 280.44L-381.188 279.979C-372.011 266.731 -358.207 255.261 -340.161 245.883C-322.925 236.93 -302.241 230.299 -280.346 226.713C-267.805 224.659 -253.649 224.251 -238.271 225.51C-227.099 226.423 -215.391 227.935 -204.07 229.398C-186.554 231.661 -168.442 234 -150.722 234.404C-121.661 235.071 -97.7203 226.953 -76.5972 219.792C-73.5953 218.773 -70.76 217.813 -67.927 216.881C-62.7564 215.198 -57.6143 213.607 -52.6433 212.153C-33.5288 206.596 -12.8334 201.442 8.98041 201.344C34.7149 201.23 61.4953 204.813 86.4359 211.704C107.414 217.5 127.752 226.032 148.608 237.787C168.694 249.109 189.24 263.421 211.418 281.542C238.915 304.006 268.763 332.958 300.131 367.592C313.518 382.417 331.33 401.644 350.394 418.891C389.914 454.653 430.694 479.623 471.598 493.111C486.188 497.931 501.422 501.796 516.872 504.598C535.831 507.97 554.421 509.728 572.126 509.82C599.829 509.965 631.997 508.776 663.372 492.687C679.252 484.543 692.99 472.635 705.372 456.283C727.118 427.565 741.533 390.706 755.477 355.059C762.65 336.723 769.423 319.403 776.789 304.41C779.148 299.607 781.53 294.659 783.832 289.873C791.612 273.702 799.655 256.985 808.922 241.532C819.513 223.755 830.878 209.334 842.699 198.673C856.406 186.312 870.379 179.397 884.231 178.119C892.78 177.329 901.457 178.135 910.759 180.586C935.627 187.133 960.276 206.155 985.441 226.744C1007.38 244.694 1029.22 267.565 1048.59 292.887C1070.11 320.932 1090.33 353.833 1108.69 390.676C1125.04 423.499 1140.02 459.629 1153.21 498.065L1152.71 498.344C1124.38 415.802 1089.22 346.84 1048.2 293.375C1028.86 268.09 1007.05 245.253 985.145 227.332C960.024 206.781 935.423 187.794 910.647 181.269C901.396 178.833 892.767 178.032 884.27 178.816C858.819 181.169 832.214 203.591 809.358 241.957C800.109 257.382 792.073 274.085 784.299 290.238C781.997 295.027 779.613 299.978 777.254 304.781C769.901 319.746 763.132 337.052 755.968 355.371C749.127 372.862 742.053 390.949 733.935 408.336C724.732 428.048 715.52 443.889 705.769 456.769C693.332 473.193 679.532 485.154 663.578 493.337C649.507 500.554 634.383 505.324 617.343 507.925C602.912 510.116 588.418 510.52 575.761 510.52Z" fill="#FFE492"/>
<path d="M610.924 511.918C599.743 511.918 589.002 511.069 579.394 510.21C561.726 508.63 543.118 505.351 524.09 500.461C508.683 496.445 493.526 491.427 479.041 485.541C439.376 469.458 400.215 442.685 359.322 403.7C341.488 386.701 324.676 368.409 308.989 351.134C278.018 317.127 247.122 289.554 217.153 269.175C173.078 239.204 131.841 223.271 87.3755 219.034C62.0402 216.62 35.3233 217.606 10.1107 221.881C-10.9926 225.459 -30.8877 234.094 -49.4605 242.628C-54.107 244.775 -59.0495 247.119 -64.1477 249.594C-65.4217 250.217 -66.7067 250.85 -68.0092 251.489C-89.3998 262.016 -113.604 273.928 -144.667 273.928C-145.191 273.928 -145.713 273.925 -146.241 273.917C-167.257 273.646 -188.713 269.828 -209.465 266.133C-217.693 264.668 -226.201 263.155 -234.364 261.93C-250.31 259.541 -264.12 258.835 -276.586 259.778C-321.927 263.211 -360.197 277.098 -381.581 297.887L-381.947 297.276C-371.376 287 -356.09 278.078 -337.747 271.475C-319.705 264.98 -298.569 260.671 -276.624 259.011C-264.123 258.065 -250.277 258.771 -234.296 261.165C-226.124 262.39 -217.614 263.906 -209.384 265.368C-188.652 269.058 -167.215 272.873 -146.239 273.144C-114.529 273.557 -89.9304 261.447 -68.2307 250.766C-66.9304 250.127 -65.6432 249.494 -64.3692 248.869C-59.2666 246.39 -54.3219 244.046 -49.671 241.9C-31.0674 233.349 -11.1351 224.703 10.0252 221.114C35.2773 216.833 62.038 215.845 87.415 218.261C109.45 220.36 130.459 225.317 151.642 233.41C173.458 241.746 194.977 253.22 217.431 268.491C247.437 288.898 278.373 316.505 309.377 350.545C325.057 367.815 341.859 386.095 359.677 403.077C400.515 442.01 439.617 468.743 479.219 484.802C493.682 490.677 508.819 495.689 524.203 499.699C543.206 504.583 561.788 507.86 579.429 509.434C609.115 512.085 640.695 513.447 671.762 498.776C688.109 491.053 701.944 479.069 714.052 462.137C735.625 431.977 749.051 390.837 760.899 354.539C766.859 336.275 772.49 319.025 778.702 304.32C780.943 299.015 783.199 293.531 785.381 288.228C792.205 271.636 799.261 254.481 807.614 238.459C817.277 219.794 827.908 204.313 839.209 192.446C852.191 178.818 865.714 170.401 879.399 167.434C887.953 165.578 896.662 165.283 906.021 166.522C932.17 169.991 958.736 187.132 983.549 205.142C1006.46 221.77 1029.08 243.862 1048.96 269.03C1071.08 296.944 1091.46 330.175 1109.54 367.793C1125.7 401.433 1139.96 438.429 1151.94 477.758L1151.38 478.034C1125.92 394.437 1090.36 322.352 1048.54 269.571C1028.7 244.451 1006.12 222.4 983.253 205.806C958.499 187.838 932.001 170.739 905.962 167.284C896.658 166.05 888.003 166.346 879.504 168.188C854.234 173.666 828.884 198.77 808.12 238.877C799.783 254.866 792.736 272.005 785.918 288.58C783.736 293.885 781.48 299.369 779.237 304.68C773.038 319.352 767.413 336.585 761.458 354.829C749.591 391.183 736.142 432.39 714.499 462.651C702.323 479.675 688.412 491.726 671.973 499.493C657.707 506.23 642.318 510.132 624.922 511.413C620.219 511.775 615.535 511.918 610.924 511.918Z" fill="#FFE492"/>
<path d="M632.998 514.94C632.838 514.94 632.681 514.94 632.52 514.94C616.719 514.89 601.205 512.429 586.667 509.911C569.026 506.858 550.429 502.055 531.389 495.642C516.053 490.42 500.993 484.25 486.63 477.306C448.551 458.923 411.039 430.531 368.576 387.951C353.283 372.621 338.234 356.113 323.678 340.152C321.858 338.154 320.036 336.158 318.214 334.163C287.083 300.165 255.115 273.945 223.199 256.234C179.494 231.984 135.417 221.993 88.4478 225.691C62.6937 227.72 36.0009 233.265 11.2554 241.727C-8.2691 248.406 -25.6666 259.12 -46.384 272.432C-50.5832 275.142 -55.0674 278.067 -60.4923 281.639L-60.795 281.84C-71.2611 288.778 -83.124 296.64 -96.4298 302.618C-111.711 309.483 -126.537 312.788 -141.739 312.749C-165.445 312.673 -189.638 307.058 -213.033 301.624C-218.765 300.293 -224.694 298.917 -230.417 297.673C-246.83 294.109 -260.724 292.309 -272.892 292.172C-317.694 291.669 -357.607 300.12 -382.395 315.353L-382.68 314.599C-370.538 307.136 -354.16 301.08 -335.318 297.084C-316.44 293.079 -294.85 291.092 -272.885 291.337C-260.682 291.474 -246.754 293.277 -230.306 296.849C-224.578 298.094 -218.649 299.47 -212.915 300.801C-189.548 306.227 -165.386 311.836 -141.737 311.911C-141.632 311.911 -141.524 311.911 -141.419 311.911C-107.591 311.911 -81.8193 294.831 -61.0975 281.098L-60.7928 280.897C-55.3656 277.322 -50.8814 274.397 -46.68 271.687C-25.9276 258.352 -8.49933 247.619 11.0866 240.921C35.8737 232.442 62.6103 226.888 88.4084 224.856C111.393 223.048 133.073 224.427 154.692 229.076C177.988 234.086 200.484 242.718 223.462 255.469C255.439 273.214 287.462 299.475 318.644 333.529C320.466 335.525 322.288 337.523 324.108 339.521C338.657 355.477 353.702 371.979 368.981 387.298C411.39 429.825 448.847 458.177 486.863 476.53C501.206 483.465 516.244 489.625 531.558 494.841C550.572 501.246 569.142 506.04 586.755 509.088C618.302 514.553 649.188 518.343 680.172 504.902C696.986 497.607 710.915 485.547 722.749 468.032C744.129 436.392 755.807 392.55 766.113 353.866C770.938 335.757 775.494 318.649 780.634 304.273C782.612 298.741 784.596 293.02 786.515 287.486C792.514 270.183 798.718 252.293 806.324 235.425C815.08 215.864 824.976 199.32 835.734 186.253C847.998 171.361 861.067 161.448 874.579 156.793C882.958 153.907 891.507 152.501 900.695 152.501C900.895 152.501 901.094 152.501 901.296 152.504C929.859 152.693 959.253 169.21 981.672 183.577C1005.55 198.885 1028.96 220.196 1049.35 245.207C1072.07 272.993 1092.61 306.55 1110.4 344.95C1126.36 379.408 1139.92 417.272 1150.68 457.494L1150.06 457.764C1134.04 397.917 1103.48 312.567 1048.9 245.813C1028.55 220.857 1005.2 199.596 981.376 184.325C959.023 169.997 929.719 153.528 901.294 153.341C891.933 153.271 883.256 154.672 874.752 157.602C849.717 166.229 825.619 194.015 806.895 235.841C799.305 252.67 793.109 270.54 787.116 287.824C785.197 293.361 783.21 299.085 781.233 304.619C776.106 318.958 771.554 336.044 766.736 354.134C756.412 392.888 744.712 436.813 723.249 468.576C711.335 486.209 697.313 498.349 680.384 505.692C666.037 511.912 650.53 514.94 632.998 514.94Z" fill="#FFE492"/>
<path d="M650.544 518.87C647.141 518.87 643.663 518.73 640.102 518.451C624.516 517.231 609.368 513.573 593.931 509.61C576.036 505.016 557.963 498.87 538.68 490.822C523.422 484.397 508.461 477.079 494.21 469.067C458.058 448.772 422.162 418.896 377.822 372.199C366.81 360.603 355.802 348.441 345.156 336.677C339.36 330.275 333.37 323.652 327.434 317.186C295.932 282.959 262.896 258.098 229.241 243.29C184.774 223.723 139.072 220.139 89.5196 232.335C63.34 238.78 36.6714 248.885 12.3995 261.559C-7.09869 271.74 -24.084 286.037 -42.067 301.175L-43.3103 302.221C-46.1192 304.593 -48.9588 306.999 -51.8336 309.433C-53.4891 310.837 -55.1557 312.249 -56.8375 313.672C-67.3234 322.594 -78.6491 331.902 -91.6369 339.066C-106.717 347.383 -121.632 351.474 -137.24 351.575C-163.225 351.737 -189.729 344.051 -215.358 336.61C-219.015 335.547 -222.8 334.45 -226.473 333.409C-243.693 328.525 -257.269 325.715 -269.202 324.559C-313.237 320.298 -354.795 323.301 -383.222 332.801L-383.404 331.924C-354.902 322.399 -313.259 319.385 -269.147 323.655C-257.181 324.813 -243.57 327.632 -226.317 332.524C-222.642 333.568 -218.858 334.665 -215.198 335.728C-189.882 343.077 -163.714 350.67 -138.073 350.67C-137.797 350.67 -137.521 350.67 -137.242 350.668C-104.079 350.456 -80.4713 332.689 -57.23 312.919C-55.5482 311.495 -53.8817 310.083 -52.2261 308.679C-49.3513 306.243 -46.5139 303.84 -43.7028 301.465L-42.4594 300.418C-24.4458 285.256 -7.43201 270.933 12.1298 260.718C36.4455 248.02 63.1602 237.898 89.3858 231.442C139.063 219.216 184.888 222.81 229.476 242.43C263.214 257.277 296.327 282.194 327.899 316.496C333.835 322.966 339.828 329.586 345.623 335.991C356.265 347.751 367.27 359.911 378.276 371.499C422.563 418.142 458.409 447.976 494.497 468.238C508.729 476.237 523.668 483.546 538.903 489.959C558.158 497.997 576.205 504.134 594.074 508.719C621.198 515.682 654.956 524.351 688.574 510.999C705.857 504.137 719.878 492.002 731.436 473.901C752.61 440.745 762.427 394.113 771.09 352.973C774.853 335.1 778.408 318.218 782.556 304.208C784.172 298.749 785.793 293.104 787.359 287.642C792.612 269.325 798.046 250.387 805.024 232.375C812.893 211.904 822.053 194.296 832.247 180.04C843.799 163.887 856.416 152.481 869.748 146.137C878.304 142.065 887.073 139.556 896.557 138.465C909.257 137.003 922.776 138.566 937.884 143.232C950.668 147.184 964.373 153.318 979.784 161.989C1004.64 175.974 1028.82 196.506 1049.73 221.365C1073.06 249.019 1093.76 282.909 1111.26 322.087C1127.02 357.366 1139.85 396.097 1149.42 437.209L1148.73 437.466C1128.54 350.67 1093.21 274.159 1049.24 222.029C1028.39 197.238 1004.27 176.764 979.494 162.821C946.291 144.139 919.96 136.685 896.62 139.369C887.2 140.452 878.493 142.944 869.996 146.986C838.277 162.076 817.503 201.968 805.662 232.774C798.702 250.741 793.275 269.658 788.027 287.952C786.459 293.416 784.839 299.065 783.223 304.527C779.087 318.495 775.537 335.357 771.779 353.207C763.098 394.437 753.259 441.167 731.989 474.473C720.338 492.717 706.206 504.949 688.784 511.867C676.976 516.556 664.383 518.87 650.544 518.87Z" fill="#FFE492"/>
<path d="M665.748 523.374C642.56 523.374 620.266 515.792 601.193 509.306C583.249 503.205 565.185 495.58 545.968 485.999C530.796 478.38 515.931 469.913 501.787 460.829C459.39 433.629 421.593 394.588 387.066 356.448C380.016 348.662 372.894 340.635 366.008 332.874C356.448 322.095 346.561 310.952 336.654 300.212C304.681 265.648 270.576 242.14 235.29 230.343C189.643 215.086 142.312 217.907 90.593 238.973C63.9639 249.818 37.3217 264.484 13.5453 281.385C-4.79288 294.419 -20.309 310.873 -36.7351 328.294C-37.8994 329.527 -39.066 330.767 -40.2391 332.006L-40.8751 332.681C-44.8681 336.92 -48.9971 341.302 -53.1831 345.7C-63.2129 356.286 -74.2579 367.235 -87.0331 375.599C-101.863 385.308 -116.813 390.15 -132.744 390.402C-160.706 390.845 -189.206 380.84 -216.765 371.164C-218.696 370.486 -220.619 369.811 -222.534 369.144C-240.707 362.797 -253.965 359.035 -265.517 356.942C-308.447 349.167 -351.653 346.722 -384.058 350.236L-384.124 349.262C-351.666 345.74 -308.396 348.187 -265.409 355.974C-253.825 358.072 -240.539 361.843 -222.332 368.2C-220.418 368.867 -218.495 369.543 -216.561 370.224C-189.054 379.88 -160.61 389.86 -132.755 389.425C-98.1592 388.878 -73.7953 366.18 -53.6743 344.947C-49.4883 340.549 -45.3593 336.167 -41.3663 331.93L-40.7303 331.255C-39.5572 330.013 -38.3906 328.777 -37.2263 327.543C-20.7716 310.092 -5.22922 293.609 13.1704 280.531C36.9905 263.599 63.6832 248.908 90.3584 238.043C114.878 228.058 137.909 222.292 160.764 220.416C186.26 218.326 211.398 221.348 235.483 229.4C270.881 241.233 305.086 264.808 337.149 299.467C347.063 310.212 356.952 321.359 366.515 332.14C373.4 339.901 380.518 347.925 387.566 355.708C422.058 393.806 459.809 432.806 502.13 459.955C516.253 469.025 531.096 477.482 546.246 485.09C565.435 494.657 583.471 502.27 601.388 508.362C628.898 517.717 663.137 529.361 696.967 517.109C714.72 510.679 728.832 498.469 740.114 479.781C761.068 445.066 768.91 395.565 775.828 351.888C778.608 334.339 781.233 317.764 784.47 304.153C785.667 299.118 786.869 293.916 788.031 288.884C792.579 269.203 797.282 248.849 803.714 229.333C810.711 207.936 819.133 189.259 828.746 173.829C839.592 156.416 851.757 143.517 864.905 135.488C873.444 130.274 882.241 126.66 891.806 124.436C904.691 121.441 918.988 121.542 934.3 124.735C947.709 127.531 962.372 132.803 977.882 140.408C1003.7 153.07 1028.68 172.821 1050.1 197.526C1074.03 225.052 1094.89 259.268 1112.1 299.227C1127.66 335.327 1139.78 374.929 1148.14 416.931L1147.4 417.171C1129.68 328.171 1094.95 250.424 1049.58 198.251C1028.23 173.628 1003.34 153.941 977.608 141.321C944.249 124.964 916.227 119.753 891.944 125.399C882.45 127.606 873.714 131.195 865.236 136.37C833.954 155.473 814.899 197.671 804.422 229.71C798.006 249.176 793.309 269.502 788.768 289.158C787.605 294.19 786.401 299.395 785.204 304.435C781.979 318.001 779.356 334.554 776.58 352.08C773.251 373.093 769.48 396.907 764.005 419.234C757.731 444.815 750.115 464.814 740.724 480.376C735.292 489.374 729.052 497.032 722.173 503.138C714.774 509.705 706.365 514.723 697.177 518.049C686.665 521.859 676.116 523.374 665.748 523.374Z" fill="#FFE492"/>
<path d="M679.458 528.317C671.792 528.317 663.76 527.368 655.276 525.473C638.567 521.742 622.573 514.971 608.46 509.002C590.672 501.475 572.1 492.111 553.261 481.174C538.186 472.372 523.418 462.755 509.371 452.585C469.052 423.429 434.316 384.661 396.316 340.694C392.939 336.787 389.509 332.801 386.194 328.944C373.136 313.765 359.635 298.069 345.879 283.238C313.376 248.269 278.206 226.118 241.345 217.399C194.849 206.401 144.49 215.89 91.6726 245.607C64.5699 260.856 37.9517 280.079 14.6972 301.203C-2.8121 317.108 -17.2252 335.86 -32.4848 355.714C-34.0351 357.732 -35.592 359.755 -37.1576 361.787C-41.0542 366.85 -45.2512 372.283 -49.5205 377.723C-58.4736 389.168 -69.3849 402.21 -82.421 412.126C-97.0139 423.228 -112.002 428.823 -128.237 429.228C-157.958 429.973 -188.212 417.448 -217.47 405.335L-218.584 404.875C-232.909 398.947 -248.064 392.958 -261.821 389.322C-303.756 378.239 -347.46 370.545 -384.88 367.656L-384.829 366.612C-347.37 369.504 -303.626 377.204 -261.654 388.297C-247.857 391.945 -232.677 397.943 -218.329 403.879L-217.216 404.339C-188.021 416.424 -157.828 428.918 -128.252 428.179C-94.0953 427.325 -70.5054 403.067 -50.1016 376.978C-45.8322 371.541 -41.6396 366.107 -37.7431 361.047C-36.1774 359.018 -34.6206 356.992 -33.0703 354.977C-17.7844 335.09 -3.34494 316.304 14.2214 300.346C37.5197 279.181 64.1883 259.921 91.3415 244.644C116.122 230.703 140.508 221.097 163.817 216.096C190.451 210.383 216.586 210.473 241.499 216.364C278.5 225.116 313.799 247.345 346.412 282.435C360.178 297.279 373.686 312.981 386.751 328.168C390.066 332.023 393.496 336.008 396.872 339.915C434.836 383.84 469.535 422.566 509.781 451.672C523.808 461.825 538.555 471.428 553.608 480.22C572.42 491.14 590.962 500.49 608.724 508.005C636.565 519.788 671.216 534.449 705.383 523.215C723.608 517.224 737.812 504.941 748.811 485.662C769.535 449.339 775.533 394.591 780.352 350.598C782.229 333.463 784.001 317.279 786.404 304.106C787.161 299.953 787.926 295.674 788.665 291.536C792.503 270.035 796.474 247.8 802.427 226.299C811.621 192.84 829.087 148.08 860.082 124.852C868.64 118.439 877.471 113.716 887.075 110.418C912.204 101.663 942.125 104.495 976.001 118.832C1002.79 130.171 1028.55 149.141 1050.49 173.692C1075.02 201.087 1096.05 235.632 1112.97 276.376C1120.74 295.063 1127.6 315.023 1133.37 335.701C1138.88 355.452 1143.43 375.962 1146.89 396.662L1146.08 396.879C1130.85 305.669 1096.71 226.685 1049.94 174.476C1028.09 150.017 1002.43 131.12 975.74 119.823C942.022 105.55 912.261 102.726 887.29 111.425C877.756 114.699 868.993 119.385 860.499 125.751C829.716 148.817 812.352 193.348 803.203 226.643C797.263 248.088 793.301 270.292 789.466 291.764C788.727 295.903 787.964 300.185 787.205 304.34C784.81 317.468 783.039 333.63 781.166 350.741C778.741 372.878 775.993 397.968 771.296 421.648C765.9 448.859 758.762 470 749.476 486.276C744.178 495.561 737.981 503.392 731.061 509.549C723.605 516.183 715.034 521.122 705.587 524.226C697.297 526.955 688.637 528.317 679.458 528.317Z" fill="#FFE492"/>
<path d="M692.085 533.536C682.897 533.536 673.207 532.021 662.857 528.981C646.087 524.061 629.952 515.895 615.717 508.689C597.795 499.619 579.233 488.737 560.547 476.343C545.57 466.366 530.9 455.599 516.945 444.338C478.545 413.373 445.61 373.464 410.74 331.216C409.015 329.126 407.289 327.032 405.559 324.939C389.343 305.314 372.577 285.019 355.099 266.264C322.029 230.851 285.794 210.054 247.398 204.45C199.17 197.408 147.137 213.487 92.7433 252.232C65.5353 271.612 38.2243 296.04 15.8404 321.015C-1.06155 339.873 -14.6173 361.092 -28.9691 383.558C-30.6685 386.218 -32.3723 388.886 -34.0892 391.56C-37.5187 396.91 -41.5995 403.253 -45.871 409.742C-53.7826 421.79 -64.5623 437.101 -77.8198 448.619C-92.1803 461.097 -107.201 467.457 -123.741 468.057C-137.336 468.49 -152.339 465.819 -169.61 459.888C-184.437 454.798 -198.78 448.144 -214.651 440.609C-229.139 433.646 -244.429 426.454 -258.147 421.704C-298.782 407.632 -341.703 395.311 -385.717 385.074L-385.559 383.977C-341.519 394.217 -298.574 406.549 -257.917 420.627C-244.162 425.391 -228.85 432.594 -214.344 439.562C-187.742 452.197 -154.633 467.926 -123.765 466.941C-88.4745 465.657 -65.7946 438.346 -46.5442 409.022C-42.2748 402.539 -38.1963 396.198 -34.769 390.851C-33.052 388.177 -31.3482 385.509 -29.651 382.852C-15.2752 360.35 -1.69528 339.095 15.2615 320.175C37.6914 295.15 65.0551 270.674 92.3158 251.258C146.874 212.395 199.087 196.275 247.499 203.342C266.061 206.052 284.294 212.345 301.687 222.046C320.35 232.453 338.51 247.047 355.664 265.413C373.163 284.187 389.94 304.494 406.164 324.133C407.894 326.229 409.622 328.319 411.348 330.409C446.184 372.621 479.091 412.491 517.417 443.397C531.352 454.641 546 465.395 560.954 475.355C579.615 487.73 598.148 498.597 616.044 507.654C644.168 521.887 679.172 539.601 713.782 529.328C732.531 523.763 746.83 511.405 757.491 491.55C778.031 453.628 781.688 395.699 784.629 349.153C785.682 332.505 786.675 316.782 788.322 304.067C788.661 301.443 789.001 298.806 789.341 296.154C792.416 272.206 795.595 247.44 801.123 223.271C809.013 188.508 824.805 141.371 855.241 114.221C863.731 106.647 872.59 100.82 882.326 96.4047C895.858 90.2118 910.938 87.3009 927.144 87.7474C941.941 88.1549 957.74 91.356 974.1 97.2587C1001.86 107.269 1028.4 125.457 1050.85 149.855C1076 177.116 1097.18 211.996 1113.82 253.521C1121.46 272.575 1128.07 292.945 1133.47 314.066C1138.65 334.294 1142.73 355.265 1145.62 376.394L1144.75 376.584C1132.2 284.511 1097.76 202.181 1050.28 150.704C1027.92 126.412 1001.5 108.299 973.859 98.3276C939.781 86.0311 908.232 85.7297 882.618 97.4512C872.956 101.833 864.165 107.616 855.741 115.131C825.516 142.094 809.813 188.988 801.963 223.578C796.45 247.683 793.275 272.413 790.205 296.33C789.865 298.982 789.525 301.622 789.186 304.245C787.543 316.913 786.552 332.617 785.502 349.239C782.552 395.919 778.884 454.016 758.213 492.181C753.073 501.751 746.926 509.761 739.947 515.982C732.436 522.674 723.7 527.53 713.982 530.416C706.965 532.492 699.698 533.536 692.085 533.536Z" fill="#FFE492"/>
<path d="M703.953 538.971C693.485 538.971 682.394 536.816 670.441 532.49C653.53 526.37 637.295 516.811 622.974 508.38C604.874 497.725 586.321 485.319 567.83 471.516C552.96 460.38 538.389 448.46 524.518 436.094C490.361 405.651 461.168 368.357 430.261 328.872C425.209 322.417 419.984 315.744 414.8 309.183C396.578 286.13 381.018 267.122 364.315 249.291C330.656 213.409 293.357 193.965 253.451 191.498C203.306 188.397 149.594 211.059 93.8098 258.853C66.0975 282.597 38.8105 311.706 16.977 340.82C0.528931 362.753 -12.3295 386.629 -25.9423 411.906C-27.6285 415.037 -29.3214 418.18 -31.0252 421.325C-34.06 426.937 -38.0771 434.333 -42.2237 441.748C-59.6738 473.028 -82.4722 505.232 -119.247 506.879C-120.394 506.926 -121.545 506.948 -122.694 506.948C-151.411 506.948 -180.728 492.483 -210.721 476.333L-212.594 475.317C-227.45 467.246 -241.484 459.624 -254.474 454.076C-303.428 433.167 -350.772 415.517 -386.549 402.478L-386.293 401.337C-350.507 414.381 -303.149 432.033 -254.178 452.951C-241.153 458.513 -227.104 466.146 -212.228 474.226L-210.357 475.241C-179.266 491.984 -148.902 506.918 -119.28 505.695C-82.9129 504.065 -60.3053 472.11 -42.9846 441.065C-38.8402 433.655 -34.8275 426.265 -31.7926 420.655C-30.0888 417.507 -28.3982 414.367 -26.7119 411.236C-13.0772 385.92 -0.199066 362.005 16.3016 340.002C38.179 310.827 65.5208 281.659 93.2879 257.867C119.06 235.786 144.84 218.832 169.912 207.47C198.68 194.434 226.802 188.663 253.495 190.312C293.607 192.79 331.095 212.329 364.912 248.379C381.638 266.237 397.214 285.265 415.453 308.337C420.639 314.898 425.865 321.574 430.919 328.029C461.796 367.475 490.96 404.733 525.051 435.115C538.902 447.467 553.451 459.367 568.299 470.486C586.764 484.273 605.289 496.658 623.362 507.297C651.732 524 687.04 544.787 722.182 535.429C741.39 530.313 755.779 517.883 766.169 497.429C786.45 457.779 787.669 396.59 788.649 347.423C788.969 331.381 789.272 316.227 790.239 304.017L790.261 303.738C792.429 276.396 794.673 248.125 799.815 220.23C804.268 195.899 810.472 174.025 818.249 155.209C827.021 133.995 837.835 116.625 850.396 103.578C858.798 94.8481 867.688 87.9128 877.571 82.3786C904.272 67.3387 936.993 65.0167 972.196 75.6694C986.363 79.9561 1000.34 86.4504 1013.74 94.9681C1027.21 103.536 1039.82 113.982 1051.22 126.011C1076.98 153.141 1098.33 188.35 1114.68 230.662C1129.37 268.693 1139.63 312.077 1144.35 356.119L1143.42 356.278C1133.33 262.015 1099.51 178.417 1050.63 126.923C1027.77 102.805 1000.57 85.4792 971.983 76.8303C936.98 66.2391 904.465 68.5359 877.95 83.4726C868.144 88.965 859.327 95.8444 850.988 104.504C827.538 128.866 810.158 168.979 800.725 220.506C795.596 248.328 793.357 276.561 791.191 303.863L791.168 304.143C790.204 316.308 789.901 331.44 789.581 347.459C788.596 396.777 787.373 458.15 766.949 498.079C761.941 507.942 755.839 516.125 748.817 522.398C741.246 529.163 732.349 533.939 722.372 536.598C716.43 538.178 710.305 538.971 703.953 538.971Z" fill="#FFE492"/>
<path d="M-118.564 545.804C-131.405 545.804 -145.388 542.62 -161.17 536.117C-176.85 529.656 -192.357 520.736 -206.782 512.062C-209.393 510.483 -211.985 508.906 -214.559 507.34C-227.374 499.546 -239.478 492.183 -250.791 486.448C-295.898 463.588 -338.894 443.042 -380.476 423.177L-387.366 419.883L-387.019 418.708L-380.13 422.002C-338.546 441.872 -295.543 462.419 -250.427 485.284C-239.083 491.033 -226.964 498.404 -214.134 506.21C-211.562 507.776 -208.97 509.353 -206.361 510.929C-176.751 528.735 -145.294 545.991 -114.783 544.453C-77.2782 542.466 -54.8022 505.281 -39.4132 473.111C-35.4706 464.883 -31.6727 456.684 -28.8046 450.46C-27.2214 447.03 -25.6492 443.603 -24.0813 440.184C-11.0781 411.843 1.20361 385.073 17.3556 359.833C38.676 326.521 65.9915 292.657 94.274 264.483C120.513 238.344 146.991 217.692 172.975 203.101C202.779 186.364 231.891 177.679 259.5 177.286C301.044 176.499 339.631 194.689 374.171 231.347C393.319 251.693 410.486 273.701 424.757 292.548C432.521 302.804 440.286 313.317 447.796 323.484C474.379 359.478 501.868 396.694 532.696 426.838C546.467 440.307 560.922 453.357 575.655 465.623C593.888 480.769 612.404 494.673 630.692 506.947C659.277 526.131 694.85 550.007 730.59 541.534C750.262 536.87 764.74 524.367 774.856 503.31C794.867 461.863 793.516 397.322 792.429 345.462C792.109 330.127 791.804 315.639 792.17 303.976C792.992 277.684 794.231 247.127 798.522 217.198C802.138 191.837 807.598 168.894 814.751 149.006C822.843 126.509 833.21 107.648 845.564 92.946C853.75 83.2031 862.924 74.9338 872.829 68.3642C886.964 58.959 902.824 53.0452 919.974 50.7902C936.034 48.6775 952.967 49.7883 970.301 54.089C984.92 57.7171 999.328 63.6839 1013.13 71.8276C1027.01 80.0216 1039.96 90.2305 1051.6 102.17C1065.03 115.918 1077.37 132.152 1088.29 150.424C1098.63 167.735 1107.8 187.042 1115.54 207.806C1130.02 246.652 1139.54 290.932 1143.08 335.851L1142.1 335.976C1134.49 239.516 1101.28 154.655 1050.98 103.149C1027.95 79.5332 999.23 62.548 970.112 55.3225C934.109 46.389 900.627 51.2842 873.285 69.4777C863.459 75.9944 854.359 84.1995 846.237 93.8642C822.959 121.566 807.23 163.136 799.492 217.424C795.209 247.272 793.975 277.776 793.155 304.027C792.791 315.648 793.093 330.113 793.416 345.429C793.951 371.013 794.558 400.012 792.523 428.047C790.161 460.577 784.658 485.41 775.698 503.966C770.821 514.119 764.765 522.478 757.699 528.808C750.069 535.645 741.008 540.342 730.772 542.767C725.608 543.993 720.448 544.548 715.32 544.548C684.605 544.548 654.843 524.571 630.233 508.055C611.919 495.761 593.375 481.838 575.118 466.669C560.362 454.387 545.888 441.317 532.097 427.829C501.206 397.624 473.688 360.368 447.079 324.341C439.571 314.177 431.809 303.667 424.048 293.416C409.797 274.592 392.654 252.614 373.542 232.307C339.188 195.845 300.827 177.76 259.515 178.536C194.638 179.462 134.178 226.318 94.8836 265.465C66.6581 293.583 39.3975 327.375 18.1231 360.62C2.01932 385.785 -10.2449 412.513 -23.2283 440.809C-24.7962 444.228 -26.3706 447.655 -27.9538 451.088C-30.8241 457.314 -34.6242 465.519 -38.569 473.755C-45.0289 487.26 -55.1706 506.919 -68.6035 521.655C-75.127 528.81 -82.0694 534.434 -89.2376 538.372C-97.2303 542.762 -105.813 545.229 -114.742 545.701C-116.007 545.77 -117.281 545.804 -118.564 545.804Z" fill="#FFE492"/>
<path d="M-114.444 584.659C-127.3 584.659 -141.255 581.229 -156.953 574.23C-173.206 566.985 -189.275 556.798 -202.848 547.786C-207.019 545.012 -211.181 542.199 -215.207 539.478C-226.46 531.873 -237.091 524.686 -247.114 518.82C-283.108 497.749 -318.868 477.178 -353.453 457.282C-364.892 450.701 -376.72 443.897 -388.184 437.288L-387.754 436.08C-376.29 442.688 -364.463 449.493 -353.023 456.073C-318.438 475.969 -282.674 496.543 -246.677 517.617C-236.628 523.5 -225.984 530.692 -214.718 538.309C-210.694 541.03 -206.532 543.84 -202.366 546.614C-174.215 565.296 -141.562 585.072 -110.295 583.211C-71.9063 580.872 -50.3447 540.268 -35.8461 505.156C-32.1293 496.161 -28.5353 487.13 -25.8206 480.267C-24.426 476.745 -23.0402 473.226 -21.6566 469.715C-9.21914 438.136 2.52757 408.311 18.4077 379.668C39.0615 342.416 66.355 303.86 95.2558 271.104C135.504 225.683 197.711 170.279 265.499 164.27C308.609 160.346 348.287 177.186 383.427 214.327C399.215 231.022 414.827 250.279 434.053 276.772C443.77 290.16 453.411 304.036 462.735 317.452C486.994 352.357 512.075 388.451 540.338 418.578C554.029 433.177 568.385 447.374 583.007 460.776C600.711 476.988 619.221 492.41 638.017 506.616C666.889 528.303 702.822 555.299 738.992 547.658C758.824 543.555 773.809 530.62 783.536 509.214C803.272 465.892 799.037 395.015 795.943 343.264C795.075 328.741 794.255 315.024 794.095 303.958C793.735 279.365 793.766 246.938 797.224 214.187C803.193 157.435 817.829 113.072 840.729 82.3362C848.754 71.5077 857.959 62.0998 868.083 54.3719C882.486 43.3648 898.736 35.9606 916.386 32.3688C933.014 28.9863 950.512 29.0393 968.399 32.5279C983.492 35.5364 998.332 40.9898 1012.51 48.7316C1026.83 56.5516 1040.1 66.5149 1051.98 78.3453C1065.7 92.0149 1078.24 108.305 1089.24 126.767C1099.67 144.262 1108.8 163.843 1116.4 184.97C1130.65 224.633 1139.44 269.806 1141.82 315.604L1140.78 315.691C1135.66 217.028 1103.06 130.9 1051.34 79.3919C1027.89 56.0241 998.376 39.8455 968.243 33.8396C931.093 26.5973 896.647 34.0908 868.623 55.5106C858.58 63.1743 849.451 72.5069 841.49 83.2489C818.742 113.781 804.197 157.893 798.259 214.366C794.81 247.027 794.781 279.39 795.139 303.936C795.301 314.962 796.119 328.663 796.985 343.167C798.583 369.917 800.395 400.239 799.36 429.842C798.151 464.312 793.272 490.493 784.44 509.881C779.688 520.338 773.68 528.878 766.578 535.264C758.879 542.188 749.656 546.798 739.166 548.97C722.895 552.405 705.384 549.319 685.629 539.531C668.457 531.022 652.005 518.664 637.491 507.763C618.666 493.538 600.132 478.093 582.402 461.859C567.758 448.438 553.382 434.221 539.671 419.602C511.349 389.414 486.239 353.281 461.957 318.339C452.637 304.926 442.998 291.059 433.29 277.682C414.097 251.236 398.513 232.015 382.762 215.359C347.831 178.431 308.405 161.691 265.569 165.59C198.073 171.577 136.072 226.81 95.9444 272.095C67.1006 304.784 39.864 343.259 19.2541 380.433C3.41783 408.994 -8.31132 438.778 -20.729 470.309C-22.1127 473.823 -23.4985 477.342 -24.8931 480.864C-27.61 487.733 -31.2061 496.772 -34.9273 505.776C-49.5531 541.2 -71.3318 582.167 -110.249 584.536C-111.633 584.617 -113.034 584.659 -114.444 584.659Z" fill="#FFE492"/>
<path d="M-110.238 623.516C-145.367 623.516 -182.225 596.056 -214.9 571.712C-224.941 564.232 -234.424 557.166 -243.437 551.191L-389 454.691L-388.493 453.455L-242.93 549.954C-233.894 555.943 -224.399 563.018 -214.345 570.509C-180.407 595.794 -141.939 624.453 -105.805 621.969C-66.5692 619.276 -45.9001 575.253 -32.2764 537.206C-27.8206 524.761 -23.5184 512.099 -19.3565 499.853C-7.97379 466.363 3.79486 431.731 19.4579 399.499C31.8953 373.907 47.3457 347.068 64.138 321.886C82.5595 294.259 102.284 268.913 122.758 246.552C145.332 221.901 168.286 201.508 190.979 185.943C216.08 168.729 240.808 157.491 264.481 152.537C311.905 142.615 355.037 157.672 392.676 197.294C423.956 230.217 450.541 270.93 476.251 310.304C498.631 344.575 521.771 380.011 547.975 410.303C578.242 445.289 611 477.576 645.341 506.263C674.275 530.435 710.284 560.52 747.397 553.758C778.741 548.048 796.864 521.356 802.798 472.154C807.846 430.302 803.043 380.655 799.186 340.766C797.871 327.172 796.63 314.331 796.02 303.918C792.656 246.516 794.801 199.13 802.574 159.056C807.425 134.053 814.582 111.765 823.846 92.8125C834.194 71.6411 847.48 53.9917 863.334 40.3556C877.05 28.5587 892.507 19.9908 909.279 14.8891C925.245 10.033 942.055 8.40593 959.242 10.0525C993.043 13.2899 1026.11 29.075 1052.34 54.4969C1066.37 68.0855 1079.1 84.4344 1090.19 103.086C1100.7 120.763 1109.8 140.62 1117.25 162.109C1131.27 202.591 1139.33 248.659 1140.54 295.331L1139.45 295.378C1136.86 195.99 1104.05 106.357 1051.68 55.6104C996.059 1.71905 917.105 -4.21151 863.943 41.5138C811.282 86.8094 789.42 172.609 797.11 303.815C797.717 314.194 798.958 327.018 800.272 340.596C804.138 380.572 808.951 430.324 803.879 472.366C801.116 495.265 795.564 513.668 787.378 527.066C782.773 534.599 777.223 540.756 770.88 545.36C764.128 550.261 756.28 553.552 747.551 555.142C743.983 555.793 740.354 556.119 736.664 556.119C723.215 556.119 708.89 551.791 693.194 543.022C675.511 533.142 658.447 518.886 644.736 507.433C610.349 478.704 577.545 446.375 547.234 411.338C520.971 380.982 497.806 345.505 475.403 311.197C449.725 271.874 423.173 231.211 391.972 198.371C354.585 159.02 311.749 144.061 264.652 153.915C169.385 173.848 71.2492 295.574 20.3833 400.236C4.7619 432.378 -6.99142 466.963 -18.3588 500.408C-22.5229 512.66 -26.8273 525.331 -31.2874 537.786C-40.3326 563.046 -49.266 581.134 -59.401 594.703C-65.7272 603.17 -72.5906 609.846 -79.8005 614.543C-87.8173 619.765 -96.5489 622.734 -105.754 623.368C-107.241 623.465 -108.739 623.516 -110.238 623.516Z" fill="#FFE492"/>
</g>
</svg>
