<svg width="1920" height="702" viewBox="0 0 1920 702" fill="none" xmlns="http://www.w3.org/2000/svg">
<g opacity="0.3">
<path d="M704.952 701.183C697.662 701.183 690.567 700.611 683.748 699.469C669.447 697.073 656.234 692.154 644.477 684.848C631.84 676.998 620.757 666.301 611.532 653.056C592.992 626.434 583.717 594.552 574.746 563.718C572.983 557.663 571.161 551.403 569.311 545.329C556.688 503.928 540.687 467.663 520.396 434.461C479.918 368.23 422.993 311.707 355.771 271.002C278.031 223.93 194.447 200.482 120.415 204.977C76.9028 207.621 19.411 232.761 -6.28352 275.696C-21.5321 301.177 -22.7617 329.454 -9.83691 357.466L-10.0936 357.584C-16.8704 342.893 -19.8231 328.165 -18.8671 313.81C-17.99 300.641 -13.8387 287.768 -6.52605 275.549C5.1043 256.114 24.2842 238.889 48.9409 225.734C71.7249 213.58 97.1007 206.108 120.398 204.693C159.141 202.342 200.347 207.559 242.869 220.204C281.415 231.668 319.451 248.676 355.918 270.757C423.179 311.484 480.138 368.039 520.638 434.309C540.94 467.533 556.95 503.818 569.582 545.241C571.435 551.316 573.257 557.579 575.016 563.633C583.979 594.444 593.249 626.304 611.763 652.887C629.668 678.599 653.905 694.175 683.796 699.181C725.19 706.115 775.456 691.613 818.255 660.385C879.932 615.385 922.736 549.884 964.134 486.542C971.39 475.439 978.892 463.959 986.32 452.873C1005.6 424.086 1031.72 386.783 1062.76 353.551C1094.49 319.583 1126.73 294.626 1161.32 277.251C1182.5 266.617 1204.94 259.451 1228.03 255.956C1249.35 252.726 1271.92 252.526 1295.11 255.356C1334.89 260.212 1377.75 273.931 1426.13 297.292C1521.39 343.296 1616.56 399.135 1708.97 463.26C1796.81 524.208 1882.96 593.176 1965.03 668.241L1964.84 668.449C1794.72 512.843 1613.43 388.054 1426.01 297.546C1320.11 246.412 1236.05 240.042 1161.45 277.502C1085.56 315.611 1032.54 384.384 986.554 453.028C979.128 464.111 971.627 475.592 964.371 486.694C922.962 550.059 880.144 615.579 818.424 660.61C798.48 675.163 776.043 686.514 753.541 693.434C741.654 697.09 729.838 699.48 718.416 700.54C713.864 700.971 709.372 701.183 704.952 701.183Z" fill="#A1A1A1"/>
<path d="M712.08 685.396C693.489 685.396 676.269 681.858 660.88 674.876C643.719 667.091 628.91 655.027 616.862 639.022C615.796 637.605 614.739 636.139 613.718 634.662C595.376 608.155 585.688 576.687 576.323 546.254C574.428 540.103 572.47 533.741 570.485 527.569C558.66 490.813 544.421 458.418 526.95 428.537C524.798 424.858 522.57 421.171 520.323 417.58C479.25 351.919 421.862 296.112 354.365 256.19C276.063 209.922 192.242 187.443 118.343 192.897C75.1463 196.119 17.9196 221.67 -7.8849 264.274C-23.3366 289.786 -25.0851 318.12 -12.9471 346.214L-13.2065 346.327C-19.5688 331.602 -22.1831 316.846 -20.9732 302.473C-19.8621 289.273 -15.5416 276.372 -8.12743 264.128C3.62136 244.727 22.7449 227.482 47.1703 214.26C69.7457 202.038 95.0115 194.351 118.317 192.615C157.013 189.76 198.263 194.478 240.921 206.638C279.56 217.653 317.776 234.244 354.506 255.948C422.043 295.892 479.461 351.733 520.56 417.431C522.807 421.025 525.038 424.714 527.19 428.396C544.672 458.296 558.919 490.708 570.75 527.484C572.738 533.657 574.695 540.019 576.591 546.172C585.953 576.586 595.632 608.031 613.949 634.501C614.967 635.973 616.025 637.438 617.088 638.853C641.984 671.936 676.193 685.396 712.167 685.396C712.364 685.396 712.559 685.396 712.756 685.396C712.531 685.393 712.305 685.396 712.08 685.396ZM719.753 685.198C753.197 683.482 787.708 670.637 817.314 651.529C881.176 610.142 927.075 546.22 971.464 484.403C973.291 481.855 975.119 479.313 976.946 476.77C980.959 471.189 985.717 464.582 990.573 457.921C1012.36 428.052 1038.72 393.297 1069.09 362.015C1101.4 328.73 1133.67 304.029 1167.76 286.5C1188.71 275.741 1210.84 268.161 1233.55 263.973C1254.59 260.092 1276.83 258.995 1299.64 260.712C1339.04 263.68 1381.4 274.932 1429.15 295.114C1475.71 314.76 1513.98 333.254 1549.59 353.314C1600.04 381.76 1648.09 414.536 1688.44 442.844C1782.26 508.847 1874.31 583.793 1962.04 665.603L1961.84 665.808C1874.13 584.01 1782.09 509.069 1688.28 443.075C1647.93 414.77 1599.89 382 1549.45 353.562C1513.85 333.507 1475.59 315.019 1429.05 295.379C1325.02 251.413 1242.04 248.67 1167.89 286.754C1090.93 326.322 1036.13 395.941 990.802 458.091C985.943 464.751 981.188 471.355 977.175 476.939C975.347 479.479 973.52 482.024 971.692 484.572C927.289 546.409 881.374 610.353 817.466 651.771C801.62 661.998 784.758 670.121 767.346 675.913C751.139 681.3 735.163 684.415 719.753 685.198Z" fill="#A1A1A1"/>
<path d="M719.938 669.969C717.701 669.969 715.479 669.921 713.274 669.823C694.7 669.002 677.511 664.743 662.187 657.158C645.426 648.863 630.905 636.576 619.03 620.637C617.975 619.216 616.923 617.747 615.908 616.27C597.771 589.893 587.681 558.845 577.926 528.823C575.892 522.566 573.789 516.094 571.657 509.814C559.248 473.182 544.634 441.046 526.974 411.569C524.788 407.924 522.526 404.268 520.245 400.705C478.577 335.616 420.727 280.525 352.953 241.387C274.093 195.922 190.035 174.41 116.266 180.822C74.7302 184.489 17.6699 208.583 -9.46 252.814C-25.1345 278.369 -27.416 306.778 -16.0592 334.971L-16.3214 335.075C-22.272 320.305 -24.5422 305.515 -23.0757 291.117C-21.7277 277.875 -17.2267 264.94 -9.69971 252.668C2.17316 233.312 21.2346 216.061 45.4259 202.777C67.7898 190.496 92.94 182.601 116.24 180.543C154.89 177.186 196.186 181.403 238.976 193.078C277.711 203.648 316.105 219.819 353.094 241.145C420.908 280.308 478.789 335.43 520.482 400.556C522.763 404.122 525.028 407.777 527.214 411.428C544.882 440.922 559.504 473.078 571.919 509.73C574.051 516.012 576.155 522.484 578.188 528.742C587.94 558.747 598.022 589.772 616.136 616.118C617.151 617.595 618.198 619.061 619.252 620.476C667.508 685.244 753.027 678.29 816.37 642.67C882.898 604.931 932.338 542.206 980.151 481.548L980.642 480.925C985.273 475.046 990.061 468.968 994.827 462.967C1045.12 399.66 1100.4 334.599 1174.2 295.743C1194.92 284.857 1216.75 276.863 1239.08 271.984C1259.85 267.446 1281.75 265.453 1304.17 266.062C1343.25 267.122 1385.13 275.911 1432.18 292.93C1481.64 310.752 1518.85 327.135 1552.85 346.051C1601.29 373.057 1648.22 407.183 1689.62 437.292C1781.8 504.69 1872.44 580.614 1959.05 662.951L1958.85 663.154C1872.26 580.825 1781.62 504.91 1689.45 437.517C1648.06 407.414 1601.14 373.294 1552.71 346.296C1518.73 327.386 1481.52 311.009 1432.09 293.192C1330.08 256.301 1248.18 257.189 1174.33 295.988C1100.57 334.818 1045.32 399.851 995.047 463.137C990.281 469.138 985.492 475.217 980.862 481.094L980.371 481.717C956.544 511.945 931.907 543.201 905.301 571.121C875.402 602.495 846.357 625.978 816.506 642.91C785.275 660.47 751.256 669.969 719.938 669.969Z" fill="#A1A1A1"/>
<path d="M1955.87 660.496C1870.4 577.637 1781.16 500.746 1690.63 431.959C1686.8 429.067 1682.96 426.161 1679.1 423.246C1639.89 393.588 1599.34 362.921 1555.99 339.029C1513.92 315.916 1471.3 301.783 1435.14 291.007C1335.34 261.078 1254.52 265.597 1180.78 305.222C1105.09 346.02 1046.43 413.756 999.305 468.185C996.476 471.452 993.653 474.724 990.825 477.999C988.738 480.418 986.648 482.836 984.558 485.252C957.725 516.274 933.316 544.01 906.347 569.319C875.537 598.231 845.84 619.405 815.555 634.053C787.172 647.783 756.853 655.047 728.651 655.05C723.513 655.05 718.451 654.81 713.476 654.323C695.314 652.544 678.5 647.546 663.503 639.468C647.137 630.654 632.904 618.133 621.192 602.253C620.146 600.829 619.102 599.358 618.093 597.878C600.17 571.639 589.688 541.028 579.552 511.426C577.369 505.05 575.11 498.455 572.826 492.053C559.825 455.537 544.833 423.658 526.999 394.591C524.779 390.975 522.481 387.353 520.168 383.821C477.902 319.304 419.593 264.929 351.545 226.572C272.127 181.91 187.835 161.37 114.195 168.732C63.8521 173.865 12.3729 203.704 -10.995 241.291C-26.9148 266.899 -29.7378 295.399 -19.165 323.71L-19.4301 323.808C-24.966 308.985 -26.8951 294.15 -25.1635 279.716C-23.5701 266.426 -18.883 253.448 -11.2347 241.142C0.762266 221.842 19.7617 204.592 43.7105 191.259C65.86 178.928 90.8805 170.827 114.167 168.453C152.772 164.592 194.11 168.31 237.033 179.5C275.86 189.625 314.437 205.378 351.686 226.324C419.776 264.703 478.117 319.11 520.408 383.666C522.723 387.201 525.022 390.826 527.241 394.442C545.087 423.525 560.085 455.422 573.094 491.955C575.378 498.359 577.637 504.952 579.82 511.33C589.95 540.915 600.427 571.507 618.327 597.715C619.336 599.192 620.377 600.66 621.42 602.081C671.797 670.389 757.42 661.857 815.433 633.797C884.648 600.316 937.614 539.089 984.347 485.066C986.437 482.647 988.523 480.229 990.613 477.813C993.439 474.538 996.265 471.265 999.093 467.999C1025.99 436.931 1052.56 406.74 1081.77 378.919C1115.35 346.925 1147.7 322.737 1180.65 304.974C1201.16 293.956 1222.68 285.548 1244.62 279.986C1265.13 274.786 1286.69 271.899 1308.71 271.403C1347.54 270.53 1388.93 276.855 1435.23 290.737C1471.39 301.518 1514.04 315.657 1556.13 338.784C1599.5 362.684 1640.06 393.36 1679.28 423.024C1683.13 425.938 1686.97 428.844 1690.81 431.736C1781.34 500.529 1870.59 577.429 1956.07 660.295L1955.87 660.496Z" fill="#A1A1A1"/>
<path d="M1952.88 657.84C1866.92 572.868 1779.09 494.999 1691.81 426.4C1686.59 422.296 1681.24 418.066 1676.08 413.976C1639.07 384.684 1600.81 354.394 1559.26 331.763C1517.76 309.244 1474.77 297.417 1438.19 288.82C1340.82 265.715 1261.07 273.861 1187.23 314.456C1116.79 353.317 1061.61 411.754 1008.24 468.266L1002.38 474.47C997.756 479.372 992.97 484.437 988.252 489.407C934.832 545.594 881.357 598.256 814.601 625.191C798.402 631.728 781.768 636.258 765.157 638.662C747.32 641.241 729.993 641.278 713.656 638.769C695.911 636.043 679.478 630.319 664.813 621.753C648.854 612.431 634.906 599.682 623.36 583.864C622.319 582.432 621.284 580.958 620.283 579.481C602.581 553.397 591.72 523.237 581.218 494.069C578.875 487.56 576.449 480.829 574.001 474.293C560.397 437.889 545.033 406.266 527.029 377.617C524.778 374.038 522.446 370.444 520.097 366.94C477.236 302.995 418.467 249.336 350.14 211.76C270.16 167.907 185.632 148.334 112.118 156.652C62.2354 162.416 10.9903 192.463 -12.496 229.723C-28.6809 255.396 -32.0623 284.006 -22.2763 312.46L-22.5442 312.553C-27.6657 297.665 -29.2477 282.774 -27.2482 268.297C-25.4039 254.951 -20.5222 241.923 -12.7385 229.577C-0.611851 210.342 18.3199 193.109 42.0149 179.737C63.9444 167.36 88.8295 159.064 112.085 156.375C150.645 152.012 192.025 155.228 235.083 165.934C274.007 175.613 312.762 190.947 350.272 211.515C418.639 249.11 477.442 302.804 520.328 366.785C522.677 370.291 525.012 373.888 527.263 377.468C545.278 406.131 560.651 437.771 574.261 474.194C576.709 480.731 579.134 487.465 581.478 493.973C591.974 523.124 602.829 553.27 620.511 579.323C621.51 580.794 622.545 582.266 623.583 583.697C672.746 651.056 754.435 649.164 814.491 624.932C881.193 598.019 934.646 545.377 988.043 489.215C992.761 484.246 997.547 479.18 1002.18 474.279L1008.04 468.075C1034.23 440.336 1061.32 411.65 1090.73 384.966C1124.05 354.744 1155.57 331.599 1187.09 314.208C1207.38 303.052 1228.6 294.229 1250.14 287.989C1270.4 282.12 1291.63 278.337 1313.24 276.745C1351.9 273.895 1392.79 277.757 1438.25 288.544C1474.85 297.146 1517.86 308.976 1559.39 331.515C1600.97 354.154 1639.24 384.453 1676.25 413.753C1681.42 417.843 1686.76 422.071 1691.98 426.178C1779.27 494.782 1867.11 572.657 1953.07 657.637L1952.88 657.84Z" fill="#A1A1A1"/>
<path d="M1949.89 655.185C1864.67 569.268 1778.24 490.424 1692.98 420.845C1686.58 415.616 1680.01 410.179 1673.66 404.922C1638.65 375.946 1602.45 345.983 1562.52 324.502C1521.22 302.369 1478.03 292.941 1441.24 286.638C1346.57 270.174 1267.9 281.951 1193.67 323.695C1128.89 360.279 1075.71 412.126 1024.27 462.265C1018.86 467.542 1013.26 472.996 1007.81 478.281C1001.4 484.488 996.51 489.203 991.944 493.567C967.49 516.922 938.375 543.816 907.821 566.185C875.443 589.887 844.638 606.292 813.645 616.338C797.347 621.62 780.784 624.952 764.413 626.237C746.835 627.618 729.815 626.603 713.831 623.218C696.512 619.551 680.463 613.099 666.122 604.043C650.572 594.222 636.914 581.245 625.526 565.477C624.499 564.048 623.47 562.571 622.472 561.088C605.004 535.179 593.779 505.484 582.922 476.767C580.403 470.107 577.8 463.221 575.175 456.532C560.958 420.23 545.219 388.866 527.054 360.643C524.77 357.094 522.404 353.534 520.021 350.059C476.565 286.686 417.333 233.743 348.73 196.947C268.195 153.9 183.429 135.3 110.046 144.568C68.2904 149.957 13.7542 174.784 -13.9567 218.096C-30.4321 243.848 -34.386 272.587 -25.3869 301.205L-25.6548 301.29C-30.3616 286.325 -31.5912 271.369 -29.3125 256.836C-27.2087 243.422 -22.124 230.338 -14.1937 217.944C-1.93725 198.788 16.924 181.583 40.3567 168.183C62.0663 155.769 86.8019 147.285 110.012 144.289C148.527 139.424 189.952 142.138 233.14 152.359C272.157 161.593 311.092 176.509 348.863 196.699C417.505 233.514 476.771 286.489 520.252 349.898C522.635 353.374 525.004 356.939 527.288 360.491C545.462 388.728 561.209 420.109 575.434 456.428C578.063 463.119 580.666 470.005 583.184 476.666C594.033 505.369 605.255 535.047 622.703 560.928C623.701 562.408 624.728 563.882 625.754 565.308C666.655 621.947 736.863 640.922 813.557 616.064C883.012 593.554 939.669 543.102 991.749 493.358C996.315 488.995 1001.21 484.279 1007.61 478.072C1013.06 472.787 1018.66 467.333 1024.07 462.057C1049.4 437.373 1075.58 411.85 1103.51 387.95C1135.09 360.922 1164.54 339.821 1193.54 323.445C1213.64 312.142 1234.54 302.905 1255.68 295.993C1275.7 289.446 1296.59 284.769 1317.77 282.089C1356.34 277.212 1396.74 278.608 1441.29 286.353C1478.1 292.662 1521.32 302.093 1562.65 324.245C1602.61 345.74 1638.82 375.712 1673.84 404.696C1680.19 409.953 1686.76 415.39 1693.16 420.619C1778.42 490.207 1864.86 569.057 1950.09 654.979L1949.89 655.185Z" fill="#A1A1A1"/>
<path d="M1946.89 652.53C1862.42 565.664 1777.39 485.841 1694.16 415.286C1687.08 409.285 1679.81 402.986 1672.77 396.894C1639.27 367.879 1604.63 337.877 1565.79 317.235C1524.45 295.368 1481.17 288.392 1444.29 284.451C1353.91 274.538 1274.04 290.396 1200.12 332.93C1141.26 366.951 1090.8 412.465 1042.01 456.482C1032.15 465.372 1021.96 474.566 1012.05 483.33C1005.99 488.694 1000.62 493.404 995.632 497.727C972.419 517.813 941.541 543.568 908.545 564.615C875.392 585.761 844.034 599.784 812.683 607.482C778.488 615.879 744.361 615.941 713.994 607.665C697.11 603.062 681.441 595.886 667.422 586.333C652.286 576.02 638.918 562.817 627.686 547.097C626.668 545.665 625.647 544.185 624.654 542.703C607.434 516.99 595.86 487.783 584.67 459.54C581.962 452.707 579.165 445.644 576.342 438.78C561.502 402.574 545.388 371.464 527.077 343.678C524.758 340.16 522.358 336.631 519.941 333.186C475.891 270.386 416.199 218.156 347.32 182.147C266.229 139.909 181.226 122.278 107.97 132.496C58.3236 139.57 8.75365 169.279 -15.3756 206.419C-32.1669 232.263 -36.7045 261.152 -28.4978 289.962L-28.7686 290.038C-33.058 274.983 -33.9323 259.948 -31.3688 245.353C-28.9998 231.863 -23.6979 218.711 -15.6125 206.264C-3.22637 187.198 15.5615 170.032 38.7207 156.621C60.2018 144.182 84.7823 135.512 107.93 132.214C146.4 126.847 187.87 129.062 231.191 138.795C270.304 147.584 309.419 162.083 347.449 181.893C416.368 217.924 476.094 270.183 520.173 333.023C522.59 336.467 524.99 339.999 527.311 343.52C545.63 371.323 561.753 402.447 576.601 438.67C579.424 445.534 582.222 452.6 584.929 459.433C596.114 487.662 607.682 516.855 624.885 542.542C625.878 544.025 626.896 545.499 627.914 546.931C668.113 603.203 737.159 625.736 812.615 607.208C881.404 590.316 941.141 544.504 995.446 497.516C1000.43 493.192 1005.81 488.485 1011.86 483.121C1021.77 474.358 1031.96 465.166 1041.82 456.276C1090.62 412.251 1141.08 366.726 1199.97 332.69C1219.89 321.227 1240.5 311.578 1261.2 304.007C1281.01 296.769 1301.57 291.196 1322.3 287.445C1360.86 280.468 1400.77 279.4 1444.31 284.175C1481.22 288.118 1524.54 295.097 1565.92 316.99C1604.79 337.646 1639.44 367.659 1672.96 396.686C1679.99 402.777 1687.26 409.074 1694.34 415.075C1777.58 485.635 1862.62 565.463 1947.1 652.336L1946.89 652.53Z" fill="#A1A1A1"/>
<path d="M1943.91 649.874C1860.18 562.05 1776.55 481.255 1695.33 409.73C1687.87 403.157 1680.19 396.198 1672.77 389.467C1640.49 360.206 1607.11 329.947 1569.05 309.971C1527.55 288.29 1484.23 283.8 1447.33 282.266C1360.37 278.388 1281.61 297.981 1206.56 342.166C1153.93 373.302 1107.01 412.707 1061.63 450.813C1046.03 463.917 1031.29 476.294 1016.3 488.378C1010.21 493.296 1004.65 497.716 999.323 501.885C964.932 528.761 936.318 548.193 909.273 563.036C875.344 581.659 843.436 593.301 811.727 598.622C799.425 600.685 787.169 601.714 775.135 601.714C753.803 601.714 733.162 598.49 714.16 592.103C679.771 580.543 651.406 559.214 629.852 528.707C628.836 527.261 627.824 525.782 626.842 524.305C609.885 498.815 597.987 470.126 586.48 442.379C583.564 435.349 580.552 428.083 577.515 421.016C562.041 384.895 545.548 354.044 527.105 326.7C524.753 323.213 522.319 319.715 519.868 316.302C475.222 254.074 415.068 202.559 345.912 167.331C264.266 125.905 179.029 109.241 105.9 120.409C56.0476 128.18 7.90742 157.325 -16.738 194.661C-33.8704 220.613 -39.0088 249.674 -31.603 278.704L-31.8766 278.774C-35.743 263.615 -36.2563 248.49 -33.3995 233.819C-30.7541 220.238 -25.2295 207.013 -16.972 194.506C-4.45615 175.545 14.25 158.436 37.1271 145.024C58.377 132.566 82.7855 123.726 105.857 120.13C144.282 114.261 185.798 115.975 229.248 125.223C268.456 133.569 307.75 147.651 346.042 167.078C415.237 202.328 475.425 253.871 520.099 316.136C522.55 319.552 524.984 323.05 527.339 326.54C545.794 353.898 562.295 384.765 577.774 420.901C580.812 427.967 583.826 435.237 586.74 442.267C598.24 470 610.133 498.677 627.076 524.144C628.058 525.618 629.068 527.098 630.083 528.541C670.332 585.512 736.521 610.954 811.679 598.34C883.223 586.333 946.592 542.73 999.149 501.659C1004.48 497.49 1010.03 493.073 1016.13 488.155C1031.11 476.071 1045.85 463.697 1061.45 450.593C1106.83 412.479 1153.76 373.068 1206.42 341.921C1226.19 330.28 1246.48 320.217 1266.74 312.009C1286.35 304.06 1306.57 297.592 1326.83 292.786C1365.47 283.622 1404.89 280.087 1447.34 281.982C1484.27 283.515 1527.63 288.011 1569.18 309.718C1607.27 329.708 1640.66 359.98 1672.96 389.253C1680.38 395.984 1688.06 402.943 1695.52 409.513C1776.74 481.043 1860.38 561.847 1944.11 649.677L1943.91 649.874Z" fill="#A1A1A1"/>
<path d="M1940.92 647.22C1856.78 557.179 1776.83 477.678 1696.51 404.172C1688.85 397.159 1681.3 389.997 1673.31 382.415C1642.08 352.773 1609.79 322.126 1572.32 302.708C1530.29 281.035 1485.08 279.231 1450.38 280.082C1367.38 281.852 1289.73 305.183 1213 351.406C1166.97 379.275 1124.47 412.741 1083.37 445.108C1061.76 462.119 1041.36 478.183 1020.55 493.429C1014.38 497.959 1008.64 502.085 1003.01 506.045C968.153 530.557 938.598 548.162 909.996 561.455C875.279 577.589 842.822 586.849 810.768 589.763C794.299 591.26 777.942 590.978 762.152 588.926C745.434 586.753 729.342 582.584 714.324 576.538C681.038 563.135 653.347 540.859 632.018 510.324C631.011 508.875 630.007 507.393 629.032 505.916C612.359 480.689 600.162 452.547 588.365 425.332C585.218 418.071 581.963 410.562 578.689 403.262C562.566 367.219 545.701 336.625 527.131 309.732C524.742 306.276 522.274 302.809 519.795 299.427C474.554 237.771 413.941 186.972 344.508 152.525C280.423 120.863 214.335 104.342 153.733 104.342C136.601 104.342 119.919 105.662 103.83 108.331C54.579 116.663 6.74063 145.913 -18.0486 182.849C-35.5449 208.922 -41.3065 238.18 -34.7101 267.457L-34.9865 267.519C-38.4299 252.242 -38.5737 237.013 -35.4151 222.257C-32.4878 208.578 -26.7234 195.265 -18.2855 182.691C-5.6399 163.848 12.9788 146.809 35.5627 133.412C56.8803 120.764 80.4709 111.995 103.78 108.055C142.159 101.684 183.72 102.899 227.303 111.66C266.604 119.558 306.081 133.22 344.633 152.269C414.104 186.736 474.755 237.562 520.024 299.255C522.506 302.637 524.976 306.107 527.365 309.566C545.944 336.473 562.817 367.081 578.948 403.141C582.223 410.441 585.48 417.95 588.627 425.214C600.418 452.417 612.61 480.548 629.268 505.755C630.244 507.229 631.248 508.712 632.252 510.158C672.138 567.256 737.193 596.165 810.746 589.479C885.173 582.711 952.507 541.209 1002.86 505.809C1008.48 501.848 1014.21 497.722 1020.39 493.195C1041.2 477.954 1061.6 461.888 1083.2 444.88C1124.31 412.51 1166.81 379.035 1212.86 351.158C1252.37 327.36 1291.13 310.017 1331.37 298.133C1370.18 286.672 1409.11 280.674 1450.38 279.795C1473.92 279.217 1493.13 280.22 1510.83 282.949C1533.68 286.472 1553.84 292.851 1572.45 302.451C1609.96 321.886 1642.27 352.551 1673.51 382.206C1681.5 389.789 1689.05 396.948 1696.7 403.961C1777.03 477.47 1856.98 556.976 1941.13 647.022L1940.92 647.22Z" fill="#A1A1A1"/>
<path d="M1937.92 644.564C1854.55 553.537 1775.97 473.089 1697.68 398.613C1689.94 391.245 1682.3 383.655 1674.22 375.618C1643.92 345.509 1612.6 314.371 1575.58 295.441C1533.21 273.869 1488.04 274.732 1453.43 277.892C1375.1 284.794 1298.56 311.862 1219.45 360.637C1180.47 384.785 1143.36 412.419 1107.46 439.146C1079.09 460.272 1052.29 480.228 1024.8 498.468C1018.59 502.595 1012.5 506.541 1006.7 510.194C971.774 532.191 940.377 548.435 910.717 559.857C875.203 573.533 842.196 580.416 809.809 580.895C793.331 581.138 777.039 579.649 761.396 576.467C744.996 573.13 729.215 567.912 714.488 560.956C682.344 545.772 655.324 522.548 634.181 491.929C633.188 490.483 632.19 488.997 631.217 487.512C614.857 462.592 602.395 435.045 590.342 408.405C586.932 400.868 583.404 393.072 579.859 385.492C563.076 349.517 545.837 319.183 527.156 292.749C524.733 289.324 522.232 285.888 519.719 282.537C473.883 221.453 412.807 171.37 343.098 137.704C260.343 97.9039 174.63 83.1791 101.755 96.2409C53.1407 105.106 5.62097 134.431 -19.3064 170.948C-37.1975 197.159 -43.5993 226.636 -37.8236 256.199L-38.1 256.252C-41.1119 240.843 -40.8806 225.495 -37.409 210.638C-34.1856 196.846 -28.1758 183.437 -19.5405 170.787C-6.7708 152.079 11.7548 135.125 34.0341 121.756C55.1063 109.111 78.5052 100.193 101.704 95.9619C140.041 89.0927 181.644 89.803 225.357 98.0787C264.754 105.537 304.408 118.782 343.22 137.447C412.971 171.131 474.081 221.244 519.942 282.365C522.458 285.716 524.962 289.155 527.384 292.583C546.076 319.03 563.322 349.379 580.113 385.368C583.661 392.948 587.186 400.744 590.598 408.284C602.646 434.912 615.103 462.448 631.451 487.351C632.424 488.834 633.422 490.319 634.412 491.763C674.718 550.132 737.007 581.69 809.804 580.608C868.872 579.734 931.389 557.28 1006.55 509.949C1012.34 506.296 1018.43 502.352 1024.64 498.226C1052.13 479.989 1078.92 460.038 1107.29 438.912C1143.19 412.182 1180.31 384.542 1219.3 360.389C1259.19 335.796 1297.33 317.181 1335.9 303.474C1374.97 289.589 1413.41 281.125 1453.4 277.601C1488.05 274.436 1533.28 273.576 1575.71 295.181C1612.77 314.134 1644.11 345.286 1674.42 375.41C1682.5 383.446 1690.14 391.034 1697.88 398.399C1776.17 472.877 1854.76 553.331 1938.13 644.364L1937.92 644.564Z" fill="#A1A1A1"/>
<path d="M1934.93 641.909C1852.34 549.892 1775.12 468.492 1698.86 393.058C1691.12 385.399 1683.48 377.442 1675.38 369.017C1645.95 338.369 1615.51 306.679 1578.86 288.177C1536.08 266.684 1490.99 270.222 1456.48 275.704C1382.78 287.19 1309.51 317.114 1225.9 369.874C1194.54 389.751 1163.89 411.557 1134.25 432.643C1098.26 458.254 1064.26 482.447 1029.05 503.517C1022.71 507.316 1016.43 510.964 1010.39 514.352C974.839 534.291 942.472 548.655 911.442 558.261C894.061 563.642 876.904 567.54 860.445 569.849C842.89 572.31 825.531 573.045 808.853 572.036C775.014 569.987 743.321 561.018 714.657 545.38C683.7 528.49 657.354 504.323 636.352 473.543C635.365 472.085 634.375 470.597 633.408 469.12C617.398 444.566 604.713 417.673 592.448 391.668C588.734 383.795 584.896 375.655 581.035 367.735C563.575 331.819 545.961 301.741 527.184 275.778C524.727 272.381 522.189 268.976 519.646 265.658C473.214 205.144 411.679 155.777 341.693 122.897C258.386 83.9121 172.439 70.1568 99.6842 84.1629C21.7829 99.3923 -54.1273 165.195 -40.929 244.95L-41.2082 244.995C-44.5106 225.044 -42.576 205.389 -35.4607 186.572C-28.963 169.386 -18.3 153.212 -3.76772 138.504C9.74367 124.828 25.9539 113.021 44.4091 103.409C61.9617 94.2679 81.057 87.5143 99.6278 83.8839C137.92 76.513 179.568 76.7244 223.413 84.5153C262.907 91.531 302.741 104.359 341.812 122.644C411.836 155.546 473.409 204.941 519.868 265.489C522.415 268.81 524.953 272.215 527.412 275.614C546.197 301.588 563.821 331.684 581.289 367.613C585.149 375.534 588.988 383.674 592.702 391.55C604.964 417.546 617.643 444.428 633.645 468.968C634.609 470.445 635.596 471.933 636.583 473.388C676.948 532.541 738.135 567.473 808.87 571.757C868.753 575.379 934.627 556.525 1010.25 514.109C1016.29 510.721 1022.56 507.077 1028.91 503.277C1064.1 482.213 1098.1 458.023 1134.09 432.415C1163.73 411.326 1194.38 389.517 1225.74 369.637C1309.39 316.854 1382.7 286.92 1456.44 275.425C1479.62 271.741 1498.82 270.563 1516.85 271.721C1539.91 273.201 1560.23 278.5 1578.98 287.923C1615.67 306.445 1646.13 338.155 1675.58 368.82C1683.68 377.242 1691.32 385.199 1699.06 392.855C1775.32 468.294 1852.55 549.698 1935.14 641.72L1934.93 641.909Z" fill="#A1A1A1"/>
<path d="M1931.95 639.254C1850.14 546.234 1774.28 463.886 1700.04 387.5C1692.36 379.596 1684.76 371.317 1676.73 362.548C1648.09 331.315 1618.47 299.015 1582.12 280.911C1538.42 259.238 1491.23 266.31 1459.53 273.514C1373.5 292.828 1296.41 337.73 1232.34 379.111C1209.32 394.045 1186.35 409.863 1164.13 425.16C1119.57 455.847 1077.49 484.832 1033.3 508.565C1026.81 512.058 1020.34 515.403 1014.09 518.512C977.84 536.493 944.503 548.974 912.173 556.663C875.522 565.382 840.442 567.574 807.9 563.177C774.47 558.659 743.155 547.429 714.829 529.798C685.119 511.308 659.447 486.196 638.521 455.159C637.546 453.702 636.561 452.211 635.6 450.728C619.987 426.626 607.144 400.471 594.722 375.176C590.652 366.886 586.442 358.318 582.211 349.977C563.81 313.61 546.333 284.643 527.215 258.807C524.725 255.441 522.156 252.07 519.576 248.78C472.544 188.841 410.545 140.19 340.284 108.088C256.424 69.9204 170.239 57.132 97.6091 72.0823C19.4286 88.3884 -54.9306 153.297 -44.0392 233.7L-44.3184 233.737C-47.0201 213.789 -44.6822 194.154 -37.3723 175.379C-30.6716 158.176 -19.9465 141.986 -5.4904 127.261C7.98996 113.528 24.1156 101.633 42.4411 91.9005C59.8894 82.6327 78.948 75.6846 97.5526 71.8032C135.802 63.9306 177.493 63.6431 221.468 70.9464C261.057 77.5196 301.072 89.9303 340.402 107.832C410.706 139.951 472.738 188.63 519.793 248.606C522.373 251.898 524.945 255.272 527.438 258.637C546.567 284.485 564.049 313.469 582.46 349.85C586.69 358.191 590.9 366.762 594.97 375.052C607.39 400.339 620.23 426.485 635.831 450.576C636.793 452.059 637.774 453.547 638.75 455.004C679.428 515.336 739.511 553.653 807.934 562.898C869.301 571.191 936.691 556.587 1013.96 518.259C1020.21 515.152 1026.68 511.809 1033.17 508.317C1077.34 484.589 1119.42 455.61 1163.97 424.926C1186.19 409.629 1209.16 393.808 1232.19 378.872C1275.27 351.048 1311.11 330.491 1344.97 314.18C1384.83 294.979 1422.28 281.587 1459.46 273.238C1482.13 268.086 1501.89 265.752 1519.87 266.107C1543.02 266.564 1563.42 271.322 1582.25 280.657C1618.65 298.784 1648.28 331.103 1676.93 362.357C1684.97 371.123 1692.56 379.401 1700.24 387.299C1774.49 463.689 1850.34 546.043 1932.16 639.065L1931.95 639.254Z" fill="#A1A1A1"/>
<path d="M1928.96 636.595C1847.94 542.569 1773.44 459.271 1701.21 381.938C1693.64 373.828 1686.14 365.262 1678.21 356.192C1650.32 324.329 1621.49 291.382 1585.39 273.644C1541.21 252.021 1494.14 261.963 1462.58 271.324C1384.64 294.243 1315.11 337.882 1238.79 388.345C1225.02 397.48 1211.1 406.909 1197.64 416.03C1145.85 451.106 1092.3 487.374 1037.55 513.61C1030.9 516.801 1024.25 519.848 1017.78 522.667C981.284 538.541 945.998 549.438 912.898 555.056C875.401 561.421 839.754 561.17 806.939 554.315C773.977 547.429 743.042 533.936 714.993 514.21C686.608 494.249 661.604 468.195 640.679 436.775C639.712 435.315 638.736 433.821 637.78 432.339C622.638 408.8 609.714 383.496 597.215 359.027C592.711 350.211 588.055 341.095 583.376 332.224C564.255 295.894 546.415 267.175 527.232 241.84C524.714 238.514 522.108 235.171 519.491 231.907C471.872 172.531 409.417 124.597 338.874 93.2784C254.464 55.9279 168.045 44.1091 95.5334 60.0009C19.8347 76.7721 -55.8979 139.403 -47.1526 222.448L-47.4318 222.476C-49.5328 202.528 -46.7916 182.916 -39.2872 164.183C-32.3862 146.96 -21.5963 130.756 -7.21915 116.014C19.3073 88.8192 56.7365 68.3019 95.4714 59.7218C133.676 51.3503 175.412 50.5611 219.519 57.3767C259.204 63.5102 299.397 75.5009 338.987 93.019C409.57 124.354 472.061 172.32 519.711 231.724C522.331 234.991 524.937 238.334 527.458 241.663C546.649 267.011 564.498 295.742 583.624 332.086C588.303 340.96 592.962 350.075 597.466 358.892C609.962 383.356 622.884 408.653 638.017 432.181C638.97 433.664 639.946 435.155 640.913 436.615C682.778 499.477 740.208 540.08 806.992 554.036C868.833 566.957 939.709 556.316 1017.66 522.407C1024.13 519.589 1030.78 516.544 1037.42 513.356C1092.15 487.129 1145.69 450.866 1197.47 415.796C1210.94 406.675 1224.86 397.246 1238.63 388.111C1272.04 366.021 1310.91 340.683 1349.5 319.529C1389.85 297.402 1426.82 281.547 1462.49 271.056C1484.95 264.395 1504.71 260.94 1522.88 260.494C1545.8 259.931 1566.87 264.271 1585.51 273.393C1601.68 281.339 1617.96 293.197 1635.27 309.647C1650.56 324.171 1664.72 340.356 1678.41 356.006C1686.35 365.073 1693.84 373.639 1701.41 381.746C1773.65 459.082 1848.14 542.383 1929.17 636.412L1928.96 636.595Z" fill="#A1A1A1"/>
<path d="M1925.96 633.94C1845.74 538.9 1772.61 454.652 1702.39 376.382C1694.95 368.095 1687.59 359.27 1679.79 349.929C1652.63 317.404 1624.55 283.771 1588.66 266.383C1555.11 250.184 1514.87 251.086 1465.63 269.14C1396.78 294.24 1335.24 336.224 1270.08 380.678C1261.97 386.214 1253.58 391.936 1245.23 397.587C1241.97 399.806 1238.69 402.03 1235.43 404.251C1173.34 446.444 1109.15 490.074 1041.8 518.661C1035 521.553 1028.16 524.302 1021.47 526.827C984.175 540.901 947.894 549.859 913.634 553.45C875.272 557.469 839.052 554.78 805.989 545.456C773.54 536.304 742.986 520.547 715.177 498.623C688.222 477.373 663.889 450.381 642.854 418.392C641.895 416.929 640.928 415.432 639.977 413.947C625.411 391.147 612.529 366.864 600.066 343.381C595.021 333.871 589.801 324.036 584.558 314.464C564.699 278.159 546.497 249.688 527.269 224.866C524.714 221.569 522.078 218.259 519.427 215.026C471.205 156.226 408.287 109.004 337.467 78.4692C252.51 41.939 165.852 31.087 93.461 47.9202C19.1526 65.3426 -56.4728 128.487 -50.26 211.199L-50.542 211.221C-52.0395 191.27 -48.8979 171.68 -41.1988 152.995C-34.0948 135.753 -23.2429 119.529 -8.94183 104.776C17.4718 77.5249 54.7713 56.7033 93.3962 47.6468C131.559 38.7736 173.336 37.4826 217.573 43.8134C257.355 49.5015 297.731 61.0751 337.58 78.2099C408.439 108.764 471.396 156.011 519.638 214.843C522.289 218.076 524.932 221.391 527.487 224.689C546.723 249.524 564.935 278.004 584.801 314.323C590.046 323.895 595.264 333.733 600.312 343.243C612.768 366.72 625.651 390.997 640.211 413.789C641.162 415.275 642.126 416.769 643.085 418.231C685.858 483.276 742.214 527.171 806.062 545.177C869.09 562.951 941.529 556.686 1021.37 526.557C1028.05 524.031 1034.89 521.286 1041.69 518.396C1109.01 489.821 1173.2 446.198 1235.27 404.011C1238.54 401.787 1241.81 399.566 1245.07 397.348C1253.42 391.696 1261.81 385.974 1269.92 380.441C1335.09 335.979 1396.65 293.984 1465.53 268.872C1487.77 260.715 1507.52 256.14 1525.9 254.88C1548.91 253.304 1570.06 257.09 1588.78 266.126C1604.86 273.914 1620.93 285.826 1637.92 302.544C1652.91 317.294 1666.68 333.792 1680 349.746C1687.8 359.084 1695.17 367.906 1702.6 376.191C1772.82 454.463 1845.96 538.714 1926.18 633.757L1925.96 633.94Z" fill="#A1A1A1"/>
<path d="M1922.98 631.285C1849.76 542.722 1775.94 455.089 1703.56 370.824C1696.2 362.295 1688.89 353.131 1681.16 343.432C1656.02 311.879 1627.52 276.119 1591.92 259.119C1557.98 242.948 1517.67 245.511 1468.67 266.95C1410.41 292.357 1358.86 329.716 1304.27 369.268C1287.18 381.653 1269.51 394.464 1251.68 406.821C1220.56 428.438 1186.89 451.312 1151.6 472.145C1113.81 494.457 1079.28 511.322 1046.05 523.707C1039.06 526.309 1032.04 528.758 1025.15 530.982C987.069 543.28 949.8 550.279 914.382 551.784C875.173 553.447 838.381 548.339 805.025 536.591C743.427 514.628 689.59 468.675 645.012 400.006C644.061 398.54 643.102 397.041 642.158 395.555C628.33 373.761 615.673 350.769 603.434 328.532C597.672 318.066 591.716 307.243 585.723 296.709C565.108 260.413 546.54 232.192 527.29 207.898C524.698 204.628 522.027 201.35 519.345 198.151C470.537 139.917 407.156 93.4139 336.06 63.6598C250.553 27.947 163.661 18.0675 91.3887 35.8394C16.629 54.3272 -57.1012 116.634 -53.3702 199.949L-53.6522 199.96C-54.5462 180.004 -50.9984 160.437 -43.1104 141.8C-35.8006 124.535 -24.8866 108.294 -10.6673 93.5295C2.72845 79.6193 18.606 67.4566 36.5224 57.377C53.9172 47.5933 72.3526 40.2534 91.3181 35.5631C129.438 26.191 171.261 24.3983 215.628 30.2414C255.505 35.4927 296.059 46.6462 336.167 63.3977C407.306 93.1687 470.723 139.7 519.56 197.962C522.241 201.164 524.918 204.445 527.51 207.715C546.768 232.023 565.345 260.255 585.969 296.563C591.961 307.099 597.918 317.923 603.679 328.391C615.919 350.625 628.573 373.614 642.394 395.4C643.336 396.888 644.298 398.385 645.246 399.851C689.79 468.466 743.579 514.383 805.118 536.323C868.506 558.647 944.563 556.708 1025.06 530.711C1031.94 528.487 1038.97 526.041 1045.95 523.442C1120.26 495.754 1188.24 450.534 1251.51 406.587C1269.34 394.23 1287.02 381.422 1304.11 369.037C1358.7 329.477 1410.27 292.109 1468.56 266.69C1517.63 245.217 1558.02 242.655 1592.04 258.863C1607.99 266.476 1623.82 278.41 1640.44 295.342C1655.1 310.273 1668.46 327.041 1681.38 343.254C1689.11 352.953 1696.41 362.114 1703.78 370.638C1776.15 454.905 1849.97 542.539 1923.19 631.105L1922.98 631.285Z" fill="#A1A1A1"/>
<path d="M1919.99 628.63C1847.89 539.576 1775.47 450.968 1704.74 365.265C1697.6 356.643 1690.52 347.319 1683.02 337.448C1658.5 305.16 1630.7 268.562 1595.19 251.85C1560.84 235.707 1520.46 239.929 1471.72 264.754C1420.65 290.725 1373.74 327.396 1328.37 362.864C1305.62 380.647 1282.09 399.036 1258.12 416.052C1220.28 442.937 1188.45 463.446 1157.93 480.598C1120.3 501.746 1085.09 517.497 1050.3 528.749C1043.15 531.061 1035.93 533.209 1028.84 535.134C991.885 545.16 955.595 550.233 920.879 550.236C918.95 550.236 917.032 550.219 915.115 550.188C874.978 549.534 837.617 541.975 804.068 527.723C787.875 520.806 772.017 512.026 756.938 501.625C742.763 491.85 728.835 480.336 715.538 467.403C691.614 444.138 669.25 416.075 647.174 381.617C646.227 380.134 645.282 378.648 644.343 377.157C631.533 356.826 619.415 335.573 607.697 315.019C600.932 303.155 593.938 290.886 586.893 278.943C565.203 242.148 546.83 214.998 527.312 190.918C524.686 187.679 521.982 184.432 519.266 181.264C469.865 123.608 406.025 77.8208 334.652 48.8475C248.598 13.9549 161.469 5.045 89.3154 23.7555C15.9574 42.8324 -57.677 105.613 -56.4784 188.694L-56.7604 188.697C-57.3188 149.999 -41.9743 113.201 -12.388 82.2828C0.985153 68.3077 16.7781 56.0577 34.5564 45.8653C51.8552 35.9491 70.2539 28.4176 89.2449 23.4792C127.32 13.6054 169.188 11.3138 213.684 16.6693C253.657 21.4808 294.392 32.2172 334.757 48.5825C406.174 77.5756 470.051 123.391 519.483 181.081C522.199 184.252 524.909 187.502 527.534 190.74C547.061 214.835 565.443 241.993 587.139 278.802C594.183 290.748 601.18 303.017 607.943 314.881C619.661 335.432 631.776 356.682 644.582 377.008C645.521 378.499 646.463 379.985 647.411 381.464C694.322 454.688 745.6 502.445 804.178 527.464C885.311 561.931 971.092 550.513 1028.77 534.863C1035.85 532.938 1043.07 530.793 1050.21 528.482C1130.24 502.6 1203.27 454.68 1257.96 415.824C1281.92 398.813 1305.45 380.424 1328.19 362.644C1373.58 327.171 1420.5 290.488 1471.59 264.506C1493.4 253.397 1513.14 246.576 1531.93 243.656C1555.11 240.053 1576.43 242.726 1595.31 251.599C1611.21 259.082 1626.89 271.113 1643.24 288.374C1657.65 303.584 1670.66 320.713 1683.25 337.281C1690.74 347.15 1697.82 356.471 1704.96 365.088C1775.68 450.79 1848.1 539.398 1920.21 628.452L1919.99 628.63Z" fill="#A1A1A1"/>
<path d="M1917 625.975L1705.92 359.71C1699.02 351.014 1692.18 341.552 1684.93 331.537C1661.01 298.485 1633.9 261.025 1598.46 244.589C1564.18 228.697 1522.57 234.746 1474.77 262.569C1428.82 289.316 1386.91 324.885 1346.37 359.284C1319.96 381.707 1292.64 404.891 1264.57 425.295C1180.2 486.624 1106.47 522.847 1032.54 539.294C1001.86 546.116 971.606 549.549 942.262 549.549C933.368 549.549 924.563 549.233 915.852 548.602C874.767 545.625 836.836 535.619 803.116 518.865C771.863 503.333 743.272 481.41 715.719 451.836C693.716 428.221 672.624 400.068 649.344 363.236C637.056 343.798 625.158 323.602 613.652 304.072C587.61 259.875 560.683 214.172 527.346 173.95C476.211 112.257 409.091 63.877 333.243 34.0383C246.644 -0.0312313 159.279 -7.9743 87.2432 11.6748C17.5006 30.6981 -58.1953 90.6855 -59.5885 177.445L-59.8705 177.439C-59.2472 138.66 -43.4233 101.867 -14.1106 71.0392C12.3933 43.1652 48.3616 21.9856 87.1699 11.4014C125.203 1.0286 167.116 -1.76473 211.739 3.10315C251.808 7.47213 292.723 17.7942 333.347 33.7762C370.878 48.5405 406.522 67.9753 439.292 91.5424C472.336 115.307 502.035 142.969 527.561 173.764C560.912 214 587.847 259.714 613.894 303.922C625.4 323.45 637.299 343.643 649.583 363.078C683.549 416.819 731.712 483.061 803.242 518.605C885.275 559.366 973.177 552.201 1032.47 539.013C1106.37 522.577 1180.07 486.368 1264.4 425.061C1292.46 404.665 1319.77 381.481 1346.19 359.064C1386.73 324.659 1428.65 289.082 1474.63 262.321C1522.51 234.45 1564.21 228.396 1598.58 244.33C1614.44 251.689 1629.98 263.824 1646.07 281.432C1660.24 296.932 1672.91 314.439 1685.16 331.368C1692.41 341.383 1699.25 350.839 1706.14 359.532L1917.22 625.797L1917 625.975Z" fill="#A1A1A1"/>
<path d="M1915.29 605.506C1861.55 531.369 1815.43 471.209 1770.16 416.185C1748.19 389.456 1725.75 363.146 1703.47 337.987C1696.73 330.376 1690.05 322.281 1682.98 313.709C1665.21 292.166 1646.84 269.89 1625.7 253.358C1614.34 244.465 1603.42 238.098 1592.29 233.892C1558.13 220.856 1518.05 229.475 1473.16 259.514C1449.93 275.037 1428.78 292.701 1411.16 307.934C1392.5 324.059 1374.09 341.843 1356.29 359.039C1330.7 383.759 1304.24 409.319 1275.8 431.271C1258.49 444.668 1240.94 456.639 1223.65 466.854C1189.04 487.29 1151.9 504.129 1113.26 516.903C1089.38 524.708 1065.38 530.608 1041.94 534.435C1021.74 537.722 1001.51 539.619 981.791 540.073C952.284 540.755 923.535 538.153 896.343 532.332C867.431 526.143 840.069 516.263 815.021 502.965C792.685 491.106 771.587 476.176 750.524 457.316C711.273 422.201 679.966 381.597 657.078 350.146C645.834 334.624 634.855 318.794 624.237 303.486C593.663 259.399 564.785 217.758 528.647 180.667C499.174 150.614 465.546 124.679 428.69 103.579C400.367 87.3626 369.562 74.1007 337.133 64.1592C329.409 61.7943 321.538 59.5901 313.746 57.6142C280.197 49.1214 242.429 43.5912 201.495 41.1755C160.225 38.6838 124.518 40.8401 92.3433 47.7741C74.1533 51.6639 56.5301 57.7664 39.956 65.9096C-18.5567 94.6602 -56.1297 142.925 -60.5517 195.02L-60.9042 194.989C-59.7254 181.101 -56.265 167.422 -50.6219 154.326C-45.2608 141.887 -37.8974 129.891 -28.7375 118.67C-11.4301 97.4733 12.2705 79.118 39.8009 65.5911C56.4003 57.4338 74.0517 51.3228 92.27 47.4274C124.479 40.4878 160.213 38.3287 201.517 40.8232C242.475 43.2388 280.262 48.7747 313.833 57.2731C321.634 59.2518 329.508 61.456 337.238 63.8237C369.692 73.7709 400.522 87.0441 428.867 103.274C465.749 124.389 499.405 150.346 528.893 180.419C565.053 217.533 593.937 259.184 624.522 303.283C635.137 318.591 646.116 334.418 657.357 349.938C680.234 381.375 711.526 421.958 750.755 457.051C771.796 475.891 792.871 490.808 815.181 502.652C864.204 528.677 920.255 541.149 981.78 539.72C1001.48 539.267 1021.7 537.37 1041.89 534.086C1065.31 530.258 1089.28 524.364 1113.14 516.565C1151.77 503.799 1188.89 486.971 1223.47 466.547C1240.75 456.341 1258.29 444.375 1275.58 430.989C1304.01 409.049 1330.46 383.494 1356.04 358.783C1373.84 341.583 1392.25 323.794 1410.92 307.663C1428.56 292.422 1449.72 274.752 1472.97 259.218C1492.95 245.844 1512.3 236.604 1530.48 231.753C1552.81 225.794 1573.65 226.403 1592.41 233.562C1603.57 237.782 1614.53 244.166 1625.91 253.079C1647.09 269.636 1665.47 291.926 1683.25 313.484C1690.32 322.052 1697 330.148 1703.73 337.753C1726.02 362.915 1748.47 389.228 1770.44 415.963C1815.71 470.992 1861.83 531.157 1915.58 605.3L1915.29 605.506Z" fill="#A1A1A1"/>
<path d="M1913.59 585.031C1863.76 509.639 1816.99 446.551 1770.6 392.164C1747.98 365.598 1724.57 340.061 1701.02 316.263C1694.77 309.949 1688.61 303.387 1682.07 296.442C1662.51 275.643 1642.29 254.136 1619.63 239.256C1608.19 231.71 1597.23 226.456 1586.12 223.192C1543.56 210.689 1500.34 234.377 1471.56 256.45C1451.18 272.043 1432.56 289.674 1413.7 307.874C1397.19 323.806 1381.66 340.943 1365.22 359.084C1340.82 386.014 1315.58 413.86 1287.03 437.241C1270.08 451.191 1252.39 463.252 1234.46 473.089C1201.06 491.416 1164.48 505.648 1122.63 516.601C1099.21 522.729 1075.23 527.095 1051.35 529.573C1031.2 531.639 1011.08 532.378 991.563 531.76C962.521 530.853 934.133 526.771 907.184 519.631C878.881 512.131 851.875 501.172 826.919 487.059C805.055 474.696 783.943 459.356 762.377 440.167C723.211 405.364 689.659 366.782 664.808 337.056C655.609 326.052 646.556 314.98 637.799 304.269C602.928 261.617 569.991 221.326 529.951 187.384C500.026 162.015 466.429 140.565 430.1 123.631C402.612 110.817 373.477 101.216 341.034 94.2795C333.546 92.6813 325.929 91.2409 318.396 89.9979C285.31 84.5663 249.999 82.5114 207.276 80.3861C176.48 78.7767 136.166 77.7168 97.4367 83.8672C79.0944 86.7254 61.364 91.6891 44.7335 98.6146C-13.8187 123.005 -53.5378 165.612 -61.5188 212.594L-61.9362 212.524C-59.8211 200.065 -55.5345 187.846 -49.2032 176.202C-43.1681 165.108 -35.2378 154.47 -25.6351 144.576C-7.38586 125.781 16.8901 109.751 44.57 98.2228C61.2315 91.2832 78.9957 86.311 97.369 83.4472C136.135 77.2884 176.48 78.351 207.296 79.9605C250.033 82.0858 285.355 84.1406 318.464 89.5751C326.002 90.8209 333.625 92.2613 341.121 93.8595C373.595 100.805 402.759 110.414 430.278 123.242C466.644 140.193 500.268 161.66 530.224 187.054C570.293 221.022 603.244 261.324 638.126 303.993C646.88 314.701 655.933 325.773 665.132 336.774C689.978 366.489 723.515 405.057 762.659 439.843C784.199 459.013 805.289 474.335 827.128 486.684C876.199 514.434 931.53 529.454 991.577 531.332C1011.08 531.946 1031.17 531.211 1051.31 529.144C1075.16 526.67 1099.13 522.309 1122.52 516.184C1164.33 505.242 1200.88 491.022 1234.26 472.711C1252.17 462.885 1269.83 450.841 1286.76 436.906C1315.29 413.544 1340.52 385.71 1364.91 358.794C1381.36 340.644 1396.89 323.504 1413.41 307.564C1432.28 289.353 1450.9 271.716 1471.31 256.106C1489.96 241.796 1508.36 231.502 1525.99 225.504C1547.38 218.231 1567.65 217.315 1586.24 222.778C1597.4 226.056 1608.4 231.327 1619.87 238.895C1642.56 253.803 1662.81 275.33 1682.38 296.146C1688.91 303.088 1695.08 309.647 1701.33 315.958C1724.89 339.765 1748.3 365.311 1770.93 391.885C1817.32 446.286 1864.11 509.385 1913.95 584.794L1913.59 585.031Z" fill="#A1A1A1"/>
<path d="M1911.89 564.555C1865.25 486.886 1819.18 422.64 1771.04 368.146C1747.77 341.743 1723.39 316.981 1698.58 294.541C1693.28 289.744 1687.82 284.653 1682.54 279.732C1660.73 259.398 1638.19 238.373 1613.58 225.157C1602.02 218.91 1591.02 214.767 1579.96 212.492C1537.5 203.757 1496.7 229.909 1469.96 253.383C1451.84 269.23 1435.27 287.19 1419.25 304.562L1416.25 307.815C1401.7 323.574 1388.05 340.858 1373.6 359.16C1350.59 388.302 1326.8 418.434 1298.26 443.211C1281.65 457.732 1263.82 469.884 1245.27 479.326C1212.93 495.79 1176.93 507.539 1132 516.299C1108.76 520.829 1084.79 523.659 1060.74 524.707C1040.65 525.55 1020.66 525.127 1001.33 523.445C942.808 518.374 888.131 500.78 838.812 471.152C817.492 458.344 796.366 442.602 774.231 423.017C736.77 389.946 703.453 355.952 672.541 323.969C668.396 319.681 664.295 315.422 660.226 311.197C618.005 267.369 578.128 225.971 531.262 194.109C500.667 173.307 467.104 156.344 431.511 143.688C405.379 134.397 377.059 128.089 344.937 124.402C337.698 123.577 330.335 122.897 323.05 122.384C304.725 121.116 285.288 120.91 264.709 120.693C248.18 120.518 231.09 120.338 213.055 119.602C178.224 118.06 138.747 116.316 102.525 119.969C83.8356 121.854 65.9981 125.676 49.5058 131.331C-9.02381 151.4 -50.8919 188.356 -62.4912 230.188L-62.9678 230.055C-59.9108 219.026 -54.8007 208.267 -47.7813 198.077C-41.0693 188.333 -32.575 179.048 -22.5352 170.482C-3.33273 154.1 21.5242 140.401 49.3422 130.863C65.8712 125.194 83.7454 121.364 102.471 119.475C138.73 115.819 178.226 117.567 213.072 119.109C231.096 119.842 248.186 120.025 264.709 120.2C285.297 120.417 304.739 120.623 323.081 121.894C330.371 122.41 337.743 123.089 344.988 123.915C377.149 127.604 405.503 133.921 431.671 143.226C467.307 155.896 500.906 172.878 531.536 193.703C578.444 225.593 618.341 267.011 660.578 310.859C664.648 315.084 668.751 319.34 672.894 323.63C703.8 355.608 737.106 389.593 774.555 422.654C796.668 442.216 817.771 457.944 839.066 470.735C888.32 500.326 942.927 517.895 1001.37 522.96C1020.68 524.64 1040.65 525.063 1060.72 524.22C1084.74 523.171 1108.69 520.344 1131.9 515.82C1176.79 507.068 1212.74 495.334 1245.04 478.892C1263.56 469.47 1281.35 457.341 1297.93 442.844C1326.43 418.099 1350.21 387.984 1373.21 358.858C1387.66 340.548 1401.32 323.255 1415.88 307.485L1418.88 304.232C1434.91 286.852 1451.49 268.88 1469.63 253.016C1496.46 229.466 1537.39 203.238 1580.06 212.013C1591.17 214.299 1602.21 218.457 1613.81 224.728C1638.47 237.973 1661.04 259.02 1682.87 279.377C1688.15 284.298 1693.61 289.389 1698.9 294.183C1723.73 316.634 1748.12 341.411 1771.41 367.827C1819.57 422.344 1865.65 486.613 1912.31 564.307L1911.89 564.555Z" fill="#A1A1A1"/>
<path d="M1910.19 544.078C1867.37 465.236 1820.7 397.962 1771.49 344.131C1747.56 317.894 1722.21 293.905 1696.14 272.826C1692.38 269.782 1688.52 266.622 1684.79 263.567C1660.15 243.382 1634.67 222.507 1607.53 211.063C1595.88 206.1 1584.85 203.069 1573.81 201.795C1531.47 196.913 1493.1 225.486 1468.37 250.316C1453.01 265.656 1439.15 282.714 1425.75 299.212C1423.43 302.068 1421.11 304.917 1418.79 307.756C1406.04 323.349 1394.12 340.768 1381.5 359.208C1360.05 390.558 1337.86 422.972 1309.49 449.186C1292.83 464.579 1275.36 476.48 1256.08 485.573C1215.76 504.591 1175.46 511.629 1141.36 516.009C1118.3 518.969 1094.34 520.265 1070.14 519.854C1050.1 519.473 1030.24 517.886 1011.09 515.141C954.331 507.02 900.371 486.872 850.71 455.255C830.047 442.103 808.91 425.952 786.086 405.88C763.032 385.653 741.548 366.19 720.769 347.367C706.648 334.573 693.309 322.489 680.282 310.896C631.042 267.071 585.94 228.539 532.585 200.843C501.332 184.621 467.803 172.14 432.929 163.749C407.934 157.734 381.216 154.805 348.849 154.526C341.866 154.475 334.754 154.557 327.712 154.771C317.015 155.118 305.948 155.842 294.236 156.612C271.76 158.086 246.279 159.757 218.834 158.822C208.382 158.464 197.719 157.959 187.406 157.469C160.879 156.209 133.45 154.906 107.609 156.071C88.6325 156.927 70.685 159.611 54.2717 164.047C-4.15924 179.846 -48.1735 211.153 -63.47 247.794L-63.9918 247.577C-59.9871 237.982 -54.0535 228.686 -46.3573 219.945C-38.9656 211.551 -29.9073 203.622 -19.4389 196.381C0.733734 182.428 26.1688 171.06 54.1194 163.503C70.5722 159.056 88.5592 156.364 107.578 155.507C133.448 154.34 160.888 155.645 187.428 156.905C197.739 157.395 208.402 157.9 218.851 158.258C246.271 159.194 271.731 157.525 294.197 156.051C305.915 155.281 316.984 154.557 327.692 154.21C334.742 153.996 341.86 153.914 348.852 153.965C381.264 154.241 408.021 157.178 433.059 163.202C467.975 171.604 501.549 184.1 532.842 200.344C556.943 212.853 581.365 228.703 607.505 248.794C630.907 266.78 653.671 286.46 680.655 310.476C693.681 322.072 707.02 334.155 721.144 346.95C741.92 365.77 763.404 385.233 786.453 405.457C809.254 425.509 830.369 441.643 851.006 454.781C900.599 486.356 954.484 506.476 1011.17 514.586C1030.29 517.328 1050.13 518.912 1070.14 519.293C1094.31 519.704 1118.25 518.411 1141.28 515.451C1175.34 511.079 1215.58 504.049 1255.83 485.065C1275.06 475.998 1292.48 464.128 1309.1 448.775C1337.42 422.606 1359.59 390.216 1381.03 358.892C1393.66 340.441 1405.59 323.013 1418.35 307.403C1420.67 304.565 1422.99 301.715 1425.3 298.863C1438.72 282.354 1452.59 265.284 1467.96 249.925C1484.05 233.771 1500.56 221.343 1517.02 212.988C1536.52 203.092 1555.65 199.14 1573.87 201.243C1584.96 202.523 1596.04 205.567 1607.74 210.55C1634.95 222.025 1660.46 242.926 1685.13 263.136C1688.86 266.191 1692.72 269.351 1696.48 272.392C1722.57 293.487 1747.94 317.5 1771.89 343.756C1798.02 372.34 1823.61 404.907 1847.95 440.553C1869.46 472.057 1890.56 506.8 1910.67 543.813L1910.19 544.078Z" fill="#A1A1A1"/>
<path d="M1908.49 523.594C1868.85 442.492 1822.91 374.032 1771.93 320.113C1747.35 294.043 1721.03 270.828 1693.71 251.109C1692.41 250.17 1691.11 249.231 1689.8 248.29C1661.39 227.758 1632.01 206.528 1601.5 196.97C1589.67 193.266 1578.61 191.347 1567.68 191.099C1525.5 190.146 1489.53 221.106 1466.79 247.244C1453.4 262.535 1441.52 279.295 1430.03 295.503C1427.19 299.511 1424.25 303.655 1421.35 307.691C1410.31 323.064 1400.04 340.543 1389.17 359.05C1369.4 392.714 1348.95 427.522 1320.73 455.156C1304.4 471.144 1286.79 483.135 1266.9 491.816C1227.7 508.917 1187.9 513.408 1150.73 515.713C1127.81 517.134 1103.86 516.891 1079.54 514.994C1059.57 513.388 1039.83 510.64 1020.86 506.829C966.03 495.836 912.786 473.134 862.612 439.352C842.518 425.825 821.971 409.742 797.952 388.737C752.302 348.926 718.403 320.885 688.041 297.82C627.653 251.946 581.563 224.957 533.934 207.577C502.046 195.941 468.551 187.944 434.374 183.807C410.662 180.937 385.497 181.194 352.783 184.647C346.08 185.363 339.221 186.205 332.397 187.155C325.95 188.066 319.401 189.109 312.466 190.211C286.862 194.284 257.84 198.901 224.624 198.038C207.117 197.584 189.234 196.341 171.941 195.141C152.287 193.776 131.965 192.364 112.698 192.172C93.3795 191.981 75.322 193.525 59.0412 196.767C0.804878 208.355 -45.3612 234.019 -64.4508 265.416L-64.9923 265.086C-60.0345 256.929 -53.2773 249.096 -44.9099 241.804C-36.833 234.763 -27.2162 228.193 -16.3248 222.27C4.83207 210.765 30.8509 201.728 58.9171 196.144C75.243 192.897 93.34 191.347 112.703 191.538C131.987 191.73 152.321 193.142 171.983 194.509C189.271 195.71 207.145 196.953 224.638 197.407C257.795 198.267 286.786 193.655 312.362 189.588C319.3 188.483 325.854 187.443 332.303 186.529C339.137 185.58 346.001 184.737 352.71 184.018C385.475 180.562 410.681 180.303 434.444 183.181C468.67 187.324 502.213 195.332 534.145 206.985C581.84 224.387 627.978 251.404 688.419 297.318C718.792 320.392 752.702 348.441 798.363 388.263C822.366 409.251 842.891 425.318 862.962 438.831C913.068 472.565 966.233 495.235 1020.98 506.211C1039.92 510.017 1059.64 512.759 1079.58 514.366C1103.87 516.26 1127.79 516.502 1150.69 515.085C1187.8 512.782 1227.53 508.303 1266.64 491.241C1286.46 482.594 1304.01 470.642 1320.28 454.711C1348.44 427.136 1368.87 392.364 1388.62 358.737C1399.49 340.219 1409.77 322.726 1420.83 307.33C1423.73 303.297 1426.67 299.153 1429.51 295.145C1441.01 278.923 1452.9 262.152 1466.3 246.835C1481.15 229.777 1496.71 216.284 1512.55 206.728C1531.12 195.535 1549.67 190.07 1567.69 190.473C1578.68 190.721 1589.8 192.652 1601.68 196.372C1632.3 205.964 1661.72 227.223 1690.17 247.785C1691.48 248.727 1692.78 249.668 1694.08 250.604C1721.43 270.346 1747.78 293.589 1772.39 319.687C1823.41 373.654 1869.39 442.168 1909.05 523.326L1908.49 523.594Z" fill="#A1A1A1"/>
<path d="M1164.76 515.42C1163.18 515.42 1161.62 515.417 1160.08 515.409C1137.28 515.313 1113.34 513.537 1088.93 510.126C1069.03 507.294 1049.41 503.384 1030.62 498.511C1003.77 491.56 976.828 481.57 950.53 468.821C925.134 456.509 899.558 441.243 874.509 423.443C849.966 406.004 827.04 386.572 809.809 371.591C769.492 336.633 731.132 307.415 695.796 284.744C638.563 248.028 587.561 225.644 535.284 214.305C503.746 207.464 469.909 203.856 437.331 203.856C436.826 203.856 436.324 203.856 435.819 203.859C407.832 203.955 381.261 209.152 356.72 214.756C350.332 216.224 343.724 217.828 337.08 219.528C333.439 220.469 329.793 221.439 325.935 222.465C298.723 229.712 267.879 237.923 230.407 237.249C207.587 236.837 184.278 234.475 161.736 232.189C147.182 230.712 132.133 229.187 117.779 228.266C98.0459 227 79.8869 227.406 63.8008 229.478C5.87467 236.93 -42.4432 256.954 -65.4528 283.044L-65.983 282.579C-54.1807 269.199 -36.4277 257.614 -13.2178 248.143C8.94865 239.101 35.5512 232.404 63.7105 228.782C79.839 226.707 98.046 226.295 117.824 227.567C132.192 228.488 147.249 230.016 161.81 231.493C184.337 233.779 207.632 236.141 230.421 236.55C267.797 237.224 298.588 229.024 325.754 221.791C329.615 220.762 333.261 219.793 336.905 218.851C343.555 217.152 350.168 215.545 356.562 214.076C381.145 208.464 407.762 203.258 435.817 203.16C468.914 203.044 503.357 206.663 535.433 213.623C562.414 219.477 588.57 228.094 615.393 239.966C641.226 251.402 667.651 265.856 696.174 284.158C731.539 306.845 769.927 336.086 810.269 371.066C827.486 386.039 850.394 405.457 874.913 422.877C925.74 458.995 978.187 484.214 1030.79 497.837C1049.56 502.705 1069.15 506.609 1089.02 509.439C1113.41 512.844 1137.31 514.619 1160.08 514.712C1195.71 514.859 1237.09 513.658 1277.44 497.409C1297.86 489.184 1315.53 477.156 1331.45 460.641C1359.42 431.637 1377.96 394.411 1395.89 358.408C1405.12 339.889 1413.83 322.396 1423.3 307.254C1426.34 302.403 1429.4 297.405 1432.36 292.571C1442.37 276.24 1452.71 259.356 1464.63 243.749C1478.25 225.794 1492.87 211.23 1508.07 200.462C1525.7 187.978 1543.67 180.993 1561.49 179.702C1572.48 178.905 1583.64 179.719 1595.6 182.194C1627.59 188.807 1659.29 208.019 1691.65 228.813C1719.87 246.942 1747.96 270.042 1772.87 295.616C1800.55 323.941 1826.55 357.17 1850.16 394.38C1871.19 427.53 1890.46 464.021 1907.42 502.84L1906.78 503.122C1870.35 419.756 1825.13 350.106 1772.37 296.109C1747.49 270.571 1719.45 247.506 1691.27 229.407C1658.96 208.65 1627.33 189.475 1595.46 182.885C1583.56 180.424 1572.47 179.615 1561.54 180.407C1528.8 182.783 1494.59 205.429 1465.19 244.177C1453.3 259.756 1442.96 276.626 1432.96 292.941C1430 297.777 1426.94 302.778 1423.9 307.629C1414.45 322.743 1405.74 340.221 1396.53 358.723C1387.73 376.388 1378.63 394.656 1368.19 412.216C1356.35 432.125 1344.51 448.124 1331.96 461.132C1315.97 477.72 1298.22 489.801 1277.7 498.065C1259.61 505.354 1240.15 510.172 1218.24 512.799C1199.68 515.011 1181.04 515.42 1164.76 515.42Z" fill="#A1A1A1"/>
<path d="M1209.99 516.832C1195.61 516.832 1181.79 515.975 1169.43 515.107C1146.71 513.512 1122.78 510.2 1098.31 505.262C1078.49 501.205 1059 496.137 1040.37 490.193C989.355 473.949 938.99 446.909 886.397 407.535C863.461 390.366 841.839 371.892 821.663 354.445C781.831 320.099 742.095 292.25 703.552 271.668C646.867 241.398 593.831 225.306 536.644 221.027C504.06 218.589 469.699 219.584 437.272 223.903C410.131 227.516 384.544 236.237 360.657 244.857C354.681 247.024 348.325 249.392 341.768 251.892C340.129 252.521 338.477 253.161 336.801 253.806C309.291 264.438 278.162 276.468 238.211 276.468C237.537 276.468 236.866 276.465 236.187 276.457C209.158 276.184 181.563 272.328 154.873 268.596C144.292 267.116 133.349 265.588 122.85 264.351C102.342 261.938 84.5804 261.225 68.5478 262.177C10.2353 265.644 -38.9849 279.67 -66.4872 300.667L-66.9581 300.049C-53.3621 289.671 -33.7028 280.66 -10.1121 273.991C13.0921 267.432 40.2757 263.079 68.4998 261.402C84.5775 260.447 102.384 261.16 122.937 263.578C133.448 264.816 144.393 266.346 154.977 267.823C181.642 271.55 209.212 275.403 236.189 275.676C276.972 276.093 308.608 263.863 336.517 253.076C338.189 252.43 339.844 251.791 341.483 251.159C348.045 248.656 354.405 246.289 360.386 244.121C384.313 235.485 409.948 226.752 437.162 223.127C469.639 218.803 504.057 217.806 536.694 220.247C565.034 222.366 592.054 227.372 619.297 235.547C647.355 243.966 675.032 255.554 703.91 270.977C742.501 291.588 782.288 319.47 822.162 353.85C842.329 371.292 863.937 389.754 886.854 406.906C939.377 446.227 989.666 473.227 1040.6 489.446C1059.2 495.379 1078.67 500.441 1098.45 504.492C1122.89 509.425 1146.79 512.734 1169.48 514.324C1207.66 517.001 1248.27 518.377 1288.23 503.559C1309.25 495.76 1327.05 483.656 1342.62 466.555C1370.36 436.094 1387.63 394.543 1402.87 357.883C1410.54 339.438 1417.78 322.016 1425.77 307.164C1428.65 301.806 1431.55 296.267 1434.36 290.911C1443.13 274.154 1452.21 256.828 1462.95 240.646C1475.38 221.794 1489.05 206.159 1503.59 194.174C1520.28 180.41 1537.67 171.909 1555.27 168.913C1566.28 167.038 1577.48 166.739 1589.51 167.991C1623.14 171.495 1657.31 188.807 1689.22 206.996C1718.69 223.79 1747.78 246.103 1773.35 271.521C1801.8 299.714 1828.01 333.276 1851.26 371.269C1872.04 405.246 1890.39 442.61 1905.79 482.331L1905.07 482.61C1872.33 398.179 1826.6 325.375 1772.81 272.068C1747.29 246.697 1718.25 224.427 1688.84 207.667C1657.01 189.52 1622.93 172.25 1589.44 168.76C1577.47 167.515 1566.34 167.813 1555.41 169.674C1522.91 175.207 1490.31 200.561 1463.6 241.068C1452.88 257.217 1443.82 274.526 1435.05 291.266C1432.24 296.625 1429.34 302.163 1426.46 307.527C1418.48 322.345 1411.25 339.751 1403.59 358.177C1388.33 394.893 1371.03 436.511 1343.2 467.074C1327.53 484.268 1309.64 496.439 1288.5 504.283C1270.15 511.088 1250.36 515.028 1227.99 516.322C1221.94 516.688 1215.92 516.832 1209.99 516.832Z" fill="#A1A1A1"/>
<path d="M1238.37 519.885C1238.16 519.885 1237.96 519.885 1237.76 519.885C1217.43 519.834 1197.48 517.348 1178.78 514.805C1156.09 511.722 1132.18 506.871 1107.69 500.393C1087.97 495.12 1068.6 488.887 1050.12 481.875C1001.15 463.308 952.905 434.633 898.292 391.628C878.625 376.145 859.27 359.473 840.55 343.353C838.209 341.335 835.865 339.319 833.522 337.304C793.484 302.967 752.369 276.485 711.321 258.598C655.113 234.106 598.425 224.015 538.017 227.75C504.894 229.799 470.564 235.4 438.739 243.946C413.628 250.691 391.253 261.512 364.608 274.957C359.207 277.694 353.44 280.648 346.463 284.256L346.074 284.459C332.613 291.466 317.356 299.407 300.243 305.444C280.59 312.378 261.523 315.715 241.971 315.676C211.482 315.6 180.367 309.929 150.279 304.441C142.907 303.096 135.281 301.707 127.92 300.449C106.812 296.85 88.943 295.032 73.2939 294.894C15.6724 294.386 -35.6602 302.921 -67.5392 318.306L-67.9059 317.545C-52.2907 310.008 -31.2269 303.891 -6.99324 299.855C17.2855 295.81 45.0528 293.803 73.3024 294.051C88.9966 294.189 106.91 296.01 128.064 299.618C135.431 300.875 143.056 302.265 150.431 303.609C180.483 309.089 211.558 314.754 241.973 314.83C242.109 314.83 242.247 314.83 242.382 314.83C285.889 314.83 319.034 297.58 345.685 283.709L346.077 283.506C353.057 279.896 358.824 276.942 364.227 274.205C390.917 260.737 413.332 249.896 438.522 243.131C470.401 234.568 504.787 228.959 537.966 226.907C567.527 225.08 595.41 226.473 623.214 231.169C653.175 236.228 682.107 244.947 711.66 257.825C752.786 275.746 793.972 302.27 834.075 336.664C836.418 338.679 838.762 340.698 841.102 342.716C859.814 358.83 879.163 375.497 898.814 390.969C953.356 433.92 1001.53 462.555 1050.42 481.091C1068.87 488.095 1088.21 494.316 1107.91 499.584C1132.36 506.053 1156.24 510.896 1178.9 513.974C1219.47 519.493 1259.19 523.321 1299.04 509.746C1320.66 502.378 1338.58 490.198 1353.8 472.508C1381.3 440.553 1396.32 396.274 1409.57 357.204C1415.77 338.913 1421.64 321.635 1428.25 307.116C1430.79 301.529 1433.34 295.751 1435.81 290.161C1443.53 272.685 1451.5 254.618 1461.29 237.581C1472.55 217.825 1485.27 201.116 1499.11 187.919C1514.88 172.878 1531.69 162.866 1549.07 158.165C1559.85 155.25 1570.84 153.83 1582.66 153.83C1582.91 153.83 1583.17 153.83 1583.43 153.832C1620.17 154.024 1657.97 170.705 1686.8 185.216C1717.52 200.676 1747.62 222.2 1773.85 247.461C1803.07 275.524 1829.49 309.416 1852.36 348.198C1872.89 383 1890.32 421.242 1904.17 461.865L1903.37 462.138C1882.77 401.694 1843.47 315.493 1773.26 248.073C1747.09 222.868 1717.06 201.395 1686.42 185.971C1657.67 171.5 1619.99 154.867 1583.43 154.678C1571.39 154.608 1560.23 156.023 1549.29 158.982C1517.09 167.695 1486.1 195.758 1462.02 238.001C1452.26 254.998 1444.29 273.046 1436.58 290.502C1434.11 296.095 1431.56 301.876 1429.02 307.465C1422.42 321.948 1416.57 339.204 1410.37 357.474C1397.09 396.615 1382.05 440.978 1354.44 473.058C1339.12 490.866 1321.09 503.127 1299.31 510.543C1280.86 516.826 1260.92 519.885 1238.37 519.885Z" fill="#A1A1A1"/>
<path d="M1260.94 523.854C1256.56 523.854 1252.09 523.713 1247.51 523.431C1227.46 522.199 1207.98 518.504 1188.13 514.501C1165.11 509.862 1141.87 503.655 1117.07 495.526C1097.45 489.037 1078.2 481.647 1059.88 473.554C1013.38 453.057 967.214 422.883 910.188 375.72C896.025 364.009 881.867 351.725 868.176 339.844C860.722 333.378 853.017 326.689 845.383 320.158C804.869 285.59 762.38 260.481 719.096 245.525C661.906 225.763 603.128 222.144 539.398 234.462C505.729 240.97 471.43 251.176 440.213 263.976C415.137 274.259 393.292 288.699 370.163 303.988L368.564 305.045C364.952 307.44 361.3 309.87 357.602 312.328C355.473 313.746 353.33 315.172 351.167 316.61C337.681 325.621 323.115 335.021 306.411 342.257C287.017 350.657 267.834 354.789 247.76 354.89C214.341 355.054 180.254 347.291 147.292 339.776C142.588 338.703 137.72 337.595 132.996 336.543C110.85 331.611 93.39 328.772 78.0427 327.605C21.4082 323.301 -32.0394 326.334 -68.6 335.929L-68.8341 335.044C-32.1777 325.424 21.38 322.379 78.1132 326.692C93.5028 327.862 111.008 330.709 133.197 335.65C137.923 336.704 142.791 337.812 147.498 338.886C180.056 346.307 213.712 353.977 246.688 353.977C247.044 353.977 247.399 353.977 247.757 353.974C290.409 353.76 320.771 335.816 350.662 315.849C352.825 314.411 354.968 312.985 357.098 311.567C360.795 309.106 364.444 306.679 368.06 304.281L369.659 303.224C392.826 287.91 414.708 273.444 439.866 263.128C471.139 250.303 505.497 240.079 539.226 233.56C603.117 221.211 662.053 224.841 719.398 244.657C762.789 259.652 805.376 284.818 845.981 319.462C853.615 325.996 861.323 332.682 868.776 339.151C882.462 351.029 896.617 363.31 910.771 375.013C967.73 422.122 1013.83 452.254 1060.25 472.717C1078.55 480.796 1097.76 488.178 1117.36 494.655C1142.12 502.773 1165.33 508.971 1188.31 513.602C1223.2 520.635 1266.61 529.39 1309.85 515.905C1332.08 508.974 1350.11 496.718 1364.98 478.436C1392.21 444.95 1404.83 397.853 1415.97 356.302C1420.81 338.252 1425.39 321.201 1430.72 307.051C1432.8 301.538 1434.88 295.836 1436.9 290.32C1443.65 271.821 1450.64 252.693 1459.62 234.501C1469.74 213.826 1481.52 196.043 1494.63 181.645C1509.49 165.33 1525.71 153.81 1542.86 147.404C1553.86 143.291 1565.14 140.757 1577.34 139.655C1593.67 138.178 1611.06 139.756 1630.49 144.469C1646.93 148.461 1664.56 154.656 1684.38 163.414C1716.34 177.538 1747.45 198.275 1774.34 223.381C1804.34 251.312 1830.96 285.539 1853.47 325.108C1873.73 360.739 1890.25 399.857 1902.54 441.379L1901.66 441.638C1875.7 353.977 1830.26 276.703 1773.71 224.052C1746.9 199.014 1715.88 178.336 1684.01 164.254C1641.3 145.385 1607.44 137.857 1577.42 140.568C1565.31 141.662 1554.11 144.179 1543.18 148.26C1502.38 163.501 1475.67 203.791 1460.44 234.904C1451.49 253.051 1444.51 272.156 1437.76 290.633C1435.74 296.152 1433.66 301.857 1431.58 307.373C1426.26 321.48 1421.69 338.511 1416.86 356.539C1405.7 398.18 1393.04 445.376 1365.69 479.014C1350.7 497.44 1332.53 509.794 1310.12 516.782C1294.93 521.517 1278.74 523.854 1260.94 523.854Z" fill="#A1A1A1"/>
<path d="M1280.49 528.403C1250.67 528.403 1222 520.744 1197.47 514.194C1174.39 508.032 1151.16 500.332 1126.44 490.655C1106.93 482.96 1087.81 474.408 1069.62 465.233C1015.1 437.762 966.484 398.332 922.078 359.811C913.011 351.947 903.851 343.841 894.996 336.002C882.7 325.116 869.984 313.861 857.242 303.015C816.122 268.105 772.26 244.363 726.878 232.449C668.17 217.039 607.297 219.889 540.781 241.164C506.533 252.118 472.268 266.93 441.689 284C418.104 297.163 398.148 313.782 377.023 331.376C375.525 332.622 374.025 333.874 372.516 335.125L371.698 335.807C366.563 340.089 361.252 344.514 355.869 348.957C342.969 359.648 328.764 370.706 312.334 379.153C293.261 388.959 274.033 393.85 253.545 394.104C217.582 394.552 180.928 384.447 145.485 374.674C143 373.989 140.527 373.307 138.065 372.634C114.691 366.224 97.6406 362.424 82.784 360.31C27.5709 352.457 -27.9975 349.988 -69.6738 353.537L-69.7584 352.553C-28.0144 348.996 27.6358 351.468 82.9222 359.332C97.8211 361.452 114.908 365.26 138.324 371.681C140.786 372.354 143.26 373.037 145.747 373.724C181.123 383.477 217.706 393.557 253.531 393.117C298.024 392.565 329.359 369.64 355.237 348.195C360.621 343.753 365.931 339.328 371.066 335.049L371.884 334.367C373.393 333.113 374.893 331.864 376.391 330.618C397.553 312.993 417.543 296.346 441.207 283.137C471.842 266.036 506.172 251.199 540.479 240.226C572.014 230.14 601.634 224.317 631.029 222.423C663.819 220.311 696.149 223.364 727.126 231.496C772.652 243.447 816.643 267.257 857.88 302.262C870.63 313.114 883.349 324.372 895.647 335.261C904.503 343.099 913.657 351.203 922.721 359.064C967.082 397.542 1015.63 436.931 1070.06 464.351C1088.23 473.512 1107.32 482.052 1126.8 489.736C1151.48 499.399 1174.68 507.088 1197.72 513.241C1233.1 522.689 1277.14 534.449 1320.65 522.075C1343.48 515.581 1361.63 503.249 1376.14 484.375C1403.09 449.313 1413.17 399.318 1422.07 355.206C1425.65 337.482 1429.02 320.741 1433.18 306.995C1434.72 301.91 1436.27 296.656 1437.76 291.574C1443.61 271.696 1449.66 251.139 1457.93 231.428C1466.93 209.817 1477.77 190.955 1490.13 175.37C1504.08 157.784 1519.72 144.756 1536.63 136.647C1547.61 131.382 1558.93 127.732 1571.23 125.485C1587.8 122.461 1606.19 122.562 1625.88 125.787C1643.13 128.611 1661.99 133.935 1681.93 141.616C1715.14 154.405 1747.26 174.353 1774.81 199.304C1805.59 227.105 1832.42 261.662 1854.56 302.02C1874.56 338.479 1890.15 378.477 1900.91 420.898L1899.95 421.14C1877.17 331.252 1832.49 252.729 1774.15 200.037C1746.69 175.167 1714.68 155.284 1681.58 142.538C1638.68 126.018 1602.64 120.755 1571.41 126.458C1559.2 128.687 1547.96 132.312 1537.06 137.538C1496.83 156.832 1472.32 199.45 1458.84 231.809C1450.59 251.469 1444.55 271.998 1438.71 291.85C1437.22 296.932 1435.67 302.189 1434.13 307.279C1429.98 320.981 1426.61 337.699 1423.04 355.4C1418.76 376.622 1413.91 400.674 1406.86 423.223C1398.8 449.06 1389 469.258 1376.92 484.975C1369.94 494.063 1361.91 501.797 1353.06 507.965C1343.55 514.597 1332.73 519.665 1320.92 523.025C1307.4 526.872 1293.83 528.403 1280.49 528.403Z" fill="#A1A1A1"/>
<path d="M1298.12 533.395C1288.26 533.395 1277.93 532.436 1267.02 530.522C1245.53 526.754 1224.96 519.916 1206.81 513.886C1183.93 506.284 1160.05 496.828 1135.82 485.781C1116.43 476.891 1097.44 467.178 1079.37 456.907C1027.51 427.46 982.841 388.305 933.967 343.9C929.624 339.953 925.214 335.928 920.949 332.033C904.155 316.702 886.792 300.85 869.101 285.871C827.298 250.553 782.065 228.181 734.658 219.375C674.859 208.267 610.092 217.851 542.162 247.864C507.305 263.265 473.071 282.68 443.163 304.015C420.645 320.079 402.108 339.018 382.482 359.07C380.488 361.108 378.486 363.151 376.472 365.203C371.461 370.316 366.063 375.804 360.572 381.298C349.058 392.857 335.024 406.029 318.259 416.044C299.49 427.257 280.215 432.908 259.334 433.317C221.11 434.07 182.2 421.419 144.571 409.186L143.138 408.721C124.714 402.734 105.224 396.685 87.53 393.013C33.5972 381.819 -22.6114 374.048 -70.7374 371.131L-70.6726 370.077C-22.4958 372.997 33.7636 380.774 87.7443 391.978C105.489 395.662 125.013 401.719 143.465 407.715L144.898 408.18C182.445 420.385 221.276 433.004 259.314 432.257C303.244 431.395 333.583 406.895 359.825 380.545C365.316 375.055 370.708 369.567 375.719 364.456C377.733 362.407 379.735 360.361 381.729 358.326C401.388 338.24 419.959 319.267 442.552 303.15C472.516 281.773 506.815 262.321 541.737 246.892C573.607 232.812 604.97 223.11 634.948 218.059C669.202 212.289 702.816 212.379 734.856 218.33C782.443 227.169 827.842 249.62 869.786 285.059C887.491 300.052 904.863 315.91 921.666 331.249C925.93 335.142 930.341 339.167 934.684 343.113C983.509 387.477 1028.14 426.589 1079.9 455.985C1097.94 466.239 1116.9 475.938 1136.26 484.817C1160.46 495.847 1184.3 505.289 1207.15 512.88C1242.96 524.781 1287.52 539.587 1331.46 528.242C1354.9 522.19 1373.17 509.785 1387.32 490.314C1413.97 453.628 1421.68 398.334 1427.88 353.903C1430.3 336.596 1432.57 320.251 1435.67 306.947C1436.64 302.752 1437.62 298.431 1438.57 294.251C1443.51 272.536 1448.62 250.079 1456.27 228.364C1468.1 194.571 1490.56 149.365 1530.42 125.905C1541.43 119.427 1552.79 114.658 1565.14 111.327C1597.46 102.484 1635.94 105.345 1679.51 119.825C1713.96 131.277 1747.09 150.436 1775.3 175.232C1806.86 202.9 1833.9 237.79 1855.67 278.94C1865.66 297.814 1874.48 317.973 1881.9 338.857C1888.99 358.805 1894.84 379.519 1899.29 400.426L1898.25 400.646C1878.66 308.525 1834.75 228.753 1774.6 176.024C1746.49 151.321 1713.5 132.236 1679.17 120.826C1635.81 106.411 1597.53 103.558 1565.42 112.344C1553.15 115.65 1541.88 120.383 1530.96 126.812C1491.37 150.109 1469.04 195.084 1457.27 228.711C1449.63 250.37 1444.53 272.795 1439.6 294.482C1438.65 298.662 1437.67 302.986 1436.69 307.183C1433.62 320.442 1431.34 336.766 1428.93 354.047C1425.81 376.405 1422.28 401.745 1416.23 425.661C1409.29 453.144 1400.11 474.495 1388.17 490.934C1381.36 500.312 1373.39 508.221 1364.49 514.439C1354.9 521.139 1343.87 526.128 1331.73 529.262C1321.06 532.019 1309.93 533.395 1298.12 533.395Z" fill="#A1A1A1"/>
<path d="M1314.36 538.666C1302.55 538.666 1290.08 537.135 1276.77 534.066C1255.2 529.097 1234.45 520.849 1216.15 513.571C1193.1 504.41 1169.22 493.42 1145.19 480.903C1125.93 470.826 1107.06 459.951 1089.11 448.578C1039.73 417.304 997.369 376.997 952.523 334.328C950.303 332.217 948.084 330.103 945.859 327.988C925.004 308.167 903.441 287.67 880.961 268.728C838.43 232.962 791.827 211.957 742.446 206.297C680.42 199.186 613.5 215.424 543.543 254.556C508.55 274.129 473.425 298.801 444.637 324.025C422.899 343.071 405.465 364.502 387.007 387.192C384.822 389.879 382.63 392.573 380.422 395.274C376.011 400.677 370.763 407.084 365.269 413.637C355.094 425.806 341.23 441.269 324.18 452.902C305.71 465.504 286.392 471.928 265.12 472.534C247.635 472.971 228.339 470.273 206.128 464.284C187.058 459.142 168.611 452.422 148.199 444.812C129.566 437.779 109.901 430.516 92.2582 425.718C39.9978 411.506 -15.204 399.062 -71.8103 388.723L-71.6073 387.615C-14.9672 397.957 40.2657 410.413 92.5543 424.63C110.245 429.442 129.938 436.717 148.594 443.755C182.808 456.515 225.389 472.401 265.089 471.406C310.477 470.11 339.645 442.526 364.404 412.91C369.895 406.362 375.14 399.958 379.548 394.558C381.756 391.857 383.947 389.163 386.13 386.479C404.619 363.752 422.084 342.285 443.893 323.177C472.74 297.902 507.933 273.182 542.993 253.572C613.162 214.322 680.312 198.041 742.576 205.178C766.449 207.915 789.898 214.271 812.268 224.069C836.27 234.58 859.627 249.319 881.689 267.869C904.194 286.83 925.771 307.339 946.637 327.174C948.862 329.291 951.084 331.402 953.304 333.513C998.108 376.146 1040.43 416.414 1089.72 447.628C1107.64 458.984 1126.48 469.845 1145.71 479.905C1169.71 492.403 1193.55 503.379 1216.57 512.525C1252.74 526.901 1297.76 544.791 1342.27 534.415C1366.38 528.795 1384.77 516.314 1398.48 496.262C1424.9 457.961 1429.6 399.454 1433.39 352.443C1434.74 335.63 1436.02 319.749 1438.13 306.908C1438.57 304.258 1439.01 301.594 1439.45 298.917C1443.4 274.729 1447.49 249.716 1454.6 225.306C1464.75 190.197 1485.06 142.589 1524.2 115.169C1535.12 107.519 1546.51 101.634 1559.03 97.1743C1576.44 90.9197 1595.83 87.9798 1616.68 88.4308C1635.71 88.8423 1656.03 92.0753 1677.07 98.0369C1712.76 108.148 1746.9 126.517 1775.78 151.158C1808.12 178.691 1835.37 213.919 1856.76 255.858C1866.58 275.101 1875.09 295.675 1882.04 317.007C1888.69 337.437 1893.95 358.616 1897.65 379.957L1896.54 380.148C1880.4 287.157 1836.11 204.006 1775.05 152.015C1746.29 127.481 1712.3 109.188 1676.76 99.1164C1632.93 86.6973 1592.35 86.3928 1559.41 98.2313C1546.98 102.657 1535.68 108.497 1524.84 116.088C1485.97 143.319 1465.78 190.682 1455.68 225.616C1448.59 249.962 1444.51 274.938 1440.56 299.094C1440.12 301.772 1439.68 304.438 1439.25 307.088C1437.13 319.882 1435.86 335.743 1434.51 352.531C1430.71 399.676 1426 458.353 1399.41 496.899C1392.8 506.564 1384.9 514.654 1375.92 520.936C1366.26 527.696 1355.02 532.6 1342.53 535.515C1333.5 537.612 1324.16 538.666 1314.36 538.666Z" fill="#A1A1A1"/>
<path d="M1329.63 544.154C1316.16 544.154 1301.9 541.978 1286.53 537.609C1264.78 531.428 1243.9 521.774 1225.48 513.258C1202.2 502.497 1178.34 489.968 1154.56 476.026C1135.43 464.78 1116.69 452.741 1098.85 440.251C1054.92 409.505 1017.38 371.839 977.629 331.96C971.131 325.441 964.41 318.701 957.744 312.074C934.308 288.792 914.296 269.594 892.815 251.585C849.526 215.345 801.555 195.707 750.231 193.216C685.739 190.084 616.659 212.972 544.914 261.242C509.273 285.223 474.179 314.622 446.099 344.027C424.945 366.179 408.407 390.293 390.9 415.822C388.731 418.984 386.554 422.158 384.363 425.335C380.46 431.003 375.293 438.473 369.96 445.962C347.517 477.554 318.196 510.079 270.899 511.742C269.424 511.79 267.944 511.812 266.466 511.812C229.533 511.812 191.827 497.203 153.253 480.891L150.845 479.865C131.738 471.714 113.689 464.016 96.9827 458.412C34.0226 437.295 -26.8675 419.469 -72.8812 406.3L-72.5513 405.147C-26.5262 418.322 34.3808 436.15 97.3634 457.276C114.115 462.894 132.184 470.603 151.316 478.763L153.721 479.789C193.709 496.699 232.759 511.781 270.857 510.547C317.629 508.901 346.705 476.627 368.982 445.272C374.312 437.788 379.473 430.324 383.376 424.658C385.567 421.479 387.741 418.308 389.91 415.145C407.446 389.577 424.008 365.424 445.23 343.201C473.367 313.735 508.531 284.276 544.243 260.247C577.389 237.946 610.545 220.822 642.791 209.347C679.789 196.181 715.957 190.352 750.287 192.018C801.876 194.521 850.09 214.254 893.582 250.663C915.094 268.7 935.126 287.918 958.584 311.22C965.254 317.847 971.974 324.589 978.475 331.109C1018.19 370.948 1055.69 408.578 1099.54 439.262C1117.35 451.738 1136.07 463.757 1155.16 474.986C1178.91 488.911 1202.73 501.42 1225.98 512.165C1262.46 529.035 1307.88 550.028 1353.07 540.577C1377.78 535.41 1396.28 522.856 1409.64 502.198C1435.73 462.153 1437.29 400.353 1438.56 350.696C1438.97 334.494 1439.36 319.189 1440.6 306.857L1440.63 306.575C1443.42 278.96 1446.3 250.407 1452.92 222.234C1458.64 197.661 1466.62 175.568 1476.62 156.564C1487.91 135.139 1501.81 117.596 1517.97 104.418C1528.78 95.6016 1540.21 88.5971 1552.92 83.0077C1587.26 67.8177 1629.34 65.4726 1674.62 76.2315C1692.84 80.5611 1710.81 87.1201 1728.04 95.7228C1745.37 104.376 1761.59 114.927 1776.26 127.075C1809.38 154.476 1836.84 190.036 1857.86 232.77C1876.76 271.181 1889.96 314.997 1896.02 359.479L1894.83 359.64C1881.86 264.436 1838.36 180.004 1775.49 127.997C1746.09 103.638 1711.11 86.1392 1674.34 77.4041C1629.33 66.7072 1587.51 69.027 1553.41 84.1126C1540.79 89.6598 1529.46 96.6079 1518.73 105.354C1488.57 129.959 1466.22 170.472 1454.09 222.513C1447.49 250.613 1444.61 279.127 1441.82 306.702L1441.8 306.984C1440.55 319.27 1440.17 334.553 1439.75 350.733C1438.49 400.542 1436.91 462.528 1410.65 502.855C1404.21 512.816 1396.36 521.08 1387.33 527.417C1377.59 534.249 1366.15 539.072 1353.32 541.758C1345.67 543.354 1337.8 544.154 1329.63 544.154Z" fill="#A1A1A1"/>
<path d="M271.777 551.057C255.262 551.057 237.278 547.841 216.981 541.273C196.814 534.748 176.87 525.74 158.319 516.979C154.96 515.384 151.627 513.791 148.316 512.21C131.835 504.337 116.268 496.902 101.718 491.109C43.7048 468.021 -11.5928 447.27 -65.0715 427.207L-73.9325 423.881L-73.4869 422.694L-64.626 426.02C-11.1444 446.089 44.1617 466.84 102.187 489.934C116.775 495.74 132.362 503.184 148.863 511.068C152.171 512.65 155.504 514.242 158.86 515.835C196.941 533.818 237.399 551.246 276.639 549.693C324.875 547.686 353.781 510.13 373.573 477.639C378.644 469.329 383.529 461.048 387.217 454.762C389.253 451.298 391.276 447.837 393.292 444.384C410.015 415.76 425.811 388.723 446.584 363.231C474.005 329.587 509.136 295.385 545.51 266.93C579.256 240.53 613.31 219.672 646.729 204.936C685.06 188.032 722.501 179.26 758.009 178.863C811.44 178.068 861.066 196.44 905.489 233.464C930.115 254.012 952.194 276.24 970.548 295.275C980.534 305.634 990.52 316.252 1000.18 326.52C1034.37 362.873 1069.72 400.46 1109.37 430.905C1127.08 444.508 1145.67 457.688 1164.62 470.076C1188.07 485.373 1211.88 499.416 1235.4 511.812C1272.17 531.188 1317.92 555.302 1363.88 546.744C1389.18 542.034 1407.81 529.407 1420.81 508.14C1446.55 466.279 1444.81 401.094 1443.42 348.717C1443 333.229 1442.61 318.597 1443.08 306.817C1444.14 280.263 1445.73 249.401 1451.25 219.173C1455.9 193.56 1462.93 170.387 1472.12 150.301C1482.53 127.58 1495.86 108.531 1511.75 93.6821C1522.28 83.842 1534.08 75.4902 1546.82 68.855C1565 59.356 1585.4 53.3832 1607.45 51.1057C1628.11 48.972 1649.89 50.0938 1672.18 54.4374C1690.98 58.1017 1709.51 64.1281 1727.26 72.353C1745.12 80.6287 1761.77 90.9395 1776.74 102.998C1794.01 116.883 1809.88 133.279 1823.92 151.733C1837.23 169.217 1849.02 188.717 1858.97 209.688C1877.59 248.922 1889.84 293.643 1894.4 339.01L1893.13 339.137C1883.35 241.714 1840.63 156.006 1775.95 103.987C1746.32 80.1354 1709.38 62.9809 1671.94 55.6833C1625.63 46.6606 1582.57 51.6046 1547.41 69.9797C1534.77 76.5613 1523.07 84.8483 1512.62 94.6094C1482.68 122.588 1462.45 164.572 1452.5 219.401C1446.99 249.547 1445.4 280.356 1444.35 306.868C1443.88 318.605 1444.27 333.214 1444.68 348.683C1445.37 374.522 1446.15 403.811 1443.54 432.125C1440.5 464.98 1433.42 490.061 1421.9 508.802C1415.63 519.056 1407.84 527.498 1398.75 533.891C1388.94 540.797 1377.28 545.541 1364.12 547.99C1357.48 549.228 1350.84 549.789 1344.24 549.789C1304.74 549.789 1266.46 529.612 1234.81 512.931C1211.26 500.515 1187.41 486.453 1163.93 471.133C1144.95 458.728 1126.34 445.528 1108.6 431.905C1068.87 401.399 1033.48 363.772 999.257 327.385C989.601 317.12 979.617 306.505 969.637 296.152C951.309 277.139 929.261 254.942 904.68 234.433C860.497 197.607 811.161 179.342 758.029 180.126C674.589 181.061 596.831 228.385 546.294 267.922C509.993 296.321 474.933 330.449 447.572 364.026C426.86 389.442 411.087 416.436 394.389 445.015C392.373 448.468 390.348 451.929 388.312 455.396C384.62 461.685 379.733 469.972 374.659 478.29C366.351 491.929 353.308 511.784 336.031 526.667C327.641 533.894 318.713 539.574 309.494 543.551C299.214 547.985 288.176 550.476 276.692 550.953C275.065 551.023 273.427 551.057 271.777 551.057Z" fill="#A1A1A1"/>
<path d="M277.078 590.299C260.544 590.299 242.596 586.834 222.407 579.765C201.504 572.448 180.838 562.159 163.381 553.058C158.017 550.256 152.664 547.415 147.486 544.667C133.013 536.986 119.341 529.728 106.45 523.803C60.1573 502.522 14.1662 481.745 -30.3134 461.651C-45.0262 455.004 -60.2381 448.132 -74.9819 441.458L-74.4292 440.237C-59.6854 446.912 -44.4734 453.784 -29.7607 460.43C14.7189 480.525 60.7157 501.304 107.011 522.588C119.936 528.53 133.625 535.793 148.115 543.486C153.29 546.234 158.643 549.072 164.001 551.874C200.207 570.742 242.202 590.716 282.414 588.836C331.787 586.474 359.517 545.464 378.164 510.002C382.944 500.918 387.567 491.797 391.058 484.865C392.852 481.308 394.634 477.754 396.414 474.208C412.409 442.314 427.517 412.191 447.941 383.263C474.504 345.639 509.606 306.699 546.776 273.616C598.54 227.742 678.545 171.785 765.728 165.716C821.172 161.753 872.203 178.761 917.396 216.272C937.701 233.134 957.781 252.583 982.508 279.34C995.004 292.862 1007.4 306.876 1019.4 320.426C1050.59 355.679 1082.85 392.133 1119.2 422.561C1136.81 437.306 1155.27 451.644 1174.08 465.18C1196.85 481.553 1220.65 497.129 1244.83 511.477C1281.96 533.381 1328.17 560.646 1374.69 552.928C1400.2 548.785 1419.47 535.72 1431.98 514.101C1457.36 470.346 1451.92 398.763 1447.94 346.496C1446.82 331.827 1445.77 317.973 1445.56 306.797C1445.1 281.959 1445.14 249.209 1449.59 216.131C1457.26 158.813 1476.09 114.007 1505.54 82.965C1515.86 72.0285 1527.7 62.5267 1540.72 54.7218C1559.24 43.6049 1580.14 36.1269 1602.84 32.4992C1624.23 29.083 1646.73 29.1365 1669.74 32.6599C1689.15 35.6984 1708.23 41.2061 1726.47 49.0252C1744.88 56.9232 1761.96 66.9859 1777.23 78.9343C1794.88 92.7403 1811 109.193 1825.15 127.839C1838.56 145.509 1850.31 165.285 1860.08 186.622C1878.41 226.682 1889.71 272.305 1892.77 318.56L1891.44 318.647C1884.85 219.001 1842.92 132.013 1776.4 79.9913C1746.24 56.3904 1708.29 40.0505 1669.54 33.9847C1621.76 26.6702 1577.45 34.2383 1541.41 55.8718C1528.5 63.6119 1516.76 73.0376 1506.52 83.8868C1477.26 114.723 1458.55 159.275 1450.92 216.312C1446.48 249.299 1446.44 281.984 1446.9 306.775C1447.11 317.911 1448.16 331.748 1449.28 346.397C1451.33 373.414 1453.66 404.039 1452.33 433.937C1450.78 468.751 1444.5 495.193 1433.14 514.775C1427.03 525.336 1419.31 533.961 1410.17 540.411C1400.27 547.404 1388.41 552.06 1374.92 554.253C1353.99 557.723 1331.47 554.605 1306.06 544.72C1283.98 536.126 1262.82 523.645 1244.15 512.635C1219.94 498.268 1196.1 482.67 1173.3 466.273C1154.47 452.718 1135.98 438.36 1118.34 423.595C1081.92 393.106 1049.62 356.612 1018.39 321.322C1006.41 307.775 994.011 293.769 981.526 280.259C956.841 253.549 936.799 234.137 916.541 217.315C871.616 180.018 820.91 163.112 765.818 167.049C679.011 173.096 599.271 228.88 547.662 274.616C510.565 307.632 475.536 346.49 449.029 384.035C428.662 412.882 413.577 442.963 397.606 474.808C395.827 478.357 394.045 481.911 392.251 485.469C388.757 492.405 384.132 501.535 379.346 510.628C360.535 546.406 332.526 587.781 282.473 590.174C280.694 590.256 278.892 590.299 277.078 590.299Z" fill="#A1A1A1"/>
<path d="M282.487 629.544C237.308 629.544 189.904 601.81 147.881 577.223C134.967 569.669 122.77 562.532 111.179 556.497L-76.0312 459.035L-75.3798 457.787L111.831 555.248C123.453 561.297 135.664 568.443 148.595 576.008C192.242 601.545 241.716 630.491 288.19 627.982C338.651 625.262 365.234 580.8 382.755 542.373C388.486 529.804 394.019 517.016 399.372 504.647C414.011 470.823 429.147 435.846 449.291 403.293C465.287 377.445 485.158 350.338 506.755 324.905C530.447 297.003 555.814 271.403 582.146 248.82C611.18 223.923 640.701 203.326 669.887 187.607C702.169 170.221 733.972 158.87 764.419 153.867C825.41 143.846 880.883 159.053 929.291 199.07C969.521 232.322 1003.71 273.441 1036.78 313.207C1065.56 347.821 1095.32 383.61 1129.02 414.204C1167.95 449.539 1210.08 482.148 1254.25 511.122C1291.46 535.534 1337.77 565.92 1385.5 559.09C1425.81 553.323 1449.12 526.365 1456.75 476.672C1463.25 434.403 1457.07 384.261 1452.11 343.973C1450.42 330.244 1448.82 317.275 1448.04 306.758C1443.71 248.783 1446.47 200.925 1456.47 160.451C1462.7 135.199 1471.91 112.689 1483.82 93.5468C1497.13 72.1642 1514.22 54.3388 1534.61 40.5667C1552.25 28.6521 1572.13 19.9987 1593.7 14.8461C1614.23 9.94159 1635.85 8.2983 1657.96 9.96133C1701.43 13.231 1743.96 29.1735 1777.7 54.849C1795.73 68.5732 1812.11 85.0851 1826.37 103.922C1839.88 121.776 1851.59 141.831 1861.17 163.535C1879.21 204.42 1889.57 250.948 1891.13 298.085L1889.72 298.133C1886.4 197.754 1844.2 107.226 1776.84 55.9736C1705.31 1.54471 1603.77 -4.445 1535.39 41.7364C1467.67 87.4838 1439.55 174.139 1449.44 306.654C1450.22 317.137 1451.82 330.089 1453.51 343.801C1458.48 384.176 1464.67 434.425 1458.14 476.886C1454.59 500.013 1447.45 518.6 1436.92 532.132C1431 539.74 1423.86 545.958 1415.7 550.609C1407.02 555.558 1396.93 558.882 1385.7 560.488C1381.11 561.145 1376.44 561.475 1371.7 561.475C1354.4 561.475 1335.98 557.103 1315.79 548.247C1293.05 538.269 1271.1 523.871 1253.47 512.303C1209.24 483.287 1167.05 450.635 1128.07 415.25C1094.29 384.591 1064.5 348.76 1035.69 314.109C1002.66 274.394 968.514 233.326 928.386 200.158C880.302 160.415 825.21 145.306 764.639 155.259C642.114 175.39 515.901 298.33 450.481 404.037C430.391 436.5 415.274 471.429 400.655 505.208C395.299 517.582 389.763 530.379 384.027 542.959C372.394 568.471 360.905 586.739 347.87 600.443C339.734 608.995 330.907 615.737 321.634 620.481C311.323 625.755 300.094 628.754 288.254 629.394C286.342 629.493 284.416 629.544 282.487 629.544Z" fill="#A1A1A1"/>
</g>
</svg>
