<svg width="1440" height="434" viewBox="0 0 1440 434" fill="none" xmlns="http://www.w3.org/2000/svg">
<g opacity="0.3">
<path d="M488.505 433.345C481.401 433.345 474.487 432.992 467.843 432.286C453.908 430.804 441.033 427.763 429.577 423.245C417.263 418.391 406.463 411.776 397.474 403.586C379.409 387.123 370.371 367.408 361.629 348.341C359.912 344.597 358.136 340.726 356.334 336.97C344.034 311.369 328.441 288.944 308.669 268.413C269.227 227.458 213.758 192.505 148.257 167.335C72.5048 138.227 -8.94093 123.727 -81.0791 126.507C-123.478 128.142 -179.499 143.688 -204.537 170.237C-219.395 185.994 -220.593 203.479 -207.999 220.801L-208.249 220.874C-214.853 211.79 -217.73 202.683 -216.798 193.806C-215.944 185.662 -211.898 177.702 -204.773 170.146C-193.44 158.128 -174.751 147.477 -150.725 139.342C-128.524 131.827 -103.797 127.206 -81.0956 126.331C-43.3434 124.877 -3.19209 128.104 38.2425 135.923C75.8024 143.011 112.865 153.529 148.4 167.183C213.94 192.368 269.441 227.339 308.906 268.319C328.689 288.863 344.289 311.301 356.598 336.916C358.403 340.672 360.178 344.545 361.893 348.289C370.626 367.342 379.659 387.043 397.7 403.481C415.147 419.381 438.763 429.012 467.889 432.108C508.225 436.396 557.206 427.428 598.909 408.117C659.009 380.29 700.718 339.787 741.056 300.618C748.127 293.752 755.436 286.653 762.675 279.798C781.466 261.997 806.915 238.93 837.16 218.38C868.075 197.375 899.49 181.943 933.203 171.199C953.838 164.623 975.706 160.192 998.202 158.031C1018.98 156.033 1040.97 155.91 1063.57 157.659C1102.33 160.663 1144.09 169.146 1191.23 183.592C1284.06 212.039 1376.79 246.568 1466.84 286.221C1552.44 323.91 1636.38 366.557 1716.35 412.975L1716.16 413.104C1550.4 316.882 1373.75 239.716 1191.11 183.749C1087.93 152.129 1006.02 148.19 933.327 171.354C859.375 194.919 807.715 237.447 762.903 279.894C755.667 286.747 748.358 293.847 741.287 300.712C700.938 339.895 659.215 380.411 599.074 408.257C579.64 417.256 557.777 424.275 535.851 428.554C524.268 430.815 512.754 432.293 501.624 432.948C497.189 433.215 492.811 433.345 488.505 433.345Z" fill="#FFE492"/>
<path d="M495.451 423.583C477.336 423.583 460.556 421.395 445.56 417.078C428.839 412.264 414.409 404.804 402.669 394.907C401.63 394.03 400.6 393.124 399.605 392.211C381.732 375.819 372.293 356.361 363.167 337.541C361.32 333.738 359.413 329.804 357.478 325.987C345.956 303.259 332.081 283.226 315.057 264.749C312.96 262.474 310.789 260.194 308.599 257.974C268.577 217.371 212.658 182.861 146.887 158.175C70.5879 129.564 -11.0887 115.663 -83.0977 119.036C-125.189 121.028 -180.952 136.829 -206.096 163.174C-221.153 178.95 -222.856 196.47 -211.029 213.843L-211.282 213.913C-217.481 204.807 -220.029 195.683 -218.85 186.795C-217.767 178.633 -213.557 170.655 -206.333 163.083C-194.884 151.086 -176.25 140.423 -152.449 132.246C-130.452 124.689 -105.832 119.936 -83.1224 118.862C-45.4169 117.096 -5.22165 120.014 36.3448 127.533C73.9954 134.345 111.234 144.604 147.024 158.025C212.833 182.725 268.783 217.256 308.83 257.881C311.02 260.104 313.194 262.385 315.291 264.662C332.326 283.151 346.208 303.194 357.736 325.935C359.674 329.752 361.581 333.686 363.428 337.491C372.551 356.298 381.982 375.743 399.831 392.111C400.823 393.021 401.853 393.927 402.889 394.802C427.149 415.26 460.482 423.583 495.536 423.583C495.728 423.583 495.918 423.583 496.11 423.583C495.89 423.581 495.67 423.583 495.451 423.583ZM502.928 423.461C535.517 422.399 569.144 414.456 597.993 402.641C660.222 377.048 704.946 337.521 748.199 299.295C749.98 297.719 751.761 296.147 753.542 294.575C757.452 291.124 762.088 287.038 766.82 282.92C788.048 264.449 813.74 242.958 843.328 223.614C874.809 203.031 906.26 187.757 939.475 176.918C959.885 170.265 981.454 165.578 1003.58 162.988C1024.09 160.587 1045.75 159.909 1067.98 160.971C1106.37 162.806 1147.65 169.764 1194.18 182.244C1239.54 194.393 1276.84 205.829 1311.53 218.233C1360.69 235.824 1407.51 256.091 1446.84 273.596C1538.25 314.41 1627.95 360.755 1713.43 411.343L1713.25 411.471C1627.77 360.889 1538.08 314.548 1446.68 273.739C1407.36 256.236 1360.55 235.972 1311.4 218.387C1276.71 205.985 1239.43 194.553 1194.08 182.408C1092.72 155.221 1011.85 153.525 939.602 177.074C864.614 201.543 811.211 244.593 767.043 283.024C762.308 287.143 757.675 291.227 753.764 294.68C751.983 296.25 750.203 297.824 748.422 299.4C705.154 337.637 660.414 377.179 598.141 402.79C582.7 409.114 566.27 414.137 549.303 417.719C533.511 421.05 517.943 422.976 502.928 423.461Z" fill="#FFE492"/>
<path d="M503.109 414.044C500.93 414.044 498.764 414.014 496.615 413.953C478.517 413.446 461.768 410.812 446.835 406.122C430.504 400.992 416.354 393.394 404.782 383.538C403.754 382.659 402.729 381.751 401.74 380.838C384.068 364.527 374.235 345.328 364.73 326.763C362.749 322.894 360.699 318.892 358.621 315.008C346.53 292.356 332.29 272.484 315.081 254.256C312.952 252.003 310.748 249.742 308.525 247.539C267.923 207.29 211.553 173.223 145.512 149.021C68.6696 120.907 -13.2378 107.604 -85.1205 111.569C-125.593 113.837 -181.194 128.736 -207.63 156.087C-222.903 171.889 -225.126 189.457 -214.06 206.89L-214.316 206.955C-220.114 197.822 -222.326 188.676 -220.897 179.773C-219.584 171.584 -215.198 163.586 -207.863 155.997C-196.294 144.028 -177.72 133.36 -154.148 125.146C-132.356 117.551 -107.849 112.669 -85.1452 111.397C-47.4836 109.321 -7.24442 111.929 34.4512 119.148C72.1953 125.684 109.607 135.684 145.65 148.871C211.729 173.088 268.129 207.174 308.756 247.446C310.979 249.651 313.185 251.912 315.315 254.169C332.531 272.408 346.78 292.292 358.877 314.956C360.954 318.841 363.004 322.843 364.985 326.713C374.488 345.267 384.312 364.452 401.963 380.744C402.952 381.657 403.972 382.563 404.999 383.438C452.021 423.489 535.352 419.189 597.075 397.163C661.9 373.826 710.076 335.039 756.666 297.53L757.144 297.144C761.656 293.508 766.322 289.751 770.966 286.04C819.972 246.892 873.836 206.66 945.751 182.633C965.941 175.902 987.213 170.959 1008.97 167.941C1029.21 165.135 1050.55 163.903 1072.39 164.279C1110.48 164.935 1151.28 170.369 1197.13 180.894C1245.32 191.915 1281.59 202.045 1314.72 213.742C1361.92 230.442 1407.64 251.544 1447.98 270.163C1537.8 311.84 1626.13 358.789 1710.52 409.703L1710.33 409.829C1625.95 358.92 1537.63 311.976 1447.82 270.302C1407.49 251.687 1361.77 230.588 1314.58 213.894C1281.47 202.2 1245.21 192.073 1197.04 181.056C1097.65 158.243 1017.84 158.792 945.878 182.785C874.009 206.796 820.167 247.011 771.181 286.144C766.537 289.855 761.87 293.615 757.358 297.249L756.88 297.634C733.662 316.326 709.655 335.654 683.731 352.918C654.596 372.32 626.294 386.841 597.207 397.311C566.775 408.17 533.626 414.044 503.109 414.044Z" fill="#FFE492"/>
<path d="M1707.42 408.185C1624.13 356.948 1537.18 309.401 1448.97 266.865C1445.23 265.076 1441.49 263.279 1437.73 261.477C1399.53 243.137 1360.02 224.173 1317.77 209.4C1276.78 195.107 1235.24 186.368 1200.01 179.704C1102.77 161.197 1024.01 163.991 952.162 188.494C878.403 213.722 821.249 255.608 775.327 289.265C772.571 291.286 769.82 293.309 767.064 295.335C765.03 296.83 762.994 298.326 760.958 299.819C734.811 319.003 711.026 336.154 684.747 351.804C654.725 369.682 625.788 382.775 596.278 391.834C568.621 400.324 539.078 404.816 511.597 404.817C506.59 404.817 501.658 404.669 496.81 404.368C479.113 403.268 462.729 400.177 448.115 395.182C432.169 389.732 418.299 381.989 406.887 372.169C405.867 371.289 404.851 370.379 403.867 369.464C386.403 353.239 376.189 334.31 366.312 316.005C364.185 312.062 361.984 307.984 359.758 304.025C347.09 281.445 332.482 261.731 315.103 243.758C312.94 241.521 310.701 239.282 308.447 237.098C267.263 197.202 210.445 163.578 144.138 139.859C66.7512 112.242 -15.3843 99.5405 -87.1405 104.093C-136.195 107.267 -186.358 125.719 -209.128 148.961C-224.64 164.796 -227.391 182.42 -217.089 199.927L-217.347 199.988C-222.741 190.821 -224.621 181.648 -222.934 172.722C-221.381 164.504 -216.814 156.479 -209.361 148.869C-197.671 136.935 -179.158 126.268 -155.822 118.023C-134.239 110.398 -109.858 105.388 -87.168 103.921C-49.5504 101.533 -9.26997 103.832 32.5548 110.751C70.3895 117.012 107.98 126.754 144.275 139.706C210.624 163.439 267.472 197.082 308.681 237.002C310.937 239.187 313.177 241.429 315.34 243.665C332.729 261.649 347.343 281.373 360.019 303.964C362.245 307.924 364.447 312.001 366.574 315.946C376.444 334.24 386.653 353.157 404.095 369.363C405.079 370.276 406.093 371.185 407.109 372.063C456.197 414.303 539.63 409.027 596.159 391.675C663.604 370.972 715.214 333.111 760.752 299.704C762.788 298.209 764.822 296.713 766.858 295.22C769.611 293.194 772.365 291.171 775.121 289.15C801.335 269.939 827.221 251.27 855.679 234.067C888.405 214.282 919.925 199.325 952.036 188.341C972.014 181.527 992.984 176.328 1014.37 172.889C1034.35 169.673 1055.36 167.889 1076.82 167.582C1114.66 167.041 1154.98 170.953 1200.1 179.537C1235.34 186.204 1276.9 194.947 1317.9 209.248C1360.17 224.027 1399.69 242.996 1437.9 261.339C1441.66 263.141 1445.4 264.939 1449.14 266.727C1537.36 309.266 1624.32 356.819 1707.61 408.061L1707.42 408.185Z" fill="#FFE492"/>
<path d="M1704.51 406.543C1620.75 353.999 1535.16 305.847 1450.12 263.427C1445.03 260.89 1439.82 258.273 1434.79 255.744C1398.73 237.631 1361.45 218.901 1320.95 204.906C1280.52 190.982 1238.63 183.668 1202.98 178.352C1108.11 164.064 1030.4 169.102 958.444 194.204C889.81 218.235 836.039 254.371 784.039 289.316L778.328 293.152C773.819 296.184 769.155 299.316 764.558 302.389C712.505 337.133 660.397 369.698 595.349 386.354C579.564 390.396 563.356 393.197 547.171 394.684C529.789 396.279 512.906 396.301 496.986 394.75C479.696 393.064 463.683 389.524 449.393 384.227C433.842 378.463 420.251 370.58 409 360.798C407.986 359.913 406.978 359.001 406.002 358.088C388.753 341.958 378.17 323.308 367.937 305.271C365.653 301.247 363.29 297.085 360.905 293.043C347.648 270.532 332.677 250.977 315.134 233.261C312.941 231.048 310.668 228.825 308.379 226.659C266.615 187.117 209.349 153.936 142.77 130.7C64.8359 103.583 -17.5304 91.4792 -89.163 96.6228C-137.77 100.187 -187.704 118.767 -210.59 141.808C-226.36 157.683 -229.655 175.375 -220.12 192.97L-220.381 193.028C-225.371 183.821 -226.913 174.613 -224.964 165.661C-223.167 157.408 -218.41 149.352 -210.826 141.718C-199.009 129.823 -180.562 119.167 -157.473 110.898C-136.105 103.244 -111.856 98.1147 -89.1959 96.4519C-51.6223 93.7538 -11.3006 95.7425 30.6561 102.362C68.5842 108.348 106.347 117.83 142.899 130.548C209.516 153.796 266.815 186.999 308.604 226.563C310.893 228.731 313.169 230.955 315.362 233.169C332.916 250.894 347.895 270.459 361.157 292.982C363.543 297.024 365.906 301.188 368.19 305.212C378.418 323.238 388.995 341.88 406.225 357.99C407.198 358.9 408.206 359.81 409.217 360.695C457.124 402.348 536.723 401.178 595.242 386.194C660.238 369.551 712.324 336.999 764.355 302.27C768.952 299.197 773.615 296.065 778.125 293.034L783.835 289.198C809.362 272.045 835.754 254.306 864.418 237.805C896.883 219.117 927.595 204.805 958.307 194.051C978.082 187.152 998.755 181.697 1019.75 177.838C1039.49 174.209 1060.17 171.87 1081.23 170.885C1118.9 169.123 1158.75 171.511 1203.05 178.181C1238.71 183.501 1280.62 190.816 1321.08 204.753C1361.6 218.753 1398.89 237.488 1434.96 255.607C1439.99 258.136 1445.2 260.75 1450.28 263.29C1535.34 305.712 1620.93 353.868 1704.7 406.418L1704.51 406.543Z" fill="#FFE492"/>
<path d="M1701.59 404.902C1618.56 351.774 1534.33 303.019 1451.26 259.993C1445.02 256.76 1438.62 253.398 1432.43 250.147C1398.32 232.229 1363.05 213.701 1324.14 200.418C1283.89 186.732 1241.81 180.901 1205.96 177.004C1113.71 166.823 1037.05 174.105 964.724 199.919C901.602 222.542 849.777 254.602 799.656 285.607C794.382 288.869 788.927 292.242 783.613 295.51C777.372 299.348 772.604 302.264 768.155 304.963C744.327 319.405 715.957 336.035 686.185 349.867C654.635 364.524 624.618 374.668 594.417 380.88C578.536 384.147 562.397 386.207 546.445 387.002C529.317 387.856 512.732 387.228 497.157 385.135C480.281 382.868 464.642 378.878 450.668 373.278C435.516 367.205 422.207 359.18 411.111 349.43C410.111 348.546 409.107 347.633 408.135 346.716C391.113 330.694 380.176 312.332 369.596 294.574C367.143 290.456 364.606 286.197 362.048 282.061C348.195 259.613 332.858 240.219 315.158 222.766C312.932 220.572 310.627 218.371 308.305 216.221C265.961 177.034 208.244 144.295 141.396 121.542C62.9205 94.9229 -19.6766 83.4209 -91.1828 89.1519C-131.87 92.4845 -185.011 107.837 -212.013 134.62C-228.067 150.544 -231.92 168.315 -223.151 186.012L-223.412 186.064C-227.998 176.811 -229.196 167.562 -226.976 158.575C-224.926 150.28 -219.971 142.189 -212.244 134.526C-200.301 122.68 -181.922 112.041 -159.089 103.755C-137.935 96.0785 -113.832 90.8321 -91.2157 88.9793C-53.6861 85.9709 -13.3204 87.6494 28.7627 93.9695C66.7815 99.6796 104.721 108.903 141.525 121.389C208.412 144.154 266.161 176.912 308.53 216.122C310.852 218.271 313.16 220.476 315.386 222.672C333.095 240.134 348.439 259.538 362.3 281.997C364.862 286.135 367.398 290.393 369.852 294.512C380.424 312.26 391.358 330.613 408.36 346.617C409.333 347.532 410.333 348.443 411.333 349.325C451.188 384.349 519.6 396.083 594.332 380.711C662.01 366.792 717.218 335.594 767.966 304.834C772.415 302.135 777.18 299.219 783.42 295.381C788.735 292.113 794.19 288.741 799.463 285.478C824.138 270.214 849.65 254.431 876.864 239.653C907.636 222.939 936.334 209.891 964.592 199.764C984.177 192.775 1004.55 187.063 1025.14 182.789C1044.65 178.74 1065.01 175.848 1085.65 174.191C1123.23 171.175 1162.6 172.038 1206 176.828C1241.88 180.729 1283.99 186.561 1324.27 200.259C1363.2 213.551 1398.48 232.084 1432.6 250.008C1438.79 253.258 1445.19 256.621 1451.44 259.854C1534.51 302.885 1618.74 351.643 1701.79 404.775L1701.59 404.902Z" fill="#FFE492"/>
<path d="M1698.68 403.261C1616.36 349.546 1533.5 300.186 1452.4 256.557C1445.5 252.846 1438.42 248.95 1431.57 245.184C1398.92 227.241 1365.17 208.689 1327.32 195.925C1287.04 182.403 1244.87 178.089 1208.93 175.652C1120.86 169.522 1043.03 179.328 971.002 205.63C913.648 226.668 864.483 254.812 816.937 282.031C807.333 287.528 797.404 293.214 787.75 298.633C781.845 301.95 776.613 304.862 771.749 307.536C749.13 319.956 719.042 335.882 686.89 348.897C654.584 361.973 624.029 370.644 593.479 375.405C560.16 380.597 526.906 380.635 497.315 375.518C480.863 372.672 465.595 368.234 451.934 362.327C437.186 355.949 424.16 347.785 413.215 338.064C412.223 337.179 411.228 336.264 410.261 335.347C393.481 319.447 382.203 301.387 371.299 283.922C368.661 279.697 365.935 275.329 363.185 271.085C348.724 248.696 333.022 229.458 315.179 212.276C312.921 210.101 310.582 207.918 308.227 205.789C265.303 166.955 207.138 134.657 140.021 112.39C61.0043 86.2714 -21.8236 75.369 -93.2061 81.6873C-141.582 86.0622 -189.884 104.433 -213.396 127.399C-229.758 143.381 -234.179 161.245 -226.183 179.06L-226.446 179.107C-230.626 169.797 -231.478 160.5 -228.98 151.475C-226.672 143.133 -221.505 135 -213.627 127.303C-201.558 115.514 -183.25 104.899 -160.684 96.6056C-139.752 88.9138 -115.8 83.5523 -93.2446 81.513C-55.7589 78.1944 -15.3493 79.5644 26.863 85.5829C64.9752 91.0176 103.09 99.9835 140.147 112.233C207.303 134.514 265.501 166.829 308.452 205.687C310.807 207.817 313.146 210.001 315.407 212.178C333.259 229.371 348.969 248.617 363.437 271.017C366.188 275.261 368.914 279.631 371.552 283.856C382.451 301.312 393.723 319.364 410.486 335.248C411.453 336.165 412.445 337.076 413.438 337.962C452.608 372.759 519.887 386.692 593.413 375.236C660.443 364.79 718.651 336.461 771.567 307.405C776.428 304.731 781.663 301.821 787.566 298.504C797.217 293.085 807.149 287.401 816.75 281.903C864.307 254.68 913.48 226.528 970.862 205.482C990.274 198.393 1010.35 192.427 1030.53 187.745C1049.83 183.269 1069.86 179.823 1090.06 177.503C1127.63 173.189 1166.52 172.529 1208.95 175.481C1244.92 177.92 1287.13 182.235 1327.44 195.773C1365.32 208.546 1399.09 227.105 1431.75 245.055C1438.6 248.821 1445.68 252.715 1452.58 256.426C1533.69 300.058 1616.55 349.422 1698.87 403.141L1698.68 403.261Z" fill="#FFE492"/>
<path d="M1695.76 401.618C1614.18 347.31 1532.69 297.349 1453.55 253.12C1446.28 249.056 1438.8 244.752 1431.56 240.59C1400.11 222.496 1367.59 203.785 1330.5 191.432C1290.06 178.025 1247.85 175.248 1211.89 174.3C1127.16 171.902 1050.41 184.017 977.282 211.341C925.995 230.594 880.277 254.961 836.061 278.524C820.859 286.628 806.498 294.281 791.892 301.753C785.951 304.795 780.54 307.528 775.346 310.106C741.834 326.725 713.953 338.741 687.599 347.92C654.538 359.436 623.447 366.634 592.548 369.925C580.561 371.201 568.618 371.837 556.893 371.837C536.107 371.837 515.994 369.843 497.478 365.894C463.969 358.746 436.329 345.556 415.326 326.692C414.337 325.798 413.35 324.883 412.394 323.969C395.87 308.208 384.276 290.467 373.064 273.309C370.223 268.962 367.288 264.469 364.328 260.099C349.25 237.763 333.179 218.686 315.207 201.777C312.915 199.621 310.544 197.458 308.156 195.347C264.652 156.867 206.037 125.012 138.65 103.228C59.0921 77.611 -23.964 67.3064 -95.2228 74.2122C-143.8 79.0176 -190.708 97.0402 -214.723 120.128C-231.417 136.176 -236.424 154.146 -229.208 172.097L-229.474 172.141C-233.242 162.767 -233.742 153.414 -230.958 144.342C-228.381 135.944 -222.997 127.766 -214.951 120.032C-202.756 108.307 -184.528 97.7269 -162.236 89.4338C-141.53 81.7297 -117.746 76.2637 -95.2641 74.0396C-57.8223 70.4107 -17.3688 71.4705 24.9699 77.1892C63.1756 82.3502 101.464 91.0582 138.776 103.071C206.202 124.869 264.85 156.741 308.381 195.244C310.769 197.357 313.141 199.52 315.435 201.677C333.418 218.595 349.497 237.682 364.581 260.028C367.541 264.397 370.478 268.893 373.317 273.24C384.523 290.389 396.112 308.122 412.622 323.87C413.578 324.782 414.562 325.697 415.551 326.589C454.771 361.819 519.267 377.551 592.502 369.751C662.216 362.326 723.964 335.363 775.176 309.966C780.367 307.388 785.778 304.657 791.719 301.616C806.322 294.143 820.683 286.492 835.885 278.388C880.106 254.82 925.836 230.449 977.141 211.189C996.408 203.99 1016.18 197.768 1035.92 192.692C1055.03 187.777 1074.74 183.777 1094.48 180.805C1132.13 175.139 1170.54 172.953 1211.9 174.124C1247.89 175.072 1290.14 177.852 1330.63 191.275C1367.74 203.637 1400.28 222.356 1431.75 240.457C1438.98 244.62 1446.46 248.923 1453.73 252.986C1532.87 297.218 1614.37 347.184 1695.96 401.496L1695.76 401.618Z" fill="#FFE492"/>
<path d="M1692.85 399.977C1610.86 344.298 1532.96 295.137 1454.7 249.683C1447.23 245.347 1439.88 240.918 1432.09 236.229C1401.66 217.9 1370.2 198.948 1333.68 186.941C1292.73 173.539 1248.67 172.423 1214.86 172.95C1133.98 174.044 1058.32 188.471 983.561 217.055C938.705 234.288 897.29 254.982 857.237 274.997C836.188 285.516 816.306 295.449 796.031 304.877C790.013 307.678 784.42 310.23 778.941 312.679C744.973 327.836 716.173 338.723 688.303 346.943C654.475 356.919 622.848 362.645 591.614 364.447C575.566 365.373 559.627 365.199 544.241 363.93C527.951 362.586 512.271 360.008 497.637 356.269C465.202 347.981 438.22 334.207 417.436 315.325C416.455 314.429 415.477 313.512 414.526 312.599C398.28 296.999 386.395 279.597 374.9 262.768C371.833 258.278 368.662 253.635 365.471 249.12C349.761 226.833 333.328 207.914 315.232 191.284C312.905 189.148 310.5 187.004 308.085 184.912C264.001 146.786 204.938 115.373 137.282 94.0723C74.8357 74.4933 10.4386 64.2776 -48.6135 64.2776C-65.3077 64.2776 -81.5622 65.0933 -97.2397 66.7439C-145.231 71.8962 -191.846 89.9833 -216.001 112.823C-233.049 128.946 -238.664 147.038 -232.236 165.143L-232.505 165.181C-235.861 155.734 -236.001 146.317 -232.923 137.192C-230.071 128.734 -224.454 120.501 -216.232 112.726C-203.909 101.074 -185.767 90.5375 -163.761 82.2531C-142.989 74.4323 -120.001 69.0098 -97.2891 66.5731C-59.8914 62.6339 -19.3938 63.3852 23.074 68.8024C61.3704 73.6863 99.8371 82.1346 137.403 93.9137C205.097 115.227 264.196 146.657 308.307 184.806C310.725 186.897 313.133 189.043 315.46 191.182C333.564 207.82 350.006 226.747 365.724 249.046C368.915 253.56 372.089 258.203 375.155 262.695C386.645 279.517 398.525 296.912 414.757 312.499C415.708 313.411 416.686 314.328 417.664 315.222C456.53 350.53 519.921 368.406 591.592 364.271C664.115 360.087 729.727 334.423 778.787 312.532C784.266 310.083 789.856 307.532 795.874 304.732C816.146 295.308 836.025 285.373 857.073 274.856C897.13 254.839 938.551 234.139 983.423 216.901C1021.92 202.185 1059.69 191.46 1098.9 184.112C1136.72 177.025 1174.65 173.316 1214.86 172.772C1237.8 172.415 1256.52 173.035 1273.77 174.722C1296.04 176.901 1315.68 180.846 1333.81 186.782C1370.36 198.8 1401.84 217.762 1432.29 236.1C1440.07 240.789 1447.42 245.216 1454.89 249.553C1533.16 295.008 1611.06 344.173 1693.06 399.855L1692.85 399.977Z" fill="#FFE492"/>
<path d="M1689.94 398.334C1608.7 342.045 1532.13 292.299 1455.84 246.245C1448.29 241.689 1440.85 236.995 1432.97 232.026C1403.46 213.407 1372.93 194.152 1336.87 182.446C1295.58 169.107 1251.56 169.641 1217.84 171.594C1141.51 175.863 1066.93 192.601 989.84 222.762C951.857 237.694 915.693 254.782 880.719 271.309C853.072 284.373 826.96 296.714 800.172 307.993C794.118 310.544 788.183 312.984 782.536 315.243C748.501 328.846 717.908 338.891 689.007 345.953C654.401 354.41 622.238 358.667 590.68 358.963C574.623 359.113 558.748 358.193 543.505 356.225C527.525 354.161 512.147 350.935 497.797 346.633C466.475 337.243 440.146 322.883 419.544 303.949C418.577 303.055 417.604 302.136 416.656 301.217C400.715 285.808 388.572 268.773 376.827 252.3C373.504 247.64 370.066 242.818 366.612 238.132C350.259 215.886 333.46 197.128 315.257 180.782C312.897 178.664 310.459 176.539 308.011 174.467C263.347 136.694 203.833 105.725 135.908 84.9066C55.2701 60.2955 -28.2504 51.1901 -99.2619 59.2671C-146.632 64.7488 -192.936 82.8829 -217.226 105.463C-234.659 121.672 -240.897 139.9 -235.269 158.18L-235.539 158.213C-238.474 148.684 -238.248 139.194 -234.865 130.007C-231.725 121.478 -225.868 113.187 -217.454 105.364C-205.011 93.7958 -186.959 83.3117 -165.25 75.0447C-144.717 67.2256 -121.917 61.7108 -99.3113 59.0946C-61.9548 54.8469 -21.416 55.2861 21.1782 60.4036C59.568 65.0155 98.2079 73.2058 136.026 84.748C203.993 105.577 263.54 136.565 308.228 174.361C310.679 176.433 313.119 178.559 315.48 180.679C333.694 197.033 350.498 215.8 366.859 238.055C370.316 242.742 373.752 247.563 377.077 252.225C388.816 268.691 400.954 285.719 416.884 301.118C417.832 302.035 418.805 302.953 419.77 303.846C459.044 339.94 519.74 359.454 590.674 358.785C648.232 358.245 709.15 344.36 782.387 315.092C788.031 312.833 793.964 310.394 800.018 307.843C826.798 296.565 852.909 284.229 880.552 271.165C915.531 254.636 951.701 237.544 989.695 222.608C1028.56 207.401 1065.73 195.89 1103.31 187.414C1141.39 178.828 1178.84 173.594 1217.81 171.415C1251.58 169.458 1295.64 168.926 1336.99 182.286C1373.1 194.006 1403.64 213.269 1433.17 231.897C1441.05 236.866 1448.49 241.558 1456.03 246.113C1532.32 292.168 1608.9 341.918 1690.14 398.21L1689.94 398.334Z" fill="#FFE492"/>
<path d="M1687.02 396.69C1606.54 339.79 1531.3 289.454 1456.99 242.808C1449.45 238.073 1442 233.152 1434.11 227.942C1405.43 208.991 1375.77 189.394 1340.05 177.953C1298.37 164.663 1254.43 166.85 1220.81 170.241C1148.99 177.343 1077.6 195.847 996.121 228.472C965.564 240.764 935.701 254.248 906.822 267.287C871.746 283.124 838.616 298.084 804.313 311.113C798.132 313.462 792.015 315.718 786.132 317.813C751.487 330.143 719.949 339.025 689.712 344.965C672.776 348.293 656.057 350.703 640.02 352.131C622.913 353.652 605.999 354.107 589.747 353.483C556.774 352.216 525.892 346.67 497.961 337C467.796 326.556 442.124 311.611 421.659 292.578C420.698 291.677 419.733 290.757 418.791 289.843C403.19 274.66 390.829 258.03 378.878 241.949C375.259 237.081 371.519 232.047 367.757 227.149C350.744 204.94 333.58 186.341 315.284 170.286C312.89 168.186 310.417 166.08 307.938 164.029C262.695 126.608 202.733 96.0814 134.538 75.7494C53.362 51.642 -30.3866 43.1362 -101.28 51.7972C-177.188 61.2146 -251.157 101.905 -238.296 151.223L-238.568 151.251C-241.786 138.914 -239.901 126.76 -232.968 115.124C-226.636 104.497 -216.246 94.4953 -202.085 85.4004C-188.92 76.9434 -173.124 69.6419 -155.141 63.6983C-138.037 58.0458 -119.431 53.8696 -101.335 51.6246C-64.0223 47.0667 -23.4396 47.1974 19.2839 52.015C57.7671 56.3534 96.5828 64.2857 134.654 75.5925C202.887 95.9385 262.885 126.483 308.155 163.924C310.637 165.977 313.11 168.083 315.506 170.185C333.811 186.247 350.983 204.857 368.004 227.074C371.766 231.972 375.507 237.006 379.126 241.876C391.074 257.952 403.429 274.575 419.021 289.749C419.961 290.662 420.923 291.583 421.885 292.482C461.217 329.061 520.838 350.661 589.764 353.311C648.115 355.551 712.304 343.892 785.997 317.663C791.878 315.568 797.992 313.314 804.172 310.965C838.468 297.939 871.592 282.981 906.662 267.146C935.544 254.105 965.41 240.619 995.973 228.326C1077.48 195.687 1148.91 177.176 1220.76 170.068C1243.36 167.79 1262.06 167.061 1279.64 167.778C1302.1 168.693 1321.9 171.97 1340.17 177.797C1375.93 189.25 1405.61 208.858 1434.31 227.82C1442.19 233.029 1449.64 237.949 1457.18 242.683C1531.5 289.332 1606.74 339.67 1687.22 396.574L1687.02 396.69Z" fill="#FFE492"/>
<path d="M1684.11 395.051C1604.4 337.531 1530.48 286.609 1458.14 239.374C1450.65 234.487 1443.25 229.368 1435.42 223.945C1407.51 204.631 1378.66 184.658 1343.24 173.463C1300.65 160.061 1254.66 164.434 1223.78 168.889C1139.95 180.832 1064.83 208.598 1002.4 234.187C979.967 243.421 957.587 253.203 935.941 262.662C892.519 281.638 851.508 299.561 808.457 314.237C802.126 316.397 795.828 318.466 789.732 320.388C754.412 331.507 721.928 339.225 690.425 343.98C654.711 349.371 620.529 350.727 588.819 348.008C556.245 345.214 525.73 338.27 498.129 327.367C469.179 315.933 444.164 300.405 423.774 281.213C422.823 280.312 421.864 279.39 420.927 278.473C405.714 263.569 393.199 247.395 381.094 231.754C377.129 226.628 373.026 221.329 368.904 216.171C350.973 193.683 333.944 175.77 315.315 159.794C312.888 157.713 310.385 155.628 307.87 153.594C262.042 116.53 201.629 86.4455 133.165 66.5945C51.4502 42.9926 -32.5292 35.0847 -103.302 44.3295C-179.482 54.4127 -251.939 94.5504 -241.326 144.269L-241.598 144.292C-244.231 131.957 -241.953 119.815 -234.83 108.205C-228.301 97.5675 -217.85 87.5558 -203.764 78.4504C-190.628 69.9585 -174.915 62.6031 -157.058 56.5845C-140.056 50.8535 -121.485 46.5571 -103.357 44.157C-66.0852 39.2888 -25.4613 39.111 17.3885 43.6271C55.9652 47.6918 94.9568 55.3662 133.281 66.4359C201.786 86.2973 262.231 116.399 308.082 153.486C310.596 155.522 313.103 157.608 315.532 159.69C334.172 175.673 351.207 193.596 369.146 216.093C373.268 221.25 377.371 226.551 381.336 231.677C393.438 247.313 405.95 263.481 421.152 278.379C422.089 279.296 423.045 280.216 423.996 281.117C463.634 318.424 522.18 342.118 588.852 347.835C648.649 352.963 714.316 343.933 789.609 320.232C795.701 318.311 802 316.244 808.326 314.084C851.365 299.411 892.371 281.492 935.784 262.518C957.43 253.058 979.813 243.275 1002.25 234.039C1044.23 216.834 1079.15 204.122 1112.15 194.035C1150.99 182.162 1187.48 173.881 1223.72 168.718C1245.8 165.532 1265.06 164.089 1282.58 164.309C1305.13 164.591 1325.01 167.533 1343.36 173.306C1378.82 184.515 1407.7 204.5 1435.62 223.827C1443.45 229.247 1450.85 234.366 1458.33 239.25C1530.68 286.487 1604.6 337.412 1684.32 394.935L1684.11 395.051Z" fill="#FFE492"/>
<path d="M1681.2 393.407C1602.25 335.264 1529.66 283.755 1459.28 235.934C1451.9 230.919 1444.6 225.622 1436.86 220.013C1409.69 200.311 1381.6 179.937 1346.42 168.968C1303.37 155.598 1257.51 161.745 1226.75 167.534C1150.8 181.706 1083.06 208.691 1008.69 239.896C995.273 245.545 981.706 251.375 968.584 257.015C918.12 278.705 865.94 301.132 812.599 317.356C806.119 319.329 799.633 321.213 793.327 322.956C757.767 332.773 723.384 339.511 691.131 342.985C654.593 346.921 619.858 346.766 587.882 342.527C555.763 338.269 525.62 329.925 498.289 317.727C470.63 305.384 446.266 289.273 425.876 269.844C424.933 268.941 423.982 268.017 423.051 267.1C408.297 252.545 395.702 236.898 383.523 221.767C379.135 216.315 374.598 210.678 370.039 205.193C351.407 182.727 334.023 164.968 315.331 149.302C312.877 147.245 310.338 145.178 307.788 143.16C261.388 106.443 200.53 76.802 131.791 57.4355C49.5402 34.3391 -34.6673 27.0307 -105.324 36.8577C-179.087 47.2286 -252.882 85.9579 -244.36 137.31L-244.632 137.327C-246.68 124.992 -244.008 112.865 -236.696 101.281C-229.972 90.6309 -219.458 80.6104 -205.448 71.4945C-179.6 54.6781 -143.129 41.9909 -105.385 36.6852C-68.1574 31.5085 -27.4895 31.0205 15.4895 35.235C54.1596 39.0278 93.3243 46.4425 131.901 57.2752C200.678 76.6521 261.572 106.313 308.002 143.046C310.555 145.066 313.094 147.134 315.551 149.192C334.251 164.867 351.643 182.633 370.281 205.107C374.839 210.594 379.379 216.231 383.768 221.683C395.944 236.811 408.536 252.454 423.281 267.003C424.21 267.92 425.161 268.842 426.104 269.745C466.898 308.617 522.859 333.725 587.934 342.354C648.193 350.344 717.256 343.764 793.211 322.796C799.515 321.053 805.995 319.171 812.472 317.199C865.795 300.981 917.969 278.557 968.422 256.871C981.544 251.23 995.111 245.4 1008.53 239.751C1041.08 226.091 1078.96 210.423 1116.56 197.342C1155.89 183.66 1191.9 173.855 1226.67 167.368C1248.55 163.249 1267.8 161.112 1285.51 160.837C1307.84 160.488 1328.37 163.173 1346.53 168.813C1362.29 173.726 1378.15 181.059 1395.02 191.231C1409.92 200.213 1423.72 210.221 1437.06 219.898C1444.79 225.506 1452.1 230.803 1459.48 235.815C1529.86 283.638 1602.45 335.149 1681.4 393.293L1681.2 393.407Z" fill="#FFE492"/>
<path d="M1678.28 391.765C1600.11 332.995 1528.85 280.898 1460.42 232.499C1453.18 227.375 1446 221.917 1438.4 216.141C1411.94 196.029 1384.58 175.231 1349.6 164.479C1316.91 154.462 1277.7 155.019 1229.72 166.183C1162.64 181.705 1102.67 207.667 1039.18 235.155C1031.27 238.579 1023.1 242.117 1014.96 245.611C1011.78 246.983 1008.59 248.358 1005.41 249.732C944.912 275.823 882.359 302.803 816.739 320.48C810.106 322.268 803.439 323.968 796.923 325.53C760.584 334.232 725.23 339.772 691.847 341.992C654.466 344.478 619.173 342.815 586.956 337.049C555.337 331.389 525.565 321.646 498.467 308.089C472.201 294.949 448.491 278.258 427.994 258.477C427.06 257.572 426.117 256.646 425.191 255.728C410.997 241.629 398.444 226.613 386.301 212.092C381.385 206.211 376.298 200.13 371.19 194.211C351.838 171.761 334.102 154.155 315.366 138.806C312.877 136.767 310.307 134.72 307.724 132.721C260.736 96.3606 199.428 67.1602 130.419 48.2784C47.6353 25.6891 -36.8057 18.9786 -107.345 29.3878C-179.752 40.1612 -253.443 79.2078 -247.389 130.354L-247.664 130.368C-249.123 118.031 -246.062 105.917 -238.56 94.3631C-231.637 83.7012 -221.063 73.6686 -207.128 64.5457C-181.39 47.6944 -145.045 34.8189 -107.408 29.2187C-70.2216 23.7318 -29.5125 22.9335 13.5929 26.8482C52.3564 30.3656 91.6998 37.5223 130.529 48.118C199.576 67.0121 260.923 96.2281 307.93 132.608C310.513 134.607 313.088 136.657 315.578 138.696C334.322 154.054 352.069 171.665 371.426 194.123C376.537 200.043 381.621 206.126 386.54 212.007C398.678 226.524 411.231 241.536 425.419 255.63C426.345 256.549 427.285 257.473 428.219 258.377C469.898 298.599 524.812 325.742 587.027 336.876C648.443 347.868 719.028 343.993 796.824 325.362C803.335 323.8 809.998 322.103 816.629 320.316C882.227 302.646 944.77 275.671 1005.25 249.584C1008.44 248.209 1011.62 246.835 1014.81 245.463C1022.94 241.969 1031.11 238.43 1039.02 235.009C1102.52 207.515 1162.51 181.546 1229.62 166.018C1251.3 160.973 1270.54 158.145 1288.45 157.365C1310.87 156.391 1331.48 158.732 1349.72 164.32C1365.39 169.136 1381.05 176.502 1397.61 186.839C1412.21 195.961 1425.63 206.162 1438.61 216.028C1446.21 221.802 1453.39 227.258 1460.63 232.38C1529.06 280.782 1600.32 332.88 1678.49 391.652L1678.28 391.765Z" fill="#FFE492"/>
<path d="M1675.37 390.122C1604.02 335.357 1532.09 281.168 1461.57 229.061C1454.39 223.786 1447.28 218.12 1439.74 212.122C1415.24 192.611 1387.48 170.498 1352.78 159.986C1319.71 149.986 1280.43 151.571 1232.69 164.828C1175.92 180.539 1125.68 203.641 1072.49 228.099C1055.84 235.757 1038.61 243.679 1021.24 251.321C990.917 264.688 958.114 278.832 923.728 291.714C886.902 305.512 853.258 315.94 820.873 323.599C814.069 325.208 807.221 326.723 800.513 328.098C763.404 335.702 727.088 340.03 692.576 340.961C654.37 341.989 618.52 338.831 586.016 331.566C525.994 317.985 473.534 289.569 430.096 247.106C429.17 246.2 428.236 245.272 427.315 244.354C413.842 230.877 401.509 216.659 389.583 202.909C383.968 196.437 378.164 189.744 372.325 183.23C352.237 160.786 334.144 143.335 315.386 128.312C312.861 126.29 310.258 124.263 307.645 122.285C260.085 86.2745 198.326 57.5186 129.048 39.1195C45.7285 17.0358 -38.9406 10.9266 -109.364 21.9162C-182.211 33.3485 -254.055 71.8774 -250.42 123.397L-250.695 123.404C-251.566 111.063 -248.109 98.9635 -240.422 87.4389C-233.3 76.763 -222.665 66.7199 -208.809 57.5901C-195.756 48.9884 -180.285 41.4673 -162.827 35.2344C-145.877 29.1845 -127.913 24.6457 -109.433 21.7453C-72.2878 15.9499 -31.5347 14.8413 11.6971 18.4546C50.5541 21.7018 90.0706 28.5988 129.153 38.9574C198.472 57.3669 260.266 86.1403 307.854 122.168C310.467 124.148 313.075 126.177 315.6 128.199C334.367 143.23 352.468 160.688 372.564 183.14C378.404 189.655 384.207 196.348 389.822 202.822C401.748 216.57 414.078 230.786 427.546 244.258C428.464 245.178 429.401 246.104 430.325 247.01C473.73 289.44 526.142 317.833 586.107 331.401C647.874 345.205 721.985 344.006 800.427 327.93C807.13 326.555 813.978 325.042 820.777 323.435C893.184 306.314 959.433 278.351 1021.08 251.176C1038.46 243.535 1055.68 235.614 1072.33 227.956C1125.53 203.493 1175.78 180.386 1232.58 164.667C1280.39 151.389 1319.75 149.805 1352.9 159.827C1368.44 164.535 1383.86 171.915 1400.06 182.385C1414.35 191.618 1427.37 201.987 1439.96 212.012C1447.49 218.01 1454.6 223.675 1461.78 228.946C1532.3 281.054 1604.23 335.244 1675.58 390.011L1675.37 390.122Z" fill="#FFE492"/>
<path d="M1672.46 388.482C1602.2 333.414 1531.63 278.621 1462.72 225.625C1455.76 220.293 1448.86 214.527 1441.55 208.423C1417.66 188.457 1390.57 165.826 1355.97 155.492C1322.5 145.51 1283.15 148.121 1235.66 163.472C1185.9 179.532 1140.18 202.208 1095.97 224.14C1073.8 235.137 1050.88 246.508 1027.52 257.03C990.653 273.655 959.633 286.337 929.897 296.943C893.23 310.021 858.921 319.761 825.013 326.719C818.053 328.148 811.018 329.476 804.107 330.667C768.097 336.866 732.735 340.004 698.907 340.006C697.027 340.006 695.159 339.995 693.29 339.976C654.18 339.572 617.775 334.897 585.084 326.084C569.305 321.807 553.853 316.378 539.159 309.946C525.348 303.901 511.775 296.781 498.818 288.784C475.507 274.398 453.715 257.044 432.204 235.736C431.28 234.819 430.36 233.901 429.445 232.979C416.963 220.407 405.155 207.264 393.737 194.554C387.144 187.218 380.329 179.631 373.465 172.246C352.33 149.493 334.426 132.704 315.407 117.814C312.849 115.811 310.214 113.803 307.567 111.844C259.43 76.1912 197.224 47.878 127.677 29.9617C43.8237 8.38519 -41.0763 2.87559 -111.384 14.4456C-182.866 26.2422 -254.616 65.0639 -253.449 116.439L-253.723 116.44C-254.267 92.5108 -239.315 69.756 -210.486 50.6371C-197.455 41.9954 -182.066 34.4203 -164.743 28.1176C-147.886 21.9858 -129.958 17.3285 -111.453 14.2748C-74.352 8.16906 -33.555 6.75201 9.80325 10.0637C48.7536 13.039 88.446 19.6781 127.778 29.7979C197.369 47.7263 259.612 76.057 307.779 111.731C310.425 113.692 313.066 115.701 315.625 117.704C334.652 132.603 352.563 149.397 373.704 172.159C380.568 179.546 387.386 187.133 393.976 194.469C405.394 207.177 417.2 220.318 429.678 232.886C430.593 233.808 431.511 234.727 432.435 235.642C478.145 280.922 528.112 310.453 585.191 325.924C664.249 347.237 747.835 340.176 804.035 330.499C810.941 329.309 817.97 327.982 824.928 326.553C902.914 310.549 974.077 280.916 1027.36 256.889C1050.72 246.37 1073.64 234.999 1095.8 224.004C1140.02 202.069 1185.75 179.385 1235.53 163.318C1256.78 156.449 1276.02 152.231 1294.33 150.425C1316.91 148.198 1337.69 149.85 1356.08 155.337C1371.58 159.965 1386.86 167.404 1402.79 178.078C1416.83 187.483 1429.51 198.075 1441.77 208.321C1449.08 214.423 1455.97 220.187 1462.93 225.515C1531.84 278.511 1602.41 333.304 1672.67 388.372L1672.46 388.482Z" fill="#FFE492"/>
<path d="M1669.54 386.839L1463.86 222.188C1457.15 216.811 1450.47 210.96 1443.41 204.767C1420.1 184.329 1393.69 161.164 1359.15 151.001C1325.75 141.174 1285.2 144.914 1238.63 162.12C1193.85 178.659 1153.01 200.654 1113.52 221.925C1087.77 235.791 1061.15 250.127 1033.8 262.744C951.595 300.669 879.751 323.068 807.707 333.238C777.819 337.456 748.336 339.579 719.742 339.579C711.075 339.579 702.496 339.384 694.007 338.994C653.974 337.153 617.013 330.965 584.155 320.605C553.702 311.001 525.842 297.444 498.994 279.156C477.554 264.554 457.002 247.145 434.317 224.369C422.344 212.349 410.75 199.861 399.538 187.783C374.163 160.453 347.925 132.192 315.44 107.32C265.613 69.1709 200.211 39.2541 126.303 20.8028C41.9193 -0.264808 -43.2115 -5.17657 -113.404 6.97385C-181.363 18.7373 -255.122 55.8318 -256.48 109.481L-256.754 109.478C-256.147 85.4975 -240.728 62.7462 -212.165 43.6831C-186.339 26.4466 -151.291 13.3497 -113.476 6.80478C-76.4158 0.390559 -35.5748 -1.33675 7.9071 1.6734C46.951 4.37505 86.8192 10.7579 126.404 20.6407C162.975 29.7705 197.707 41.7884 229.639 56.3616C261.838 71.0568 290.777 88.1626 315.649 107.205C348.147 132.086 374.394 160.354 399.774 187.691C410.986 199.767 422.58 212.253 434.55 224.271C467.648 257.503 514.578 298.465 584.279 320.445C664.213 345.65 749.866 341.219 807.646 333.064C879.655 322.9 951.466 300.51 1033.64 262.6C1060.98 249.987 1087.6 235.651 1113.34 221.789C1152.84 200.514 1193.69 178.514 1238.49 161.966C1285.14 144.731 1325.78 140.988 1359.27 150.841C1374.73 155.392 1389.87 162.895 1405.55 173.784C1419.35 183.368 1431.7 194.194 1443.63 204.663C1450.7 210.855 1457.37 216.703 1464.08 222.079L1669.76 386.729L1669.54 386.839Z" fill="#FFE492"/>
<path d="M1667.89 374.18C1615.51 328.336 1570.57 291.135 1526.47 257.11C1505.06 240.582 1483.19 224.312 1461.48 208.755C1454.91 204.048 1448.4 199.043 1441.51 193.742C1424.2 180.42 1406.3 166.646 1385.69 156.423C1374.63 150.924 1363.98 146.986 1353.14 144.386C1319.85 136.324 1280.8 141.654 1237.07 160.23C1214.43 169.828 1193.82 180.752 1176.64 190.171C1158.46 200.142 1140.52 211.139 1123.18 221.773C1098.24 237.059 1072.46 252.864 1044.74 266.439C1027.88 274.723 1010.79 282.126 993.932 288.442C960.213 301.079 924.022 311.492 886.363 319.391C863.096 324.217 839.716 327.866 816.877 330.233C797.193 332.265 777.473 333.438 758.262 333.719C729.509 334.14 701.496 332.531 674.999 328.932C646.827 325.105 620.165 318.995 595.758 310.772C573.993 303.439 553.435 294.207 532.91 282.544C494.664 260.83 464.158 235.722 441.855 216.274C430.899 206.675 420.201 196.886 409.854 187.42C380.063 160.158 351.923 134.409 316.71 111.473C287.991 92.8889 255.223 76.8516 219.31 63.8036C191.711 53.7761 161.695 45.5753 130.095 39.4278C122.568 37.9654 114.899 36.6024 107.306 35.3806C74.6154 30.1289 37.814 26.7092 -2.0735 25.2154C-42.288 23.6746 -77.0806 25.008 -108.433 29.2958C-126.157 31.7011 -143.33 35.4747 -159.48 40.5102C-216.496 58.2888 -253.108 88.1341 -257.417 120.348L-257.76 120.329C-256.611 111.741 -253.239 103.282 -247.741 95.1845C-242.517 87.4926 -235.342 80.0744 -226.416 73.1356C-209.552 60.0283 -186.457 48.6779 -159.631 40.3133C-143.456 35.269 -126.256 31.4902 -108.504 29.0814C-77.1191 24.7901 -42.299 23.455 -2.05153 24.9976C37.8579 26.4913 74.6786 29.9145 107.391 35.1697C114.992 36.3933 122.664 37.7563 130.197 39.2204C161.821 45.3714 191.862 53.5792 219.483 63.6153C255.421 76.6721 288.216 92.7234 316.949 111.319C352.184 134.269 380.33 160.026 410.132 187.295C420.475 196.761 431.173 206.548 442.127 216.145C464.419 235.584 494.911 260.68 533.136 282.38C553.639 294.03 574.175 303.254 595.914 310.579C643.683 326.672 698.3 334.384 758.251 333.501C777.445 333.22 797.151 332.047 816.819 330.016C839.641 327.649 863.005 324.005 886.253 319.182C923.89 311.288 960.059 300.882 993.756 288.252C1010.6 281.941 1027.68 274.542 1044.53 266.265C1072.23 252.697 1098.01 236.895 1122.93 221.614C1140.29 210.979 1158.22 199.979 1176.42 190.003C1193.6 180.579 1214.22 169.652 1236.87 160.047C1256.35 151.776 1275.2 146.062 1292.92 143.063C1314.68 139.378 1334.98 139.755 1353.26 144.182C1364.14 146.791 1374.82 150.739 1385.91 156.25C1406.54 166.489 1424.45 180.272 1441.78 193.603C1448.67 198.901 1455.17 203.907 1461.73 208.61C1483.46 224.17 1505.32 240.44 1526.74 256.973C1570.84 291.001 1615.79 328.205 1668.17 374.053L1667.89 374.18Z" fill="#FFE492"/>
<path d="M1666.23 361.52C1617.67 314.9 1572.09 275.889 1526.9 242.257C1504.85 225.83 1482.04 210.038 1459.09 195.322C1453 191.418 1446.99 187.36 1440.63 183.065C1421.57 170.204 1401.86 156.905 1379.79 147.703C1368.64 143.037 1357.96 139.788 1347.13 137.77C1305.66 130.038 1263.54 144.686 1235.5 158.336C1215.64 167.978 1197.5 178.88 1179.12 190.135C1163.04 199.986 1147.9 210.584 1131.88 221.802C1108.1 238.454 1083.51 255.673 1055.69 270.131C1039.18 278.757 1021.94 286.216 1004.47 292.299C971.917 303.632 936.273 312.432 895.498 319.205C872.678 322.995 849.309 325.695 826.039 327.227C806.404 328.504 786.805 328.961 767.784 328.579C739.484 328.018 711.823 325.494 685.563 321.079C657.984 316.441 631.669 309.664 607.352 300.937C586.046 293.292 565.475 283.807 544.46 271.941C506.296 250.42 473.603 226.562 449.387 208.18C440.423 201.375 431.602 194.529 423.07 187.906C389.09 161.531 356.996 136.616 317.98 115.627C288.821 99.9401 256.084 86.6759 220.684 76.204C193.899 68.2804 165.509 62.3437 133.896 58.0542C126.6 57.0659 119.177 56.1753 111.837 55.4066C79.5976 52.0479 45.1897 50.7772 3.55997 49.463C-26.4484 48.4677 -65.7313 47.8124 -103.47 51.6156C-121.343 53.383 -138.62 56.4524 -154.825 60.7349C-211.879 75.8171 -250.582 102.164 -258.359 131.216L-258.766 131.173C-256.705 123.469 -252.528 115.913 -246.358 108.713C-240.478 101.852 -232.75 95.2741 -223.393 89.1562C-205.611 77.5339 -181.956 67.6215 -154.984 60.4927C-138.749 56.2014 -121.439 53.1268 -103.536 51.3559C-65.7615 47.5474 -26.4484 48.2046 3.57919 49.1998C45.2227 50.514 79.6416 51.7847 111.903 55.1452C119.249 55.9156 126.677 56.8062 133.981 57.7945C165.624 62.0893 194.042 68.0311 220.857 75.9635C256.292 86.4459 289.057 99.7205 318.246 115.423C357.29 136.428 389.398 161.349 423.388 187.735C431.918 194.356 440.739 201.203 449.703 208.006C473.913 226.38 506.593 250.23 544.735 271.74C565.725 283.594 586.274 293.069 607.555 300.705C655.37 317.865 709.286 327.154 767.797 328.314C786.803 328.694 806.382 328.239 825.998 326.962C849.246 325.431 872.596 322.735 895.393 318.947C936.135 312.181 971.75 303.388 1004.27 292.065C1021.73 285.989 1038.94 278.541 1055.43 269.924C1083.23 255.478 1107.81 238.266 1131.58 221.622C1147.61 210.399 1162.74 199.8 1178.84 189.943C1197.22 178.682 1215.37 167.776 1235.26 158.123C1253.43 149.274 1271.36 142.908 1288.54 139.199C1309.38 134.702 1329.13 134.136 1347.25 137.514C1358.12 139.541 1368.84 142.8 1380.02 147.48C1402.13 156.699 1421.86 170.01 1440.93 182.882C1447.29 187.175 1453.31 191.231 1459.39 195.134C1482.35 209.855 1505.16 225.652 1527.21 242.085C1572.42 275.725 1618.01 314.743 1666.57 361.374L1666.23 361.52Z" fill="#FFE492"/>
<path d="M1664.57 348.858C1619.12 300.83 1574.23 261.102 1527.32 227.405C1504.65 211.078 1480.89 195.766 1456.71 181.89C1451.55 178.923 1446.23 175.775 1441.08 172.732C1419.84 160.158 1397.87 147.157 1373.88 138.984C1362.63 135.122 1351.91 132.56 1341.13 131.153C1299.75 125.751 1260 141.923 1233.95 156.439C1216.28 166.238 1200.14 177.344 1184.53 188.086L1181.6 190.098C1167.43 199.843 1154.13 210.531 1140.05 221.848C1117.63 239.869 1094.44 258.501 1066.63 273.822C1050.45 282.802 1033.08 290.316 1015 296.155C983.484 306.336 948.408 313.601 904.624 319.018C881.983 321.819 858.625 323.569 835.195 324.218C815.61 324.739 796.132 324.477 777.297 323.437C720.276 320.301 666.998 309.421 618.94 291.101C598.165 283.18 577.58 273.446 556.011 261.336C519.509 240.885 487.044 219.864 456.923 200.087C452.883 197.436 448.888 194.802 444.922 192.189C403.782 165.087 364.925 139.488 319.258 119.785C289.445 106.922 256.741 96.4325 222.058 88.6064C196.595 82.8615 168.999 78.9607 137.699 76.6808C130.645 76.1702 123.47 75.7501 116.372 75.4329C98.5154 74.6485 79.576 74.5213 59.5237 74.3871C43.4176 74.279 26.7646 74.1675 9.19104 73.7125C-24.7497 72.7591 -63.2164 71.6802 -98.512 73.9391C-116.723 75.1052 -134.104 77.4687 -150.175 80.9651C-207.207 93.3753 -248.004 116.228 -259.307 142.095L-259.771 142.014C-256.792 135.193 -251.813 128.54 -244.973 122.239C-238.433 116.214 -230.156 110.472 -220.373 105.175C-201.662 95.0451 -177.441 86.5741 -150.334 80.6758C-134.228 77.1706 -116.811 74.8019 -98.5642 73.6341C-63.2329 71.3734 -24.747 72.4541 9.20752 73.4075C26.7701 73.8607 43.4231 73.974 59.5237 74.082C79.5843 74.2163 98.5291 74.3435 116.402 75.1296C123.506 75.4486 130.689 75.8686 137.749 76.3793C169.087 78.6609 196.716 82.5669 222.215 88.3206C256.938 96.1553 289.678 106.657 319.525 119.534C365.232 139.254 404.109 164.866 445.266 191.98C449.231 194.593 453.229 197.225 457.266 199.877C487.382 219.652 519.836 240.667 556.327 261.111C577.874 273.207 598.437 282.933 619.188 290.843C667.182 309.141 720.392 320.005 777.339 323.137C796.152 324.176 815.61 324.437 835.173 323.916C858.578 323.268 881.915 321.519 904.531 318.722C948.271 313.31 983.305 306.054 1014.78 295.887C1032.82 290.06 1050.16 282.56 1066.31 273.596C1094.09 258.294 1117.26 239.672 1139.66 221.661C1153.75 210.339 1167.06 199.646 1181.24 189.894L1184.17 187.882C1199.79 177.135 1215.94 166.022 1233.62 156.212C1259.76 141.649 1299.65 125.431 1341.22 130.857C1352.05 132.27 1362.81 134.841 1374.11 138.719C1398.15 146.91 1420.14 159.925 1441.41 172.512C1446.55 175.556 1451.87 178.704 1457.03 181.668C1481.22 195.551 1504.99 210.872 1527.68 227.208C1574.6 260.919 1619.51 300.661 1664.97 348.705L1664.57 348.858Z" fill="#FFE492"/>
<path d="M1662.91 336.195C1621.18 287.441 1575.71 245.841 1527.76 212.554C1504.44 196.33 1479.74 181.495 1454.34 168.461C1450.67 166.579 1446.91 164.625 1443.28 162.735C1419.27 150.254 1394.44 137.345 1367.99 130.269C1356.64 127.199 1345.9 125.325 1335.14 124.538C1293.88 121.519 1256.49 139.187 1232.39 154.541C1217.43 164.027 1203.92 174.575 1190.86 184.777C1188.6 186.543 1186.35 188.305 1184.08 190.06C1171.66 199.702 1160.04 210.474 1147.75 221.877C1126.84 241.262 1105.22 261.307 1077.58 277.517C1061.34 287.035 1044.32 294.394 1025.53 300.017C986.243 311.777 946.976 316.129 913.75 318.838C891.277 320.668 867.93 321.47 844.352 321.215C824.827 320.98 805.467 319.999 786.814 318.301C731.504 313.279 678.924 300.821 630.534 281.269C610.399 273.137 589.803 263.149 567.563 250.737C545.098 238.23 524.164 226.194 503.916 214.554C490.157 206.643 477.159 199.171 464.466 192.002C416.485 164.902 372.536 141.075 320.547 123.948C290.093 113.917 257.422 106.2 223.44 101.011C199.084 97.2911 173.05 95.4801 141.511 95.3075C134.707 95.2762 127.776 95.3267 120.914 95.4592C110.491 95.6736 99.7077 96.1215 88.2952 96.5973C66.3935 97.5089 41.5652 98.5425 14.8215 97.9639C4.63733 97.7425 -5.75291 97.4305 -15.8024 97.1272C-41.6503 96.3481 -68.3775 95.5428 -93.5576 96.2627C-112.049 96.7926 -129.537 98.4519 -145.531 101.195C-202.467 110.965 -245.355 130.324 -260.261 152.981L-260.769 152.847C-256.867 146.914 -251.085 141.166 -243.586 135.761C-236.383 130.57 -227.556 125.667 -217.356 121.189C-197.699 112.561 -172.915 105.532 -145.679 100.859C-129.647 98.1085 -112.12 96.444 -93.5878 95.9141C-68.3802 95.1925 -41.642 95.9995 -15.7804 96.7786C-5.73367 97.0819 4.65659 97.3939 14.838 97.6153C41.5569 98.1939 66.3661 97.1621 88.2567 96.2505C99.6748 95.7747 110.461 95.3267 120.895 95.1123C127.765 94.9798 134.701 94.9293 141.513 94.9607C173.096 95.1315 199.169 96.9477 223.566 100.672C257.59 105.868 290.305 113.595 320.797 123.64C344.281 131.375 368.079 141.176 393.55 153.6C416.354 164.722 438.536 176.892 464.829 191.742C477.522 198.913 490.52 206.385 504.282 214.297C524.526 225.934 545.461 237.97 567.92 250.476C590.138 262.876 610.713 272.852 630.823 280.977C679.146 300.502 731.653 312.943 786.885 317.958C805.517 319.654 824.852 320.633 844.354 320.868C867.905 321.123 891.228 320.323 913.673 318.493C946.858 315.789 986.072 311.442 1025.29 299.703C1044.03 294.096 1061.01 286.756 1077.2 277.262C1104.8 261.08 1126.4 241.051 1147.29 221.682C1159.59 210.272 1171.21 199.495 1183.65 189.842C1185.91 188.087 1188.17 186.325 1190.43 184.561C1203.5 174.352 1217.01 163.797 1232 154.299C1247.67 144.31 1263.76 136.625 1279.8 131.459C1298.8 125.339 1317.44 122.896 1335.19 124.196C1346 124.987 1356.8 126.87 1368.2 129.951C1394.71 137.047 1419.57 149.971 1443.61 162.469C1447.25 164.358 1451 166.312 1454.67 168.193C1480.09 181.237 1504.81 196.086 1528.15 212.322C1553.61 229.997 1578.55 250.136 1602.26 272.178C1623.22 291.659 1643.79 313.143 1663.38 336.031L1662.91 336.195Z" fill="#FFE492"/>
<path d="M1661.25 323.529C1622.63 273.378 1577.86 231.044 1528.19 197.702C1504.24 181.581 1478.59 167.226 1451.97 155.032C1450.7 154.452 1449.43 153.871 1448.16 153.289C1420.48 140.593 1391.85 127.465 1362.11 121.554C1350.59 119.264 1339.81 118.077 1329.16 117.924C1288.06 117.335 1253.01 136.48 1230.85 152.643C1217.81 162.098 1206.23 172.462 1195.03 182.484C1192.27 184.963 1189.4 187.525 1186.58 190.021C1175.81 199.527 1165.81 210.336 1155.22 221.78C1135.95 242.597 1116.03 264.121 1088.53 281.209C1072.62 291.096 1055.46 298.51 1036.07 303.879C997.878 314.453 959.095 317.23 922.876 318.656C900.543 319.534 877.204 319.384 853.508 318.211C834.047 317.218 814.81 315.518 796.33 313.162C742.903 306.364 691.02 292.326 642.13 271.436C622.551 263.072 602.529 253.126 579.124 240.137C534.642 215.519 501.611 198.18 472.026 183.917C413.182 155.55 368.271 138.861 321.86 128.113C290.788 120.918 258.15 115.973 224.847 113.415C201.742 111.64 177.221 111.799 145.344 113.934C138.812 114.377 132.129 114.898 125.479 115.485C119.197 116.048 112.816 116.693 106.058 117.375C81.1091 119.893 52.8293 122.748 20.4631 122.215C3.40344 121.934 -14.0218 121.166 -30.8726 120.423C-50.0235 119.58 -69.8257 118.706 -88.6002 118.588C-107.424 118.469 -125.02 119.425 -140.884 121.429C-197.631 128.594 -242.616 144.464 -261.217 163.88L-261.745 163.676C-256.913 158.631 -250.329 153.788 -242.176 149.279C-234.306 144.925 -224.935 140.862 -214.322 137.2C-193.706 130.085 -168.353 124.497 -141.005 121.044C-125.097 119.036 -107.463 118.077 -88.5947 118.196C-69.8038 118.314 -49.9906 119.187 -30.8314 120.033C-13.986 120.775 3.43088 121.544 20.4768 121.825C52.7853 122.356 81.0349 119.505 105.957 116.99C112.717 116.306 119.103 115.663 125.388 115.098C132.046 114.511 138.735 113.99 145.273 113.545C177.199 111.409 201.761 111.248 224.916 113.028C258.266 115.59 290.95 120.542 322.066 127.747C368.541 138.509 413.498 155.215 472.394 183.607C501.99 197.875 535.032 215.22 579.525 239.845C602.914 252.823 622.914 262.758 642.471 271.114C691.295 291.974 743.101 305.993 796.448 312.78C814.904 315.133 834.118 316.829 853.552 317.823C877.221 318.994 900.529 319.144 922.835 318.267C958.999 316.843 997.716 314.073 1035.82 303.523C1055.14 298.176 1072.24 290.785 1088.09 280.934C1115.53 263.882 1135.44 242.381 1154.68 221.587C1165.28 210.135 1175.29 199.318 1186.07 189.798C1188.9 187.304 1191.76 184.742 1194.53 182.263C1205.73 172.232 1217.32 161.861 1230.38 152.39C1244.84 141.841 1260.01 133.497 1275.45 127.589C1293.53 120.667 1311.61 117.288 1329.17 117.537C1339.89 117.69 1350.72 118.884 1362.3 121.185C1392.13 127.116 1420.8 140.262 1448.52 152.977C1449.79 153.559 1451.06 154.142 1452.33 154.72C1478.98 166.928 1504.66 181.301 1528.64 197.439C1578.35 230.811 1623.16 273.178 1661.8 323.364L1661.25 323.529Z" fill="#FFE492"/>
<path d="M936.55 318.475C935.009 318.475 933.489 318.473 931.994 318.468C909.776 318.408 886.446 317.31 862.656 315.201C843.266 313.45 824.151 311.032 805.841 308.018C779.68 303.72 753.425 297.543 727.8 289.659C703.054 282.046 678.132 272.606 653.724 261.599C629.809 250.815 607.47 238.799 590.68 229.535C551.394 207.918 514.015 189.85 479.583 175.831C423.814 153.127 374.116 139.286 323.177 132.274C292.445 128.044 259.475 125.813 227.73 125.813C227.238 125.813 226.749 125.813 226.257 125.814C198.985 125.874 173.094 129.088 149.18 132.553C142.956 133.461 136.517 134.453 130.043 135.504C126.495 136.086 122.942 136.685 119.183 137.32C92.6674 141.801 62.6123 146.878 26.0994 146.462C3.86243 146.207 -18.8499 144.747 -40.8148 143.333C-54.9974 142.42 -69.6608 141.477 -83.6482 140.907C-102.876 140.124 -120.571 140.375 -136.245 141.656C-192.689 146.265 -239.771 158.647 -262.192 174.78L-262.709 174.493C-251.209 166.219 -233.91 159.055 -211.294 153.199C-189.694 147.607 -163.772 143.466 -136.333 141.226C-120.617 139.943 -102.876 139.689 -83.6042 140.475C-69.6031 141.045 -54.9314 141.989 -40.7434 142.903C-18.7922 144.316 3.90637 145.777 26.1131 146.03C62.5326 146.446 92.5354 141.376 119.007 136.903C122.769 136.267 126.322 135.668 129.873 135.085C136.353 134.034 142.797 133.041 149.026 132.133C172.981 128.662 198.917 125.443 226.254 125.382C258.505 125.311 292.066 127.549 323.322 131.852C349.612 135.472 375.1 140.801 401.237 148.142C426.409 155.213 452.157 164.152 479.951 175.469C514.411 189.498 551.817 207.58 591.127 229.211C607.904 238.469 630.226 250.477 654.117 261.249C703.645 283.583 754.75 299.178 806.011 307.602C824.297 310.612 843.387 313.026 862.75 314.776C886.509 316.882 909.807 317.98 931.994 318.037C966.713 318.128 1007.03 317.385 1046.34 307.337C1066.25 302.251 1083.46 294.813 1098.98 284.601C1126.23 266.666 1144.3 243.646 1161.77 221.383C1170.76 209.931 1179.25 199.114 1188.48 189.751C1191.44 186.751 1194.42 183.661 1197.31 180.672C1207.06 170.573 1217.14 160.132 1228.75 150.481C1242.02 139.378 1256.27 130.372 1271.08 123.714C1288.26 115.994 1305.77 111.675 1323.13 110.877C1333.84 110.384 1344.72 110.887 1356.37 112.418C1387.54 116.507 1418.43 128.387 1449.97 141.245C1477.46 152.456 1504.83 166.74 1529.11 182.554C1556.07 200.069 1581.41 220.618 1604.42 243.627C1624.91 264.126 1643.68 286.691 1660.21 310.696L1659.58 310.87C1624.09 259.319 1580.03 216.25 1528.62 182.859C1504.37 167.068 1477.05 152.805 1449.59 141.613C1418.11 128.777 1387.28 116.92 1356.23 112.845C1344.64 111.323 1333.83 110.823 1323.18 111.313C1291.28 112.782 1257.94 126.785 1229.3 150.746C1217.71 160.38 1207.63 170.812 1197.89 180.9C1195.01 183.891 1192.02 186.983 1189.06 189.983C1179.85 199.329 1171.37 210.137 1162.39 221.578C1153.81 232.501 1144.95 243.798 1134.78 254.657C1123.24 266.967 1111.7 276.861 1099.48 284.905C1083.89 295.162 1066.6 302.633 1046.6 307.743C1028.97 312.25 1010.02 315.229 988.661 316.854C970.576 318.222 952.412 318.475 936.55 318.475Z" fill="#FFE492"/>
<path d="M980.618 319.349C966.606 319.349 953.146 318.819 941.104 318.282C918.963 317.296 895.644 315.248 871.796 312.194C852.489 309.686 833.494 306.552 815.341 302.876C765.632 292.831 716.555 276.111 665.307 251.763C642.958 241.146 621.889 229.722 602.229 218.933C563.417 197.695 524.697 180.474 487.14 167.747C431.905 149.029 380.225 139.078 324.501 136.432C292.751 134.924 259.269 135.54 227.672 138.21C201.225 140.445 176.292 145.837 153.017 151.167C147.194 152.508 141 153.972 134.61 155.518C133.014 155.907 131.404 156.302 129.771 156.701C102.964 163.276 72.6317 170.715 33.7032 170.715C33.0465 170.715 32.3925 170.713 31.7302 170.708C5.39319 170.539 -21.4962 168.155 -47.5034 165.847C-57.8139 164.932 -68.4763 163.987 -78.7071 163.222C-98.6907 161.73 -115.998 161.289 -131.62 161.878C-188.441 164.022 -236.402 172.695 -263.201 185.679L-263.66 185.297C-250.411 178.879 -231.255 173.307 -208.268 169.183C-185.657 165.127 -159.169 162.436 -131.667 161.399C-116 160.808 -98.6495 161.249 -78.6219 162.744C-68.3801 163.51 -57.715 164.456 -47.4017 165.369C-21.4192 167.674 5.4454 170.056 31.7329 170.225C71.472 170.483 102.299 162.92 129.494 156.25C131.123 155.851 132.736 155.455 134.333 155.065C140.728 153.517 146.924 152.053 152.753 150.713C176.067 145.372 201.047 139.972 227.565 137.731C259.211 135.057 292.748 134.44 324.551 135.949C352.165 137.26 378.494 140.356 405.04 145.41C432.38 150.617 459.349 157.782 487.489 167.32C525.093 180.065 563.862 197.306 602.716 218.566C622.367 229.351 643.422 240.768 665.753 251.374C716.932 275.689 765.934 292.385 815.564 302.414C833.689 306.083 852.659 309.213 871.939 311.718C895.753 314.768 919.04 316.815 941.148 317.798C978.351 319.454 1017.93 320.304 1056.86 311.141C1077.35 306.318 1094.69 298.834 1109.86 288.259C1136.89 269.423 1153.72 243.729 1168.57 221.06C1176.04 209.654 1183.09 198.88 1190.88 189.696C1193.69 186.383 1196.52 182.958 1199.25 179.646C1207.8 169.284 1216.64 158.57 1227.11 148.563C1239.22 136.906 1252.55 127.238 1266.71 119.827C1282.98 111.316 1299.92 106.059 1317.07 104.206C1327.79 103.047 1338.71 102.862 1350.44 103.636C1383.21 105.803 1416.5 116.508 1447.6 127.756C1476.31 138.14 1504.66 151.938 1529.58 167.656C1557.29 185.09 1582.83 205.843 1605.48 229.337C1625.74 250.347 1643.62 273.452 1658.62 298.015L1657.92 298.187C1626.02 245.978 1581.46 200.958 1529.04 167.994C1504.18 152.306 1475.88 138.534 1447.23 128.17C1416.2 116.949 1383 106.27 1350.36 104.112C1338.7 103.341 1327.86 103.526 1317.21 104.677C1285.54 108.098 1253.77 123.776 1227.75 148.825C1217.3 158.81 1208.47 169.514 1199.92 179.866C1197.19 183.179 1194.36 186.604 1191.55 189.921C1183.78 199.084 1176.73 209.847 1169.27 221.241C1154.4 243.945 1137.54 269.681 1110.42 288.58C1095.16 299.212 1077.73 306.738 1057.13 311.589C1039.25 315.797 1019.96 318.234 998.161 319.034C992.267 319.26 986.397 319.349 980.618 319.349Z" fill="#FFE492"/>
<path d="M1008.28 321.236C1008.08 321.236 1007.88 321.236 1007.68 321.236C987.875 321.204 968.433 319.667 950.213 318.095C928.106 316.188 904.8 313.188 880.939 309.183C861.719 305.922 842.846 302.068 824.846 297.731C777.124 286.25 730.114 268.519 676.898 241.926C657.734 232.351 638.874 222.042 620.633 212.073C618.352 210.825 616.068 209.579 613.785 208.333C574.771 187.1 534.708 170.724 494.71 159.663C439.94 144.518 384.702 138.279 325.839 140.588C293.564 141.855 260.112 145.318 229.101 150.603C204.632 154.774 182.83 161.466 156.866 169.78C151.604 171.472 145.984 173.299 139.186 175.53L138.806 175.655C125.69 179.988 110.823 184.898 94.1483 188.632C74.9974 192.92 56.418 194.983 37.366 194.959C7.65723 194.912 -22.6617 191.405 -51.9803 188.011C-59.1636 187.18 -66.5942 186.321 -73.7665 185.543C-94.3354 183.318 -111.747 182.193 -126.996 182.108C-183.143 181.794 -233.163 187.072 -264.226 196.585L-264.583 196.115C-249.368 191.454 -228.843 187.672 -205.229 185.176C-181.571 182.674 -154.514 181.433 -126.987 181.587C-111.695 181.672 -94.2393 182.798 -73.6264 185.029C-66.4486 185.807 -59.0179 186.666 -51.8319 187.497C-22.549 190.886 7.73141 194.389 37.3688 194.436C37.5007 194.436 37.6353 194.436 37.7672 194.436C80.1609 194.436 112.458 183.769 138.427 175.192L138.809 175.066C145.61 172.833 151.23 171.007 156.495 169.314C182.503 160.986 204.344 154.283 228.889 150.1C259.953 144.804 293.459 141.336 325.79 140.067C354.594 138.937 381.764 139.798 408.857 142.702C438.052 145.831 466.244 151.222 495.04 159.186C535.114 170.268 575.246 186.669 614.323 207.937C616.607 209.184 618.89 210.432 621.171 211.68C639.404 221.644 658.259 231.951 677.407 241.518C730.553 268.078 777.495 285.785 825.137 297.247C843.112 301.578 861.958 305.425 881.15 308.682C904.978 312.683 928.251 315.677 950.323 317.58C989.859 320.993 1028.56 323.36 1067.39 314.966C1088.47 310.41 1105.92 302.878 1120.75 291.939C1147.55 272.179 1162.18 244.798 1175.1 220.639C1181.14 209.328 1186.85 198.644 1193.29 189.666C1195.77 186.211 1198.26 182.638 1200.66 179.181C1208.18 168.375 1215.96 157.202 1225.49 146.668C1236.46 134.451 1248.87 124.118 1262.35 115.958C1277.72 106.657 1294.09 100.466 1311.03 97.5587C1321.53 95.7564 1332.24 94.8779 1343.76 94.8779C1344.01 94.8779 1344.26 94.8779 1344.51 94.8797C1380.31 94.9982 1417.14 105.313 1445.24 114.286C1475.17 123.847 1504.5 137.156 1530.06 152.777C1558.53 170.13 1584.27 191.088 1606.56 215.07C1626.57 236.59 1643.55 260.238 1657.04 285.358L1656.26 285.527C1636.19 248.15 1597.89 194.846 1529.48 153.155C1503.99 137.569 1474.72 124.291 1444.87 114.753C1416.85 105.805 1380.13 95.5194 1344.51 95.4026C1332.78 95.359 1321.9 96.234 1311.25 98.0641C1279.87 103.452 1249.67 120.805 1226.2 146.927C1216.69 157.438 1208.93 168.598 1201.42 179.392C1199.01 182.85 1196.52 186.425 1194.05 189.882C1187.62 198.837 1181.92 209.508 1175.88 220.806C1162.94 245.009 1148.28 272.442 1121.38 292.279C1106.45 303.291 1088.88 310.873 1067.66 315.459C1049.68 319.344 1030.25 321.236 1008.28 321.236Z" fill="#FFE492"/>
<path d="M1030.27 323.69C1026 323.69 1021.65 323.602 1017.18 323.428C997.65 322.666 978.667 320.381 959.321 317.906C936.894 315.037 914.245 311.199 890.079 306.173C870.958 302.16 852.208 297.59 834.349 292.586C789.042 279.911 744.057 261.252 688.49 232.088C674.689 224.846 660.894 217.25 647.553 209.903C640.29 205.905 632.782 201.769 625.343 197.73C585.865 176.354 544.463 160.828 502.287 151.579C446.56 139.359 389.286 137.121 327.186 144.738C294.377 148.763 260.956 155.074 230.538 162.989C206.103 169.347 184.817 178.277 162.28 187.731L160.722 188.384C157.202 189.866 153.643 191.368 150.041 192.888C147.966 193.765 145.877 194.647 143.77 195.536C130.629 201.108 116.435 206.921 100.159 211.395C81.2605 216.59 62.5685 219.145 43.0081 219.208C10.4441 219.309 -22.7712 214.508 -54.89 209.862C-59.4737 209.198 -64.2168 208.513 -68.8197 207.862C-90.3999 204.812 -107.413 203.057 -122.368 202.335C-177.553 199.674 -229.634 201.549 -265.259 207.482L-265.487 206.935C-229.768 200.986 -177.581 199.104 -122.299 201.771C-107.303 202.494 -90.246 204.254 -68.6246 207.31C-64.0189 207.962 -59.2759 208.647 -54.6894 209.311C-22.9636 213.9 9.8313 218.643 41.9638 218.643C42.3101 218.643 42.6564 218.643 43.0054 218.641C84.5664 218.509 114.151 207.413 143.278 195.065C145.385 194.176 147.474 193.294 149.549 192.418C153.151 190.896 156.707 189.395 160.23 187.912L161.788 187.258C184.363 177.789 205.685 168.844 230.2 162.464C260.673 154.534 294.152 148.212 327.018 144.18C389.275 136.544 446.703 138.789 502.581 151.042C544.862 160.315 586.36 175.877 625.926 197.3C633.365 201.34 640.875 205.474 648.138 209.475C661.474 216.82 675.266 224.414 689.059 231.651C744.56 260.781 789.482 279.414 834.709 292.068C852.544 297.064 871.266 301.629 890.359 305.634C914.489 310.654 937.106 314.487 959.499 317.35C993.492 321.699 1035.8 327.113 1077.93 318.774C1099.59 314.488 1117.16 306.91 1131.64 295.605C1158.18 274.898 1170.48 245.774 1181.34 220.081C1186.05 208.919 1190.51 198.375 1195.71 189.625C1197.73 186.216 1199.76 182.69 1201.73 179.279C1208.31 167.84 1215.12 156.012 1223.86 144.762C1233.73 131.978 1245.21 120.981 1257.98 112.078C1272.46 101.989 1288.27 94.8657 1304.98 90.9039C1315.7 88.3609 1326.69 86.7939 1338.57 86.1124C1354.49 85.1991 1371.43 86.1752 1390.37 89.0894C1406.39 91.5575 1423.56 95.3886 1442.88 100.804C1474.02 109.538 1504.33 122.361 1530.53 137.886C1559.77 155.158 1585.71 176.323 1607.64 200.791C1627.39 222.824 1643.48 247.014 1655.46 272.69L1654.6 272.85C1629.3 218.643 1585.02 170.859 1529.92 138.301C1503.79 122.818 1473.57 110.032 1442.51 101.324C1400.9 89.6559 1367.9 85.0004 1338.65 86.6772C1326.85 87.3534 1315.94 88.9099 1305.29 91.4338C1265.54 100.858 1239.5 125.773 1224.66 145.012C1215.94 156.233 1209.14 168.047 1202.56 179.472C1200.6 182.885 1198.57 186.413 1196.54 189.824C1191.36 198.548 1186.91 209.079 1182.2 220.227C1171.32 245.976 1158.99 275.161 1132.34 295.962C1117.74 307.356 1100.02 314.996 1078.19 319.316C1063.39 322.245 1047.61 323.69 1030.27 323.69Z" fill="#FFE492"/>
<path d="M1049.32 326.504C1020.26 326.504 992.324 321.768 968.422 317.717C945.935 313.907 923.297 309.145 899.213 303.161C880.2 298.403 861.571 293.115 843.846 287.441C790.713 270.454 743.346 246.071 700.075 222.252C691.24 217.389 682.315 212.376 673.686 207.529C661.705 200.797 649.314 193.837 636.898 187.13C596.829 165.543 554.09 150.862 509.869 143.494C452.663 133.965 393.347 135.728 328.532 148.884C295.16 155.657 261.772 164.816 231.975 175.372C208.994 183.512 189.549 193.788 168.963 204.668C167.504 205.439 166.042 206.213 164.572 206.986L163.775 207.408C158.771 210.056 153.596 212.792 148.35 215.539C135.781 222.15 121.939 228.988 105.929 234.212C87.3445 240.276 68.6084 243.3 48.6441 243.457C13.6014 243.734 -22.1146 237.485 -56.6517 231.442C-59.0727 231.019 -61.4827 230.597 -63.8817 230.18C-86.6573 226.217 -103.272 223.867 -117.748 222.56C-171.549 217.704 -225.696 216.177 -266.306 218.372L-266.389 217.763C-225.712 215.564 -171.486 217.092 -117.614 221.955C-103.096 223.266 -86.4457 225.621 -63.6289 229.591C-61.2299 230.008 -58.8199 230.43 -56.3961 230.855C-21.925 236.886 13.7223 243.119 48.6304 242.847C91.9858 242.505 122.519 228.329 147.735 215.069C152.981 212.322 158.155 209.585 163.159 206.939L163.956 206.518C165.427 205.742 166.889 204.97 168.348 204.199C188.969 193.3 208.447 183.006 231.505 174.839C261.357 164.264 294.809 155.089 328.238 148.303C358.967 142.067 387.829 138.466 416.472 137.295C448.423 135.989 479.926 137.877 510.11 142.905C554.472 150.296 597.338 165.019 637.519 186.665C649.943 193.375 662.337 200.337 674.321 207.07C682.95 211.917 691.87 216.928 700.702 221.79C743.928 245.583 791.238 269.94 844.275 286.896C861.975 292.56 880.576 297.842 899.562 302.593C923.61 308.568 946.212 313.323 968.666 317.128C1003.14 322.971 1046.05 330.242 1088.45 322.591C1110.69 318.575 1128.38 310.949 1142.52 299.278C1168.78 277.597 1178.61 246.681 1187.28 219.404C1190.76 208.444 1194.05 198.092 1198.11 189.591C1199.61 186.447 1201.11 183.198 1202.57 180.055C1208.27 167.764 1214.16 155.052 1222.22 142.863C1230.99 129.5 1241.55 117.836 1253.59 108.199C1267.19 97.3242 1282.43 89.2681 1298.91 84.2535C1309.61 80.9976 1320.64 78.7404 1332.62 77.3512C1348.77 75.481 1366.69 75.5438 1385.88 77.5377C1402.68 79.2842 1421.06 82.5767 1440.49 87.3264C1472.85 95.2344 1504.15 107.57 1530.99 122.999C1560.98 140.19 1587.13 161.559 1608.7 186.515C1628.19 209.061 1643.39 233.794 1653.87 260.026L1652.93 260.176C1630.73 204.592 1587.2 156.035 1530.35 123.452C1503.59 108.073 1472.4 95.7782 1440.15 87.8964C1398.34 77.6807 1363.23 74.4265 1332.8 77.9526C1320.9 79.3313 1309.95 81.5728 1299.32 84.8043C1260.12 96.7351 1236.24 123.089 1223.11 143.099C1215.07 155.256 1209.18 167.95 1203.49 180.226C1202.04 183.369 1200.53 186.62 1199.03 189.767C1194.98 198.24 1191.7 208.578 1188.22 219.524C1184.05 232.647 1179.32 247.52 1172.46 261.464C1164.6 277.44 1155.05 289.93 1143.28 299.649C1136.48 305.269 1128.66 310.051 1120.04 313.865C1110.76 317.966 1100.22 321.1 1088.71 323.178C1075.54 325.557 1062.32 326.504 1049.32 326.504Z" fill="#FFE492"/>
<path d="M1066.5 329.589C1056.89 329.589 1046.83 328.996 1036.19 327.813C1015.25 325.483 995.209 321.254 977.523 317.526C955.231 312.825 931.956 306.977 908.347 300.146C889.455 294.649 870.947 288.643 853.343 282.291C802.815 264.082 759.284 239.87 711.661 212.411C707.429 209.971 703.131 207.482 698.976 205.073C682.612 195.593 665.692 185.79 648.454 176.528C607.72 154.688 563.644 140.854 517.45 135.409C459.181 128.54 396.07 134.466 329.879 153.025C295.913 162.549 262.555 174.555 233.412 187.748C211.47 197.681 193.407 209.392 174.283 221.792C172.341 223.052 170.389 224.316 168.427 225.585C163.544 228.746 158.284 232.14 152.934 235.537C141.714 242.685 128.04 250.83 111.703 257.023C93.4147 263.957 74.632 267.451 54.2857 267.704C17.039 268.169 -20.8754 260.347 -57.5421 252.782L-58.9381 252.495C-76.8909 248.793 -95.8825 245.052 -113.124 242.781C-165.677 235.86 -220.447 231.054 -267.342 229.25L-267.279 228.598C-220.335 230.404 -165.514 235.213 -112.915 242.141C-95.6242 244.419 -76.5996 248.165 -58.6194 251.872L-57.2234 252.16C-20.6363 259.707 17.2012 267.511 54.2664 267.049C97.0723 266.515 126.635 251.365 152.206 235.072C157.556 231.676 162.81 228.283 167.694 225.123C169.656 223.856 171.607 222.59 173.55 221.332C192.706 208.911 210.802 197.179 232.816 187.213C262.014 173.994 295.435 161.965 329.464 152.424C360.519 143.718 391.08 137.718 420.291 134.595C453.669 131.027 486.422 131.083 517.643 134.762C564.013 140.228 608.25 154.111 649.121 176.026C666.374 185.297 683.301 195.103 699.674 204.589C703.829 206.996 708.127 209.485 712.359 211.925C759.935 239.358 803.42 263.544 853.857 281.721C871.436 288.062 889.917 294.06 908.782 299.55C932.357 306.371 955.594 312.21 977.853 316.904C1012.74 324.263 1056.17 333.418 1098.99 326.403C1121.83 322.661 1139.63 314.99 1153.41 302.949C1179.38 280.264 1186.9 246.072 1192.94 218.597C1195.29 207.895 1197.51 197.787 1200.52 189.56C1201.47 186.967 1202.43 184.295 1203.36 181.71C1208.17 168.282 1213.14 154.395 1220.6 140.967C1232.13 120.071 1254.02 92.1165 1292.86 77.6096C1303.58 73.6042 1314.65 70.655 1326.69 68.5948C1358.18 63.127 1395.68 64.8962 1438.13 73.8499C1471.7 80.9317 1503.98 92.7789 1531.47 108.112C1562.22 125.221 1588.57 146.796 1609.78 172.242C1619.52 183.913 1628.11 196.379 1635.35 209.293C1642.26 221.628 1647.95 234.437 1652.29 247.365L1651.28 247.501C1632.19 190.536 1589.4 141.208 1530.79 108.602C1503.4 93.3262 1471.25 81.5243 1437.8 74.4687C1395.55 65.555 1358.25 63.7911 1326.96 69.224C1315.01 71.2686 1304.03 74.1951 1293.38 78.1708C1254.8 92.5767 1233.04 120.388 1221.58 141.182C1214.13 154.575 1209.17 168.442 1204.36 181.853C1203.44 184.438 1202.48 187.111 1201.53 189.707C1198.53 197.906 1196.31 208 1193.96 218.686C1190.92 232.511 1187.48 248.181 1181.59 262.97C1174.83 279.964 1165.88 293.168 1154.25 303.333C1147.61 309.132 1139.84 314.022 1131.17 317.867C1121.82 322.011 1111.08 325.096 1099.24 327.034C1088.85 328.739 1078 329.589 1066.5 329.589Z" fill="#FFE492"/>
<path d="M1082.33 332.85C1070.81 332.85 1058.67 331.904 1045.7 330.005C1024.68 326.932 1004.46 321.832 986.622 317.332C964.162 311.667 940.9 304.871 917.482 297.131C898.713 290.9 880.328 284.175 862.84 277.142C814.717 257.804 773.442 232.879 729.742 206.493C727.58 205.188 725.417 203.881 723.249 202.573C702.927 190.317 681.916 177.642 660.012 165.929C618.569 143.812 573.158 130.823 525.04 127.323C464.6 122.925 399.392 132.967 331.225 157.165C297.128 169.268 262.901 184.525 234.849 200.123C213.668 211.9 196.679 225.152 178.694 239.183C176.564 240.844 174.429 242.511 172.277 244.18C167.979 247.522 162.865 251.484 157.512 255.536C147.597 263.06 134.088 272.623 117.473 279.816C99.4766 287.609 80.6526 291.581 59.9243 291.956C42.8867 292.226 24.0847 290.558 2.44131 286.854C-16.1408 283.675 -34.1155 279.52 -54.0057 274.813C-72.1618 270.465 -91.3237 265.973 -108.515 263.006C-159.439 254.218 -213.229 246.523 -268.387 240.13L-268.189 239.445C-212.998 245.84 -159.178 253.542 -108.227 262.334C-90.9885 265.309 -71.7991 269.808 -53.621 274.16C-20.282 282.05 21.2103 291.874 59.8941 291.259C104.121 290.457 132.543 273.4 156.668 255.086C162.019 251.037 167.13 247.077 171.425 243.738C173.577 242.068 175.712 240.402 177.839 238.742C195.855 224.688 212.874 211.414 234.124 199.598C262.233 183.969 296.526 168.683 330.689 156.557C399.063 132.285 464.496 122.218 525.166 126.631C548.428 128.324 571.278 132.254 593.075 138.313C616.464 144.812 639.223 153.926 660.721 165.397C682.65 177.122 703.675 189.804 724.007 202.07C726.176 203.379 728.341 204.684 730.504 205.99C774.161 232.352 815.401 257.253 863.431 276.555C880.894 283.577 899.251 290.293 917.993 296.514C941.378 304.242 964.605 311.029 987.031 316.685C1022.28 325.575 1066.14 336.637 1109.52 330.222C1133.01 326.746 1150.93 319.028 1164.29 306.628C1190.04 282.945 1194.62 246.765 1198.3 217.696C1199.62 207.299 1200.87 197.479 1202.93 189.537C1203.36 187.899 1203.78 186.252 1204.21 184.596C1208.06 169.639 1212.05 154.172 1218.97 139.078C1228.86 117.367 1248.65 87.9279 1286.8 70.972C1297.44 66.2415 1308.54 62.6022 1320.74 59.8448C1337.7 55.9771 1356.6 54.1591 1376.91 54.438C1395.45 54.6925 1415.25 56.6917 1435.75 60.3781C1470.54 66.6302 1503.8 77.9893 1531.94 93.2266C1563.45 110.252 1590 132.036 1610.85 157.97C1620.42 169.87 1628.71 182.592 1635.48 195.783C1641.96 208.416 1647.09 221.513 1650.7 234.709L1649.61 234.827C1633.88 177.324 1590.73 125.906 1531.23 93.7565C1503.2 78.5854 1470.09 67.2734 1435.45 61.0457C1392.74 53.3661 1353.2 53.1778 1321.1 60.4984C1309 63.2349 1297.98 66.8464 1287.42 71.5402C1249.54 88.3793 1229.87 117.667 1220.03 139.27C1213.12 154.324 1209.14 169.768 1205.29 184.706C1204.87 186.362 1204.44 188.011 1204.01 189.649C1201.96 197.56 1200.71 207.368 1199.4 217.75C1195.7 246.903 1191.1 283.187 1165.2 307.022C1158.76 312.999 1151.05 318.001 1142.31 321.887C1132.9 326.066 1121.95 329.099 1109.77 330.901C1100.97 332.198 1091.87 332.85 1082.33 332.85Z" fill="#FFE492"/>
<path d="M1097.2 336.242C1084.08 336.242 1070.18 334.897 1055.2 332.195C1034.01 328.373 1013.66 322.403 995.716 317.137C973.033 310.482 949.782 302.735 926.608 294.114C907.974 287.159 889.714 279.715 872.33 271.992C829.524 252.979 792.939 229.688 754.206 205.028C747.875 200.996 741.326 196.829 734.83 192.731C711.994 178.334 692.494 166.462 671.562 155.326C629.38 132.917 582.636 120.773 532.625 119.232C469.784 117.296 402.471 131.449 332.561 161.298C297.832 176.127 263.636 194.307 236.274 212.49C215.661 226.188 199.546 241.099 182.487 256.885C180.373 258.841 178.252 260.804 176.117 262.768C172.313 266.273 167.279 270.892 162.083 275.523C140.214 295.059 111.643 315.171 65.5557 316.2C64.1185 316.229 62.6758 316.243 61.2358 316.243C25.2478 316.243 -11.4932 307.209 -49.0806 297.122L-51.4274 296.488C-70.0452 291.447 -87.6325 286.687 -103.912 283.222C-165.261 270.164 -224.594 259.141 -269.43 250.998L-269.109 250.285C-224.261 258.431 -164.912 269.456 -103.541 282.52C-87.2175 285.993 -69.611 290.76 -50.9684 295.806L-48.6244 296.441C-9.66025 306.897 28.3915 316.224 65.5145 315.46C111.09 314.443 139.422 294.485 161.129 275.096C166.323 270.469 171.352 265.853 175.155 262.35C177.29 260.384 179.409 258.423 181.522 256.467C198.609 240.656 214.748 225.721 235.427 211.979C262.844 193.758 297.109 175.542 331.907 160.683C364.205 146.892 396.513 136.303 427.934 129.208C463.985 121.066 499.229 117.461 532.68 118.492C582.95 120.039 629.93 132.242 672.31 154.756C693.271 165.91 712.791 177.794 735.649 192.203C742.148 196.301 748.696 200.47 755.03 204.501C793.725 229.137 830.274 252.406 872.997 271.38C890.357 279.095 908.59 286.527 927.196 293.471C950.337 302.081 973.553 309.817 996.202 316.461C1031.76 326.893 1076 339.875 1120.04 334.03C1144.12 330.835 1162.15 323.072 1175.17 310.298C1200.59 285.535 1202.11 247.32 1203.34 216.613C1203.74 206.595 1204.12 197.13 1205.33 189.505L1205.36 189.33C1208.08 172.254 1210.89 154.598 1217.33 137.177C1222.92 121.981 1230.69 108.319 1240.44 96.5682C1251.43 83.3197 1264.98 72.4713 1280.72 64.3228C1291.25 58.8707 1302.39 54.5394 1314.78 51.083C1348.24 41.69 1389.25 40.2398 1433.36 46.8929C1451.12 49.5701 1468.63 53.626 1485.42 58.9457C1502.31 64.2966 1518.12 70.8207 1532.4 78.333C1564.68 95.2766 1591.43 117.266 1611.92 143.692C1630.34 167.444 1643.2 194.538 1649.11 222.045L1647.95 222.144C1635.31 163.273 1592.92 111.063 1531.66 78.9029C1503.01 63.84 1468.93 53.0195 1433.1 47.6179C1389.23 41.0033 1348.48 42.4377 1315.26 51.7663C1302.97 55.1965 1291.92 59.493 1281.47 64.9015C1252.08 80.1161 1230.3 105.168 1218.48 137.349C1212.05 154.725 1209.24 172.357 1206.53 189.409L1206.5 189.583C1205.29 197.181 1204.91 206.631 1204.51 216.636C1203.28 247.437 1201.74 285.767 1176.15 310.704C1169.87 316.864 1162.22 321.974 1153.42 325.892C1143.94 330.117 1132.79 333.1 1120.28 334.761C1112.84 335.747 1105.16 336.242 1097.2 336.242Z" fill="#FFE492"/>
<path d="M66.4097 340.513C50.3174 340.513 32.7932 338.524 13.0158 334.463C-6.63528 330.428 -26.0693 324.857 -44.1458 319.44C-47.4186 318.453 -50.6668 317.468 -53.893 316.491C-69.9524 311.622 -85.1214 307.024 -99.2984 303.443C-155.828 289.166 -209.711 276.334 -261.822 263.927L-270.456 261.87L-270.022 261.137L-261.387 263.193C-209.274 275.603 -155.383 288.435 -98.8423 302.716C-84.6268 306.306 -69.4385 310.91 -53.3598 315.785C-50.1364 316.763 -46.8883 317.747 -43.6181 318.732C-6.51166 329.852 32.9114 340.629 71.1473 339.669C118.149 338.428 146.317 315.204 165.602 295.113C170.543 289.974 175.303 284.854 178.897 280.967C180.881 278.825 182.851 276.684 184.816 274.549C201.112 256.849 216.504 240.13 236.746 224.366C263.465 203.562 297.697 182.412 333.141 164.817C366.023 148.492 399.206 135.594 431.77 126.482C469.121 116.029 505.603 110.605 540.204 110.359C592.268 109.867 640.624 121.228 683.911 144.122C707.907 156.829 729.421 170.574 747.305 182.345C757.036 188.75 766.767 195.316 776.179 201.666C809.493 224.145 843.942 247.388 882.576 266.214C899.834 274.626 917.949 282.776 936.413 290.436C959.263 299.896 982.467 308.579 1005.39 316.245C1041.21 328.226 1085.79 343.138 1130.58 337.846C1155.23 334.933 1173.38 327.125 1186.05 313.974C1211.13 288.089 1209.44 247.78 1208.08 215.392C1207.68 205.814 1207.29 196.766 1207.75 189.482C1208.78 173.061 1210.33 153.977 1215.71 135.285C1220.24 119.447 1227.09 105.118 1236.05 92.6971C1246.19 78.6468 1259.18 66.8676 1274.67 57.6855C1284.92 51.6007 1296.42 46.4362 1308.83 42.3332C1326.55 36.4593 1346.42 32.7659 1367.92 31.3576C1388.04 30.0381 1409.26 30.7318 1430.99 33.4178C1449.31 35.6837 1467.37 39.4102 1484.66 44.4963C1502.06 49.6137 1518.28 55.9896 1532.88 63.4461C1549.7 72.0321 1565.17 82.1711 1578.85 93.5825C1591.81 104.394 1603.3 116.452 1613 129.42C1631.14 153.681 1643.08 181.335 1647.52 209.389L1646.29 209.467C1636.75 149.224 1595.13 96.2249 1532.1 64.0579C1503.23 49.3087 1467.24 38.7008 1430.75 34.1882C1385.63 28.6089 1343.67 31.6661 1309.41 43.0287C1297.09 47.0986 1285.69 52.223 1275.51 58.259C1246.34 75.5599 1226.63 101.522 1216.93 135.427C1211.56 154.068 1210.01 173.119 1208.99 189.513C1208.53 196.771 1208.91 205.805 1209.31 215.371C1209.98 231.349 1210.74 249.46 1208.19 266.969C1205.23 287.285 1198.34 302.794 1187.11 314.383C1181 320.724 1173.41 325.945 1164.55 329.898C1154.99 334.168 1143.64 337.102 1130.81 338.616C1124.34 339.381 1117.87 339.728 1111.44 339.728C1072.95 339.728 1035.65 327.252 1004.81 316.937C981.859 309.259 958.619 300.563 935.739 291.09C917.248 283.419 899.108 275.257 881.826 266.833C843.112 247.968 808.627 224.701 775.28 202.201C765.871 195.853 756.143 189.289 746.417 182.887C728.558 171.13 707.074 157.404 683.122 144.722C640.069 121.95 591.995 110.655 540.223 111.14C458.917 111.718 383.149 140.981 333.904 165.43C298.532 182.991 264.369 204.095 237.707 224.858C217.526 240.575 202.156 257.267 185.885 274.939C183.92 277.075 181.947 279.215 179.963 281.359C176.366 285.247 171.604 290.372 166.66 295.515C158.564 303.95 145.855 316.227 129.021 325.43C120.845 329.9 112.145 333.412 103.162 335.871C93.1452 338.613 82.3895 340.154 71.1995 340.448C69.6139 340.492 68.0173 340.513 66.4097 340.513Z" fill="#FFE492"/>
<path d="M71.5768 364.777C55.4651 364.777 37.9768 362.635 18.3037 358.264C-2.06458 353.739 -22.2021 347.377 -39.2123 341.749C-44.439 340.016 -49.6547 338.259 -54.7001 336.56C-68.8029 331.81 -82.1253 327.322 -94.6865 323.658C-139.795 310.499 -184.61 297.651 -227.952 285.225C-242.288 281.115 -257.111 276.866 -271.477 272.739L-270.939 271.984C-256.572 276.111 -241.749 280.361 -227.413 284.471C-184.071 296.896 -139.251 309.746 -94.1396 322.907C-81.5455 326.581 -68.2066 331.073 -54.0873 335.83C-49.0447 337.529 -43.8289 339.284 -38.6077 341.017C-3.32867 352.684 37.592 365.035 76.776 363.873C124.886 362.412 151.907 337.053 170.077 315.125C174.735 309.507 179.239 303.867 182.641 299.581C184.388 297.381 186.125 295.183 187.859 292.99C203.446 273.268 218.167 254.641 238.068 236.753C263.952 213.487 298.156 189.408 334.375 168.95C384.815 140.583 462.773 105.981 547.726 102.228C601.752 99.7777 651.477 110.295 695.514 133.491C715.3 143.917 734.866 155.944 758.96 172.49C771.137 180.851 783.22 189.518 794.904 197.896C825.306 219.696 856.738 242.238 892.157 261.054C909.315 270.171 927.307 279.038 945.63 287.408C967.818 297.533 991.014 307.164 1014.57 316.036C1050.75 329.581 1095.78 346.441 1141.11 341.669C1165.97 339.107 1184.75 331.028 1196.94 317.659C1221.67 290.603 1216.36 246.337 1212.48 214.017C1211.4 204.947 1210.37 196.38 1210.17 189.469C1209.72 174.109 1209.76 153.858 1214.09 133.404C1221.57 97.9598 1239.91 70.2531 1268.61 51.0575C1278.67 44.2947 1290.2 38.4191 1302.89 33.5927C1320.94 26.7183 1341.31 22.0942 1363.43 19.8509C1384.26 17.7384 1406.19 17.7716 1428.61 19.9503C1447.52 21.8292 1466.12 25.2351 1483.89 30.0701C1501.83 34.954 1518.47 41.1765 1533.35 48.565C1550.55 57.1022 1566.26 67.2761 1580.05 78.806C1593.12 89.7328 1604.56 101.962 1614.08 115.156C1631.94 139.928 1642.96 168.14 1645.94 196.742L1644.64 196.796C1638.22 135.178 1597.36 81.3874 1532.55 49.2187C1503.16 34.6246 1466.18 24.5204 1428.41 20.7695C1381.86 16.2464 1338.69 20.9264 1303.57 34.3039C1290.98 39.0901 1279.54 44.9187 1269.56 51.6275C1241.06 70.6958 1222.83 98.2456 1215.39 133.515C1211.06 153.913 1211.03 174.125 1211.48 189.455C1211.68 196.341 1212.7 204.898 1213.79 213.956C1215.79 230.663 1218.06 249.6 1216.77 268.088C1215.25 289.616 1209.14 305.967 1198.07 318.076C1192.11 324.607 1184.58 329.94 1175.68 333.928C1166.04 338.253 1154.48 341.132 1141.33 342.488C1120.94 344.634 1098.99 342.706 1074.24 336.593C1052.72 331.279 1032.1 323.561 1013.91 316.753C990.318 307.869 967.092 298.223 944.872 288.084C926.521 279.702 908.505 270.823 891.321 261.693C855.828 242.839 824.36 220.273 793.929 198.45C782.25 190.074 770.169 181.413 758.004 173.058C733.951 156.542 714.42 144.538 694.681 134.136C650.905 111.072 601.496 100.618 547.814 103.053C463.227 106.792 385.527 141.287 335.238 169.569C299.091 189.985 264.957 214.014 239.129 237.23C219.283 255.068 204.584 273.669 189.022 293.362C187.288 295.556 185.551 297.754 183.803 299.954C180.398 304.243 175.892 309.889 171.228 315.512C152.899 337.635 125.606 363.221 76.8337 364.701C75.0997 364.751 73.3438 364.777 71.5768 364.777Z" fill="#FFE492"/>
<path d="M76.8472 389.045C32.8239 389.045 -13.3675 371.896 -54.3157 356.692C-66.8988 352.02 -78.784 347.607 -90.0784 343.875L-272.5 283.608L-271.865 282.836L-89.4436 343.103C-78.119 346.844 -66.2201 351.262 -53.6204 355.94C-11.0894 371.732 37.1191 389.631 82.4037 388.079C131.574 386.397 157.477 358.903 174.55 335.141C180.134 327.369 185.526 319.461 190.741 311.813C205.006 290.897 219.755 269.268 239.384 249.138C254.971 233.155 274.333 216.393 295.378 200.666C318.464 183.412 343.182 167.582 368.84 153.617C397.131 138.221 425.898 125.485 454.337 115.764C485.793 105.014 516.783 97.9945 546.45 94.9006C605.882 88.7043 659.935 98.1078 707.105 122.853C746.305 143.415 779.622 168.842 811.843 193.432C839.889 214.836 868.889 236.967 901.728 255.885C939.659 277.736 980.711 297.9 1023.75 315.817C1060.01 330.913 1105.14 349.702 1151.65 345.479C1190.93 341.913 1213.64 325.243 1221.07 294.514C1227.4 268.376 1221.38 237.37 1216.55 212.457C1214.9 203.967 1213.34 195.947 1212.58 189.444C1208.37 153.594 1211.05 124 1220.79 98.9723C1226.87 83.3568 1235.84 69.4372 1247.45 57.6006C1260.42 44.3782 1277.07 33.3555 1296.94 24.8392C1314.13 17.4716 1333.5 12.1206 1354.52 8.93438C1374.53 5.90157 1395.59 4.88541 1417.13 5.91377C1459.49 7.93565 1500.93 17.794 1533.81 33.671C1551.38 42.1576 1567.34 52.3681 1581.24 64.0165C1594.4 75.0566 1605.81 87.4581 1615.15 100.879C1632.72 126.161 1642.82 154.933 1644.34 184.081L1642.97 184.111C1639.73 122.039 1598.61 66.0593 1532.97 34.3664C1463.27 0.709188 1364.33 -2.99467 1297.7 25.5626C1231.71 53.8514 1204.31 107.436 1213.95 189.38C1214.71 195.862 1216.26 203.871 1217.91 212.351C1222.75 237.317 1228.79 268.39 1222.43 294.646C1218.97 308.947 1212.01 320.441 1201.75 328.809C1195.98 333.513 1189.02 337.358 1181.07 340.234C1172.61 343.295 1162.78 345.35 1151.84 346.343C1147.37 346.749 1142.82 346.953 1138.19 346.953C1121.34 346.953 1103.39 344.25 1083.72 338.774C1061.56 332.603 1040.17 323.7 1022.99 316.547C979.895 298.604 938.785 278.414 900.799 256.532C867.886 237.574 838.856 215.417 810.779 193.99C778.6 169.431 745.324 144.036 706.223 123.526C659.369 98.9496 605.687 89.6072 546.665 95.7617C427.274 108.21 304.29 184.233 240.544 249.598C220.967 269.672 206.238 291.272 191.992 312.16C186.773 319.811 181.379 327.725 175.79 335.504C164.454 351.28 153.259 362.576 140.557 371.05C132.629 376.339 124.028 380.508 114.992 383.441C104.946 386.702 94.0031 388.557 82.4669 388.953C80.6037 389.014 78.7268 389.045 76.8472 389.045Z" fill="#FFE492"/>
</g>
</svg>
