<svg width="101" height="210" viewBox="0 0 101 210" fill="none" xmlns="http://www.w3.org/2000/svg">
<g opacity="0.2">
<path d="M19.444 209.739C17.9096 209.739 16.0767 209.094 13.6362 207.632C7.15906 203.667 0.517181 191.761 -6.49541 179.17C-10.357 172.256 -14.3421 165.104 -18.3478 159.243C-24.1968 148.654 -34.1133 141.357 -43.7105 134.285C-50.7231 129.122 -57.3444 124.236 -62.4725 118.204L-62.4828 118.19C-66.3341 113.502 -68.1362 108.971 -67.992 104.348C-67.714 95.3265 -60.0217 87.2924 -51.1041 77.994L-50.2494 77.0984C-43.6384 70.1707 -35.3387 60.8987 -23.3215 47.0565L-22.302 45.9238C-11.5515 33.9649 1.83527 19.0823 19.1762 10.0604C53.9097 -10.8412 84.3078 5.34539 93.9051 22.8885C103.914 43.3951 103.049 65.1659 90.6099 106.139C77.5836 148.852 48.73 181.87 36.9291 194.079C32.0996 198.109 29.0721 201.679 26.8685 204.286C24.0675 207.579 22.2449 209.739 19.444 209.739ZM-61.5664 116.939C-56.5515 122.84 -49.992 127.673 -43.0515 132.797C-33.341 139.948 -23.2906 147.35 -17.3181 158.176C-13.302 164.037 -9.29632 171.228 -5.42446 178.169C1.49545 190.576 8.03436 202.298 14.1923 206.077C20.2781 209.699 21.7094 208.014 25.9623 203.009C28.2071 200.361 31.2861 196.726 36.1465 192.67C47.8032 180.592 76.4509 147.824 89.3639 105.494C101.628 65.1133 102.524 43.7375 92.793 23.8105C83.4737 6.79414 53.7861 -8.90513 19.7117 11.6014C2.5458 20.5442 -10.7483 35.3215 -21.4268 47.1882L-22.4359 48.3208C-34.4634 62.1762 -42.7735 71.4615 -49.405 78.4023L-50.2597 79.2979C-58.9302 88.3329 -66.4062 96.143 -66.6636 104.388C-66.7872 108.51 -65.119 112.606 -61.5664 116.939Z" fill="#CCCCCC"/>
<path d="M17.354 197.806C15.2327 197.806 12.9879 196.937 9.89864 195.396L9.83685 195.37C3.9055 191.564 -0.790154 182.384 -5.75354 172.677C-9.14141 166.039 -12.6529 159.19 -16.8748 153.224C-22.8268 143.544 -30.313 136.01 -37.5419 128.727C-42.4023 123.841 -46.995 119.218 -51.0007 114.108L-51.0728 114.002C-59.2284 99.7913 -53.3794 93.5222 -42.773 82.1297C-41.6197 80.8916 -40.4046 79.5877 -39.138 78.1917C-36.646 75.8341 -33.9892 73.2 -31.1677 70.4079C-18.6357 57.9881 -1.4595 40.9849 22.7705 27.1822C52.3861 12.6814 75.2671 23.1652 84.8232 39.9839C94.3998 57.5139 90.6824 78.6131 79.9216 113.857C68.1309 149.497 46.6092 172.572 35.0451 184.965L33.7579 186.348C25.1595 194.514 21.473 197.806 17.354 197.806ZM10.4135 193.816C18.8472 198.004 20.2785 197.003 32.9341 185.018L34.1904 183.674C45.6618 171.373 67.0188 148.47 78.6859 113.238C89.2717 78.5868 92.9685 57.8827 83.7419 40.9981C74.4948 24.7193 52.211 14.6175 23.2854 28.7758C-0.769562 42.4732 -17.8634 59.4105 -30.3542 71.7644C-33.1758 74.5566 -35.8325 77.1907 -38.3039 79.5351C-39.5396 80.8916 -40.7547 82.1955 -41.908 83.4467C-52.5247 94.8524 -57.3851 100.068 -50.0224 112.949C-46.0785 117.967 -41.527 122.537 -36.7181 127.384C-29.4172 134.72 -21.8794 142.319 -15.8554 152.118C-11.5922 158.137 -8.04988 165.051 -4.63112 171.742C0.218998 181.225 4.81168 190.194 10.4135 193.816Z" fill="#CCCCCC"/>
<path d="M15.5439 187.85C12.8357 187.85 10.3231 186.612 7.19265 184.505C1.96153 180.475 -2.23986 172.138 -6.68837 163.326C-9.32453 158.085 -12.0637 152.672 -15.1941 147.706C-19.5705 139.909 -24.7604 133.245 -29.765 126.791C-33.8737 121.497 -37.7559 116.505 -40.8142 111.356L-40.8554 111.277C-47.0545 97.9216 -40.6495 91.692 -29.0133 80.3785L-28.8794 80.2468L-26.7273 78.3634C-14.4733 67.6821 2.31164 53.0497 25.3059 42.4474C52.4501 31.371 69.7293 42.6581 76.2888 55.6706C83.3014 69.5523 81.5817 88.1886 70.3574 119.995C62.1812 142.161 48.8357 162.088 30.7018 179.223C23.6892 185.308 19.4158 187.85 15.5439 187.85ZM-39.733 110.341C-36.7261 115.386 -32.8852 120.338 -28.8177 125.567C-23.7719 132.06 -18.5511 138.79 -14.1334 146.653C-10.9721 151.644 -8.22268 157.11 -5.56593 162.391C-1.21009 171.044 2.9089 179.21 7.85169 183.016C14.9776 187.837 18.5302 187.745 29.9295 177.827C47.8677 160.864 61.0691 141.161 69.1423 119.271C80.1503 88.0701 81.9009 69.9079 75.1664 56.5794C68.3597 43.0796 50.4421 33.9656 25.7281 44.041C2.9192 54.5643 -13.7833 69.1177 -25.9756 79.7595L-28.2101 81.7219C-39.9286 93.1144 -45.2936 98.3299 -39.733 110.341Z" fill="#CCCCCC"/>
<path d="M14.57 178.788C11.5425 178.788 8.70044 177.458 5.52882 174.85L5.50822 174.837C0.730183 170.649 -3.12107 162.773 -7.19888 154.449C-9.08332 150.59 -11.0399 146.612 -13.1611 142.819C-15.9929 137.261 -19.1337 132.125 -22.1714 127.173C-25.8991 121.088 -29.4312 115.332 -31.7378 109.748C-35.7641 97.9605 -29.8739 91.7967 -19.7 83.0119C-9.21718 74.7145 6.98076 62.8873 26.8343 55.907C45.792 50.9153 59.9922 54.9192 66.8606 67.1678C74.2748 80.3646 72.4316 101.293 61.8046 124.591C50.673 152.012 33.0746 168.094 27.9465 172.361C22.4888 176.681 18.3801 178.788 14.57 178.788ZM6.24964 173.414C12.181 178.274 16.8354 179.144 27.2256 170.912C32.2714 166.711 49.6432 150.84 60.6307 123.762C70.9899 101.042 72.8641 80.7861 65.7691 68.1687C59.2199 56.4996 45.5037 52.746 27.1329 57.5796C7.48533 64.4942 -8.59933 76.2291 -18.9895 84.4607C-29.462 93.4957 -34.0238 98.8692 -30.5536 109.024C-28.319 114.41 -24.8282 120.1 -21.1314 126.132C-18.073 131.124 -14.9117 136.274 -12.0696 141.871C-9.93801 145.664 -7.98149 149.681 -6.08675 153.553C-2.07073 161.706 1.70844 169.424 6.24964 173.414Z" fill="#CCCCCC"/>
<path d="M14.028 170.517C10.8152 170.517 7.85983 169.108 4.79118 166.29L4.7088 166.197C-7.04063 150.985 -20.932 116.149 -23.599 109.327L-23.6402 109.169C-25.7203 99.3964 -21.0246 93.6541 -11.6436 86.4761C-2.80837 80.1279 11.1447 71.7514 27.4971 67.8398C42.5521 64.8106 53.8278 68.8934 59.2649 79.3377C65.2992 90.9409 63.456 108.576 54.2191 127.726C46.0841 146.191 34.0978 159.48 25.5921 165.75C21.1436 168.937 17.4365 170.517 14.028 170.517ZM5.61498 164.946C11.4949 170.307 16.7363 170.122 24.9228 164.261C33.274 158.111 45.0441 145.045 53.0658 126.857C61.9011 108.537 63.7958 91.1385 58.1528 80.2859C53.0246 70.4212 42.2123 66.5886 27.7237 69.5256C11.5669 73.3978 -2.2317 81.6952 -10.9743 87.9644C-19.9537 94.8262 -24.186 99.9232 -22.3736 108.655C-14.7123 128.253 -3.35413 153.303 5.61498 164.946Z" fill="#CCCCCC"/>
<path d="M13.473 162.892C10.0336 162.892 7.05765 161.43 4.8025 158.598C-4.2181 147.416 -13.6094 123.828 -16.3794 109.643C-16.8325 106.364 -16.1838 103.163 -14.4744 100.108C-9.20209 90.6909 6.41922 82.5646 27.3231 78.3764C39.1138 76.9145 47.9078 80.9578 52.1092 89.7689C56.8666 99.7522 55.1572 114.279 47.4238 129.61C37.3632 149.01 25.3254 161.39 15.2236 162.76C14.6263 162.852 14.0393 162.892 13.473 162.892ZM31.9158 79.7857C30.4947 79.7857 29.0222 79.8779 27.4982 80.0754C6.98558 84.1846 -8.3165 92.0474 -13.3726 101.109C-14.876 103.796 -15.4424 106.548 -15.0614 109.301C-12.3428 123.196 -3.11627 146.402 5.74987 157.386C8.0874 160.31 11.3208 161.588 15.0897 161.074C24.8002 159.757 36.4776 147.653 46.3117 128.688C53.6435 114.148 55.3941 99.9366 50.9764 90.6645C47.5886 83.5656 40.9055 79.7857 31.9158 79.7857Z" fill="#CCCCCC"/>
<path d="M13.7912 155.647C10.599 155.647 7.7878 154.33 5.59444 151.775C-2.23165 142.701 -9.47078 123.511 -9.88268 110.723V110.696C-9.93417 98.9088 5.38848 89.2285 26.5395 87.7007C35.5498 87.4241 42.2329 91.2699 45.3736 98.5664C48.9778 106.93 47.4949 118.533 41.3061 130.413C33.6551 144.848 24.0784 154.225 15.6757 155.503C15.0269 155.595 14.3988 155.647 13.7912 155.647ZM-8.54401 110.67C-8.13211 123.077 -1.10922 141.7 6.50062 150.511C8.81756 153.211 11.9274 154.344 15.5109 153.804C23.5327 152.579 32.7592 143.478 40.194 129.451C46.0945 118.125 47.5567 107.154 44.1997 99.3698C41.3061 92.666 35.0658 89.11 26.591 89.3865C6.53151 90.8485 -8.5852 100.002 -8.54401 110.67Z" fill="#CCCCCC"/>
<path d="M14.2551 148.786C11.4645 148.786 8.97253 147.693 6.96452 145.546C-0.0892606 138.052 -5.10415 122.879 -4.00232 112.396C-2.80781 102.333 10.0332 95.1158 25.1911 95.9455C31.8433 96.4328 36.7449 99.9362 39.0103 105.797C41.6053 112.514 40.4211 121.431 35.746 130.242C30.2265 140.554 22.9462 147.416 16.2734 148.601C15.5835 148.733 14.9142 148.786 14.2551 148.786ZM22.7918 97.5918C9.34324 97.5918 -1.64418 103.953 -2.67393 112.646C-3.70368 122.431 1.19793 137.196 7.81921 144.242C10.0023 146.56 12.8547 147.482 16.0881 146.915C22.4005 145.796 29.3307 139.198 34.6442 129.28C39.0412 120.996 40.1945 112.712 37.8158 106.548C35.7769 101.266 31.2666 98.1055 25.1293 97.6445C24.3467 97.6182 23.5641 97.5918 22.7918 97.5918Z" fill="#CCCCCC"/>
<path d="M14.7881 142.227C12.5433 142.227 10.5044 141.397 8.79498 139.777C2.87393 134.154 -0.452158 122.84 1.3808 114.556C3.24464 106.364 12.9243 101.438 23.3968 103.334C28.041 104.217 31.4495 107.167 32.9941 111.645C34.7447 116.716 33.8797 123.143 30.6257 129.28C26.8877 136.287 21.8728 140.923 16.8682 141.99C16.168 142.148 15.4677 142.227 14.7881 142.227ZM2.66798 115.03C0.999788 122.55 4.17142 133.258 9.5879 138.408C11.5135 140.238 13.954 140.897 16.652 140.317C21.2344 139.33 26.0536 134.852 29.5341 128.332C32.5204 122.695 33.3339 116.874 31.779 112.343C30.43 108.418 27.382 105.824 23.2115 105.033C13.5421 103.269 4.32588 107.76 2.66798 115.03Z" fill="#CCCCCC"/>
<path d="M15.3557 135.878C13.8008 135.878 12.2974 135.364 10.9793 134.258C6.57198 130.61 4.51248 122.865 6.37633 117.005C8.25047 111.17 14.9336 108.022 21.2871 109.998C24.2219 110.907 26.3638 113.132 27.3214 116.241C28.3718 119.665 27.8363 123.827 25.8592 127.646C23.1303 132.888 19.0834 135.878 15.3557 135.878ZM11.7001 132.836C15.4999 135.983 21.3489 133.244 24.7471 126.711C26.477 123.366 26.9713 119.77 26.0754 116.873C25.2825 114.291 23.4702 112.434 20.9679 111.657C15.2322 109.879 9.23904 112.566 7.61204 117.65C5.97474 122.8 7.80768 129.609 11.7001 132.836Z" fill="#CCCCCC"/>
<path d="M15.8309 129.649C14.9865 129.649 14.1627 129.399 13.411 128.872C10.8366 127.068 9.79661 122.919 11.1044 119.613C12.3916 116.347 15.9236 114.78 18.9614 116.123C20.4236 116.768 21.4945 118.059 21.9579 119.771C22.4522 121.576 22.2154 123.683 21.2989 125.54C19.9911 128.161 17.8801 129.649 15.8309 129.649ZM16.6547 117.348C14.7909 117.348 13.03 118.494 12.2783 120.39C11.3 122.879 12.0826 126.014 14.0392 127.371C15.9854 128.74 18.7348 127.502 20.1559 124.618C20.8664 123.182 21.0518 121.668 20.681 120.324C20.3515 119.113 19.5792 118.191 18.5083 117.717C17.9007 117.466 17.2726 117.348 16.6547 117.348Z" fill="#CCCCCC"/>
</g>
</svg>
